solid Created by Gmsh
facet normal 0 -0 1
  outer loop
    vertex -0.1869358603431738 0.6589715567232687 6
    vertex -0.07039478587847363 0.8251333001473163 6
    vertex -0.2279816207718398 0.8285540375552227 6
  endloop
endfacet
facet normal 0 0 1
  outer loop
    vertex -0.07039478587847363 0.8251333001473163 6
    vertex -0.1869358603431738 0.6589715567232687 6
    vertex -0.03339096980344454 0.6710831765594318 6
  endloop
endfacet
facet normal 0 -0 1
  outer loop
    vertex 0.5937516180102189 0.601449174232821 6
    vertex 0.6427876096865394 0.766044443118978 6
    vertex 0.4191171031780941 0.730231935025382 6
  endloop
endfacet
facet normal 0 0 1
  outer loop
    vertex 0.6722446417551647 -0.1716523968471834 6
    vertex 0.7660444431189779 -0.3572123903134612 6
    vertex 0.8371156865430369 -0.2185330864723911 6
  endloop
endfacet
facet normal 0 0 1
  outer loop
    vertex 0.3420201433256688 0.9396926207859083 6
    vertex 0.2206153631189133 0.8193371428106936 6
    vertex 0.4191171031780941 0.730231935025382 6
  endloop
endfacet
facet normal -0 0 1
  outer loop
    vertex -0.7832773224829964 -0.3585507650528907 6
    vertex -0.583319316367006 -0.3814894696693846 6
    vertex -0.7332998217080278 -0.1964870950365522 6
  endloop
endfacet
facet normal 0 -0 1
  outer loop
    vertex -0.583319316367006 -0.3814894696693846 6
    vertex -0.5647212030367961 -0.187933281760879 6
    vertex -0.7332998217080278 -0.1964870950365522 6
  endloop
endfacet
facet normal 0 0 1
  outer loop
    vertex 0.7660444431189779 -0.3572123903134612 6
    vertex 0.6722446417551647 -0.1716523968471834 6
    vertex 0.6139189019450221 -0.3369579484236528 6
  endloop
endfacet
facet normal 0 0 1
  outer loop
    vertex -0.3669091366449524 0.7341649571074121 6
    vertex -0.3460967350737 0.5562046730679968 6
    vertex -0.1869358603431738 0.6589715567232687 6
  endloop
endfacet
facet normal -0 0 1
  outer loop
    vertex -0.3669091366449524 0.7341649571074121 6
    vertex -0.1869358603431738 0.6589715567232687 6
    vertex -0.2279816207718398 0.8285540375552227 6
  endloop
endfacet
facet normal 0 0 1
  outer loop
    vertex -0.3572123903134611 -0.7660444431189781 6
    vertex -0.1496429172081606 -0.6910619687153224 6
    vertex -0.3047159973039467 -0.5865747698844586 6
  endloop
endfacet
facet normal 0 -0 1
  outer loop
    vertex 0.09991509708781472 0.5907884458107456 6
    vertex 0.2607972898033978 0.6605905162911103 6
    vertex 0.07483752384820333 0.7521464220744625 6
  endloop
endfacet
facet normal 0 0 1
  outer loop
    vertex 0.2607972898033978 0.6605905162911103 6
    vertex 0.2206153631189133 0.8193371428106936 6
    vertex 0.07483752384820333 0.7521464220744625 6
  endloop
endfacet
facet normal 0 0 1
  outer loop
    vertex 0.6427876096865394 0.766044443118978 6
    vertex 0.5000000000000001 0.8660254037844386 6
    vertex 0.4191171031780941 0.730231935025382 6
  endloop
endfacet
facet normal 0 0 1
  outer loop
    vertex 0.8227889740429258 -0.048132324208711 6
    vertex 0.6651435525179469 0.02335774679146845 6
    vertex 0.6722446417551647 -0.1716523968471834 6
  endloop
endfacet
facet normal 0 0 1
  outer loop
    vertex -0.5976724774602399 -0.5976724774602398 6
    vertex -0.4413450583292582 -0.4883479971850203 6
    vertex -0.583319316367006 -0.3814894696693846 6
  endloop
endfacet
facet normal 0 0 1
  outer loop
    vertex 0.4137819358445353 0.5567077535690246 6
    vertex 0.5937516180102189 0.601449174232821 6
    vertex 0.4191171031780941 0.730231935025382 6
  endloop
endfacet
facet normal 0 0 1
  outer loop
    vertex 0.5000000000000001 0.8660254037844386 6
    vertex 0.3420201433256688 0.9396926207859083 6
    vertex 0.4191171031780941 0.730231935025382 6
  endloop
endfacet
facet normal 0 0 1
  outer loop
    vertex 0.8227889740429258 -0.048132324208711 6
    vertex 0.6722446417551647 -0.1716523968471834 6
    vertex 0.8371156865430369 -0.2185330864723911 6
  endloop
endfacet
facet normal -0 0 1
  outer loop
    vertex -0.3572123903134611 -0.7660444431189781 6
    vertex -0.2198100153138729 -0.8472566137217035 6
    vertex -0.1496429172081606 -0.6910619687153224 6
  endloop
endfacet
facet normal -0 0 1
  outer loop
    vertex 0.1605017426201159 -0.7110069645573012 6
    vertex 0.3550445030517005 -0.7623608830725722 6
    vertex 0.2878942425948917 -0.6159090506635886 6
  endloop
endfacet
facet normal 0 0 1
  outer loop
    vertex 0.3550445030517005 -0.7623608830725722 6
    vertex 0.1605017426201159 -0.7110069645573012 6
    vertex 0.2213095030633571 -0.8533148337002902 6
  endloop
endfacet
facet normal 0 0 1
  outer loop
    vertex 0.2206153631189133 0.8193371428106936 6
    vertex 0.2607972898033978 0.6605905162911103 6
    vertex 0.4191171031780941 0.730231935025382 6
  endloop
endfacet
facet normal 0 -0 1
  outer loop
    vertex -0.5976724774602399 -0.5976724774602398 6
    vertex -0.583319316367006 -0.3814894696693846 6
    vertex -0.7192677926427318 -0.4961000643738108 6
  endloop
endfacet
facet normal 0 0 1
  outer loop
    vertex -0.3460967350737 0.5562046730679968 6
    vertex -0.3669091366449524 0.7341649571074121 6
    vertex -0.4655261197942876 0.602664153990477 6
  endloop
endfacet
facet normal -0 0 1
  outer loop
    vertex 0.2878942425948917 -0.6159090506635886 6
    vertex 0.3550445030517005 -0.7623608830725722 6
    vertex 0.442641912411338 -0.5715415420895242 6
  endloop
endfacet
facet normal -0 0 1
  outer loop
    vertex 0.6651435525179469 0.02335774679146845 6
    vertex 0.8227889740429258 -0.048132324208711 6
    vertex 0.7563609715222811 0.10736398223216 6
  endloop
endfacet
facet normal 0 0 1
  outer loop
    vertex 0.442641912411338 -0.5715415420895242 6
    vertex 0.3550445030517005 -0.7623608830725722 6
    vertex 0.5097593807210087 -0.7151013238484767 6
  endloop
endfacet
facet normal 0 -0 1
  outer loop
    vertex 0.8227889740429258 -0.048132324208711 6
    vertex 0.8684062271013905 0.0759757002066906 6
    vertex 0.7563609715222811 0.10736398223216 6
  endloop
endfacet
facet normal -0 0 1
  outer loop
    vertex -0.3047159973039467 -0.5865747698844586 6
    vertex -0.1496429172081606 -0.6910619687153224 6
    vertex -0.1415292420341327 -0.5125603531864651 6
  endloop
endfacet
facet normal 0 -0 1
  outer loop
    vertex -0.8328202280049311 -0.07603599290028862 6
    vertex -0.70625511617278 0.07005784726368672 6
    vertex -0.8683170845064527 0.07631695597981158 6
  endloop
endfacet
facet normal 0 0 1
  outer loop
    vertex 0.7660444431189779 -0.3572123903134612 6
    vertex 0.6139189019450221 -0.3369579484236528 6
    vertex 0.7140740033710572 -0.5000000000000004 6
  endloop
endfacet
facet normal -0 0 1
  outer loop
    vertex -0.8164357873534698 0.2187633098932302 6
    vertex -0.70625511617278 0.07005784726368672 6
    vertex -0.6623795742944094 0.2414012129665281 6
  endloop
endfacet
facet normal 0 0 1
  outer loop
    vertex -0.4930885553031571 0.4724375045029384 6
    vertex -0.6099953939111548 0.5874504880495555 6
    vertex -0.6350633314860543 0.4134991829311041 6
  endloop
endfacet
facet normal 0 0 1
  outer loop
    vertex -0.3669091366449524 0.7341649571074121 6
    vertex -0.5045128288277025 0.7128045653119511 6
    vertex -0.4655261197942876 0.602664153990477 6
  endloop
endfacet
facet normal 0 0 1
  outer loop
    vertex 0.7140740033710572 -0.5000000000000004 6
    vertex 0.6139189019450221 -0.3369579484236528 6
    vertex 0.5682510108521882 -0.48158113310195 6
  endloop
endfacet
facet normal 0 0 1
  outer loop
    vertex -0.70625511617278 0.07005784726368672 6
    vertex -0.8164357873534698 0.2187633098932302 6
    vertex -0.8683170845064527 0.07631695597981158 6
  endloop
endfacet
facet normal 0 0 1
  outer loop
    vertex -0.1415292420341327 -0.5125603531864651 6
    vertex -0.1496429172081606 -0.6910619687153224 6
    vertex 0.006827882933136084 -0.6051286917222446 6
  endloop
endfacet
facet normal 0 0 1
  outer loop
    vertex -0.3047159973039467 -0.5865747698844586 6
    vertex -0.1415292420341327 -0.5125603531864651 6
    vertex -0.2858604504784846 -0.4119586813191248 6
  endloop
endfacet
facet normal 0 -0 1
  outer loop
    vertex -0.3047159973039467 -0.5865747698844586 6
    vertex -0.2858604504784846 -0.4119586813191248 6
    vertex -0.4413450583292582 -0.4883479971850203 6
  endloop
endfacet
facet normal -0 0 1
  outer loop
    vertex -0.2858604504784846 -0.4119586813191248 6
    vertex -0.1415292420341327 -0.5125603531864651 6
    vertex -0.1271190169822785 -0.3390200798126297 6
  endloop
endfacet
facet normal 0 0 1
  outer loop
    vertex -0.2858604504784846 -0.4119586813191248 6
    vertex -0.1271190169822785 -0.3390200798126297 6
    vertex -0.2692259123005404 -0.2385407860188292 6
  endloop
endfacet
facet normal -0 0 1
  outer loop
    vertex -0.2692259123005404 -0.2385407860188292 6
    vertex -0.1271190169822785 -0.3390200798126297 6
    vertex -0.1108057696112463 -0.1660662749204371 6
  endloop
endfacet
facet normal 0 0 1
  outer loop
    vertex -0.2692259123005404 -0.2385407860188292 6
    vertex -0.1108057696112463 -0.1660662749204371 6
    vertex -0.2529395099311318 -0.06525039345012108 6
  endloop
endfacet
facet normal 0 -0 1
  outer loop
    vertex -0.2692259123005404 -0.2385407860188292 6
    vertex -0.2529395099311318 -0.06525039345012108 6
    vertex -0.4113081725829723 -0.1377568850329596 6
  endloop
endfacet
facet normal -0 0 1
  outer loop
    vertex -0.2529395099311318 -0.06525039345012108 6
    vertex -0.1108057696112463 -0.1660662749204371 6
    vertex -0.09448742488670077 0.007335388680449044 6
  endloop
endfacet
facet normal 0 0 1
  outer loop
    vertex -0.4113081725829723 -0.1377568850329596 6
    vertex -0.2529395099311318 -0.06525039345012108 6
    vertex -0.3950587185491097 0.03562823773122915 6
  endloop
endfacet
facet normal 0 0 1
  outer loop
    vertex -0.09448742488670077 0.007335388680449044 6
    vertex -0.1108057696112463 -0.1660662749204371 6
    vertex 0.04764255706417024 -0.09358336288822866 6
  endloop
endfacet
facet normal -0 0 1
  outer loop
    vertex -0.09448742488670077 0.007335388680449044 6
    vertex 0.04764255706417024 -0.09358336288822866 6
    vertex 0.06396584704741445 0.07991997438228071 6
  endloop
endfacet
facet normal 0 -0 1
  outer loop
    vertex -0.4113081725829723 -0.1377568850329596 6
    vertex -0.3950587185491097 0.03562823773122915 6
    vertex -0.5489038845044331 -0.03049951756663503 6
  endloop
endfacet
facet normal 0 0 1
  outer loop
    vertex -0.4113081725829723 -0.1377568850329596 6
    vertex -0.5489038845044331 -0.03049951756663503 6
    vertex -0.5647212030367961 -0.187933281760879 6
  endloop
endfacet
facet normal 0 0 1
  outer loop
    vertex -0.09448742488670077 0.007335388680449044 6
    vertex 0.06396584704741445 0.07991997438228071 6
    vertex -0.07816279553076839 0.1808409995904861 6
  endloop
endfacet
facet normal 0 0 1
  outer loop
    vertex 0.06396584704741445 0.07991997438228071 6
    vertex 0.04764255706417024 -0.09358336288822866 6
    vertex 0.2060970265080493 -0.02098618523465317 6
  endloop
endfacet
facet normal 0 0 1
  outer loop
    vertex -0.5489038845044331 -0.03049951756663503 6
    vertex -0.3950587185491097 0.03562823773122915 6
    vertex -0.5331614068557566 0.1372869248339609 6
  endloop
endfacet
facet normal 0 0 1
  outer loop
    vertex 0.2060970265080493 -0.02098618523465317 6
    vertex 0.04764255706417024 -0.09358336288822866 6
    vertex 0.1897705100383896 -0.194528037393205 6
  endloop
endfacet
facet normal -0 0 1
  outer loop
    vertex -0.07816279553076839 0.1808409995904861 6
    vertex 0.06396584704741445 0.07991997438228071 6
    vertex 0.08029437494046227 0.253466328919072 6
  endloop
endfacet
facet normal 0 -0 1
  outer loop
    vertex -0.5489038845044331 -0.03049951756663503 6
    vertex -0.5331614068557566 0.1372869248339609 6
    vertex -0.70625511617278 0.07005784726368672 6
  endloop
endfacet
facet normal 0 0 1
  outer loop
    vertex -0.07816279553076839 0.1808409995904861 6
    vertex 0.08029437494046227 0.253466328919072 6
    vertex -0.06183585571358167 0.3543797563311073 6
  endloop
endfacet
facet normal 0 0 1
  outer loop
    vertex 0.2060970265080493 -0.02098618523465317 6
    vertex 0.1897705100383896 -0.194528037393205 6
    vertex 0.3482271306391747 -0.1219033638236867 6
  endloop
endfacet
facet normal 0 0 1
  outer loop
    vertex 0.3482271306391747 -0.1219033638236867 6
    vertex 0.1897705100383896 -0.194528037393205 6
    vertex 0.3318989884794828 -0.2954491059148634 6
  endloop
endfacet
facet normal 0 -0 1
  outer loop
    vertex -0.07816279553076839 0.1808409995904861 6
    vertex -0.06183585571358167 0.3543797563311073 6
    vertex -0.2202921131363342 0.2817480826430382 6
  endloop
endfacet
facet normal -0 0 1
  outer loop
    vertex 0.2060970265080493 -0.02098618523465317 6
    vertex 0.3482271306391747 -0.1219033638236867 6
    vertex 0.3645546944128681 0.05163884169661721 6
  endloop
endfacet
facet normal -0 0 1
  outer loop
    vertex -0.06183585571358167 0.3543797563311073 6
    vertex 0.08029437494046227 0.253466328919072 6
    vertex 0.09662237391893397 0.4270100627971029 6
  endloop
endfacet
facet normal 0 0 1
  outer loop
    vertex 0.3318989884794828 -0.2954491059148634 6
    vertex 0.1897705100383896 -0.194528037393205 6
    vertex 0.173634889877698 -0.3668832243541008 6
  endloop
endfacet
facet normal 0 0 1
  outer loop
    vertex -0.2202921131363342 0.2817480826430382 6
    vertex -0.06183585571358167 0.3543797563311073 6
    vertex -0.203965966762525 0.4552919864498207 6
  endloop
endfacet
facet normal 0 0 1
  outer loop
    vertex 0.09662237391893397 0.4270100627971029 6
    vertex 0.08029437494046227 0.253466328919072 6
    vertex 0.2387526798026586 0.3260970938606191 6
  endloop
endfacet
facet normal 0 0 1
  outer loop
    vertex 0.3645546944128681 0.05163884169661721 6
    vertex 0.3482271306391747 -0.1219033638236867 6
    vertex 0.5066851636512315 -0.04927375923267353 6
  endloop
endfacet
facet normal -0 0 1
  outer loop
    vertex 0.09662237391893397 0.4270100627971029 6
    vertex 0.2387526798026586 0.3260970938606191 6
    vertex 0.2558934233448562 0.4978693330960458 6
  endloop
endfacet
facet normal -0 0 1
  outer loop
    vertex 0.3645546944128681 0.05163884169661721 6
    vertex 0.5066851636512315 -0.04927375923267353 6
    vertex 0.5195890257803351 0.1245929687906187 6
  endloop
endfacet
facet normal 0 0 1
  outer loop
    vertex 0.3318989884794828 -0.2954491059148634 6
    vertex 0.173634889877698 -0.3668832243541008 6
    vertex 0.3118237298032507 -0.4647944005666507 6
  endloop
endfacet
facet normal 0 -0 1
  outer loop
    vertex -0.2202921131363342 0.2817480826430382 6
    vertex -0.203965966762525 0.4552919864498207 6
    vertex -0.3613891046179822 0.3804134871097531 6
  endloop
endfacet
facet normal 0 0 1
  outer loop
    vertex 0.3318989884794828 -0.2954491059148634 6
    vertex 0.3118237298032507 -0.4647944005666507 6
    vertex 0.4622973580780588 -0.3898718278197024 6
  endloop
endfacet
facet normal 0 0 1
  outer loop
    vertex -0.3613891046179822 0.3804134871097531 6
    vertex -0.203965966762525 0.4552919864498207 6
    vertex -0.3460967350737 0.5562046730679968 6
  endloop
endfacet
facet normal 0 0 1
  outer loop
    vertex 0.5195890257803351 0.1245929687906187 6
    vertex 0.5066851636512315 -0.04927375923267353 6
    vertex 0.6651435525179469 0.02335774679146845 6
  endloop
endfacet
facet normal 0 0 1
  outer loop
    vertex 0.2558934233448562 0.4978693330960458 6
    vertex 0.2387526798026586 0.3260970938606191 6
    vertex 0.3951506749113086 0.3953405877170136 6
  endloop
endfacet
facet normal 0 0 1
  outer loop
    vertex 0.09662237391893397 0.4270100627971029 6
    vertex 0.2558934233448562 0.4978693330960458 6
    vertex 0.09991509708781472 0.5907884458107456 6
  endloop
endfacet
facet normal -0 0 1
  outer loop
    vertex 0.2558934233448562 0.4978693330960458 6
    vertex 0.3951506749113086 0.3953405877170136 6
    vertex 0.4137819358445353 0.5567077535690246 6
  endloop
endfacet
facet normal -0 0 1
  outer loop
    vertex -0.3460967350737 0.5562046730679968 6
    vertex -0.203965966762525 0.4552919864498207 6
    vertex -0.1869358603431738 0.6589715567232687 6
  endloop
endfacet
facet normal 0 0 1
  outer loop
    vertex 0.6651435525179469 0.02335774679146845 6
    vertex 0.5066851636512315 -0.04927375923267353 6
    vertex 0.6722446417551647 -0.1716523968471834 6
  endloop
endfacet
facet normal 0 0 1
  outer loop
    vertex 0.3420201433256682 -0.9396926207859085 6
    vertex 0.5000000000000001 -0.8660254037844386 6
    vertex 0.3550445030517005 -0.7623608830725722 6
  endloop
endfacet
facet normal 0 0 1
  outer loop
    vertex 0.3420201433256688 0.9396926207859083 6
    vertex 0.1736481776669304 0.984807753012208 6
    vertex 0.2206153631189133 0.8193371428106936 6
  endloop
endfacet
facet normal 0 0 1
  outer loop
    vertex 0.766044443118978 0.6427876096865393 6
    vertex 0.6427876096865394 0.766044443118978 6
    vertex 0.5937516180102189 0.601449174232821 6
  endloop
endfacet
facet normal 0 0 1
  outer loop
    vertex -0.9396926207859083 0.3420201433256689 6
    vertex -0.984807753012208 0.1736481776669307 6
    vertex -0.8164357873534698 0.2187633098932302 6
  endloop
endfacet
facet normal 0 -0 1
  outer loop
    vertex 0.8660254037844384 -0.5000000000000004 6
    vertex 0.9396926207859081 -0.3420201433256694 6
    vertex 0.7660444431189779 -0.3572123903134612 6
  endloop
endfacet
facet normal 0 0 1
  outer loop
    vertex 6.123233995736766e-17 1 6
    vertex -0.1736481776669303 0.984807753012208 6
    vertex -0.07039478587847363 0.8251333001473163 6
  endloop
endfacet
facet normal 0 0 1
  outer loop
    vertex -0.9396926207859084 -0.3420201433256687 6
    vertex -0.8660254037844388 -0.4999999999999997 6
    vertex -0.7832773224829964 -0.3585507650528907 6
  endloop
endfacet
facet normal -0 0 1
  outer loop
    vertex -0.5000000000000004 -0.8660254037844384 6
    vertex -0.3420201433256694 -0.9396926207859082 6
    vertex -0.3572123903134611 -0.7660444431189781 6
  endloop
endfacet
facet normal 0 -0 1
  outer loop
    vertex 0.984807753012208 -0.1736481776669304 6
    vertex 1 0 6
    vertex 0.8227889740429258 -0.048132324208711 6
  endloop
endfacet
facet normal 0 0 1
  outer loop
    vertex -0.6427876096865394 0.766044443118978 6
    vertex -0.7660444431189779 0.6427876096865395 6
    vertex -0.6099953939111548 0.5874504880495555 6
  endloop
endfacet
facet normal 0 0 1
  outer loop
    vertex -1 1.224646799147353e-16 6
    vertex -0.9848077530122081 -0.17364817766693 6
    vertex -0.8328202280049311 -0.07603599290028862 6
  endloop
endfacet
facet normal -0 0 1
  outer loop
    vertex -0.1736481776669303 -0.984807753012208 6
    vertex -1.83697019872103e-16 -1 6
    vertex -0.07652644805514296 -0.8546762829760999 6
  endloop
endfacet
facet normal 0 -0 1
  outer loop
    vertex 0.6427876096865393 -0.7660444431189781 6
    vertex 0.7660444431189778 -0.6427876096865396 6
    vertex 0.6083228784554651 -0.6095343471768699 6
  endloop
endfacet
facet normal 0 0 1
  outer loop
    vertex -0.3420201433256687 0.9396926207859084 6
    vertex -0.4999999999999998 0.8660254037844387 6
    vertex -0.3669091366449524 0.7341649571074121 6
  endloop
endfacet
facet normal -0 0 1
  outer loop
    vertex -0.766044443118978 -0.6427876096865393 6
    vertex -0.6427876096865395 -0.7660444431189779 6
    vertex -0.5976724774602399 -0.5976724774602398 6
  endloop
endfacet
facet normal 0 0 1
  outer loop
    vertex 0.984807753012208 0.1736481776669303 6
    vertex 0.9396926207859084 0.3420201433256687 6
    vertex 0.8171320025303751 0.2359418908288145 6
  endloop
endfacet
facet normal 0 0 1
  outer loop
    vertex -0.06183585571358167 0.3543797563311073 6
    vertex 0.09662237391893397 0.4270100627971029 6
    vertex -0.05104301438181122 0.5264173944141783 6
  endloop
endfacet
facet normal 0 0 1
  outer loop
    vertex 0.3482271306391747 -0.1219033638236867 6
    vertex 0.3318989884794828 -0.2954491059148634 6
    vertex 0.4896668970846491 -0.2239334793534308 6
  endloop
endfacet
facet normal 0 0 1
  outer loop
    vertex 0.5066851636512315 -0.04927375923267353 6
    vertex 0.3482271306391747 -0.1219033638236867 6
    vertex 0.4896668970846491 -0.2239334793534308 6
  endloop
endfacet
facet normal -0 0 1
  outer loop
    vertex -0.203965966762525 0.4552919864498207 6
    vertex -0.06183585571358167 0.3543797563311073 6
    vertex -0.05104301438181122 0.5264173944141783 6
  endloop
endfacet
facet normal 0 0 1
  outer loop
    vertex 0.6722446417551647 -0.1716523968471834 6
    vertex 0.5066851636512315 -0.04927375923267353 6
    vertex 0.4896668970846491 -0.2239334793534308 6
  endloop
endfacet
facet normal 0 0 1
  outer loop
    vertex -0.1869358603431738 0.6589715567232687 6
    vertex -0.203965966762525 0.4552919864498207 6
    vertex -0.05104301438181122 0.5264173944141783 6
  endloop
endfacet
facet normal 0 -0 1
  outer loop
    vertex 0.09662237391893397 0.4270100627971029 6
    vertex 0.09991509708781472 0.5907884458107456 6
    vertex -0.05104301438181122 0.5264173944141783 6
  endloop
endfacet
facet normal -0 0 1
  outer loop
    vertex 0.3318989884794828 -0.2954491059148634 6
    vertex 0.4622973580780588 -0.3898718278197024 6
    vertex 0.4896668970846491 -0.2239334793534308 6
  endloop
endfacet
facet normal -0 0 1
  outer loop
    vertex 0.06396584704741445 0.07991997438228071 6
    vertex 0.2060970265080493 -0.02098618523465317 6
    vertex 0.2224245801044113 0.1525533016774563 6
  endloop
endfacet
facet normal 0 0 1
  outer loop
    vertex 0.08029437494046227 0.253466328919072 6
    vertex 0.06396584704741445 0.07991997438228071 6
    vertex 0.2224245801044113 0.1525533016774563 6
  endloop
endfacet
facet normal 0 0 1
  outer loop
    vertex 0.2387526798026586 0.3260970938606191 6
    vertex 0.08029437494046227 0.253466328919072 6
    vertex 0.2224245801044113 0.1525533016774563 6
  endloop
endfacet
facet normal 0 0 1
  outer loop
    vertex 0.2060970265080493 -0.02098618523465317 6
    vertex 0.3645546944128681 0.05163884169661721 6
    vertex 0.2224245801044113 0.1525533016774563 6
  endloop
endfacet
facet normal 0 0 1
  outer loop
    vertex 0.2387526798026586 0.3260970938606191 6
    vertex 0.2224245801044113 0.1525533016774563 6
    vertex 0.3799687739306248 0.2246730464366701 6
  endloop
endfacet
facet normal -0 0 1
  outer loop
    vertex 0.2224245801044113 0.1525533016774563 6
    vertex 0.3645546944128681 0.05163884169661721 6
    vertex 0.3799687739306248 0.2246730464366701 6
  endloop
endfacet
facet normal 0 0 1
  outer loop
    vertex 0.3951506749113086 0.3953405877170136 6
    vertex 0.2387526798026586 0.3260970938606191 6
    vertex 0.3799687739306248 0.2246730464366701 6
  endloop
endfacet
facet normal 0 0 1
  outer loop
    vertex 0.3645546944128681 0.05163884169661721 6
    vertex 0.5195890257803351 0.1245929687906187 6
    vertex 0.3799687739306248 0.2246730464366701 6
  endloop
endfacet
facet normal 0 0 1
  outer loop
    vertex -0.1108057696112463 -0.1660662749204371 6
    vertex -0.1271190169822785 -0.3390200798126297 6
    vertex 0.03109911795329148 -0.2662296315503761 6
  endloop
endfacet
facet normal 0 0 1
  outer loop
    vertex 0.3951506749113086 0.3953405877170136 6
    vertex 0.3799687739306248 0.2246730464366701 6
    vertex 0.5322613166526116 0.2936071175302004 6
  endloop
endfacet
facet normal -0 0 1
  outer loop
    vertex 0.3799687739306248 0.2246730464366701 6
    vertex 0.5195890257803351 0.1245929687906187 6
    vertex 0.5322613166526116 0.2936071175302004 6
  endloop
endfacet
facet normal 0 0 1
  outer loop
    vertex -0.07816279553076839 0.1808409995904861 6
    vertex -0.2202921131363342 0.2817480826430382 6
    vertex -0.2366141214641557 0.1082363341730994 6
  endloop
endfacet
facet normal 0 0 1
  outer loop
    vertex -0.2529395099311318 -0.06525039345012108 6
    vertex -0.09448742488670077 0.007335388680449044 6
    vertex -0.2366141214641557 0.1082363341730994 6
  endloop
endfacet
facet normal -0 0 1
  outer loop
    vertex -0.3950587185491097 0.03562823773122915 6
    vertex -0.2529395099311318 -0.06525039345012108 6
    vertex -0.2366141214641557 0.1082363341730994 6
  endloop
endfacet
facet normal 0 -0 1
  outer loop
    vertex -0.09448742488670077 0.007335388680449044 6
    vertex -0.07816279553076839 0.1808409995904861 6
    vertex -0.2366141214641557 0.1082363341730994 6
  endloop
endfacet
facet normal 0 0 1
  outer loop
    vertex -0.2202921131363342 0.2817480826430382 6
    vertex -0.3613891046179822 0.3804134871097531 6
    vertex -0.3778941284921953 0.2088884720572392 6
  endloop
endfacet
facet normal 0 0 1
  outer loop
    vertex -0.70625511617278 0.07005784726368672 6
    vertex -0.8328202280049311 -0.07603599290028862 6
    vertex -0.6843104698602785 -0.07066468114197155 6
  endloop
endfacet
facet normal 0 -0 1
  outer loop
    vertex -0.2366141214641557 0.1082363341730994 6
    vertex -0.2202921131363342 0.2817480826430382 6
    vertex -0.3778941284921953 0.2088884720572392 6
  endloop
endfacet
facet normal 0 -0 1
  outer loop
    vertex 0.173634889877698 -0.3668832243541008 6
    vertex 0.1897705100383896 -0.194528037393205 6
    vertex 0.03109911795329148 -0.2662296315503761 6
  endloop
endfacet
facet normal 0 0 1
  outer loop
    vertex 0.04764255706417024 -0.09358336288822866 6
    vertex -0.1108057696112463 -0.1660662749204371 6
    vertex 0.03109911795329148 -0.2662296315503761 6
  endloop
endfacet
facet normal 0 0 1
  outer loop
    vertex -0.3950587185491097 0.03562823773122915 6
    vertex -0.2366141214641557 0.1082363341730994 6
    vertex -0.3778941284921953 0.2088884720572392 6
  endloop
endfacet
facet normal -0 0 1
  outer loop
    vertex -0.5331614068557566 0.1372869248339609 6
    vertex -0.3950587185491097 0.03562823773122915 6
    vertex -0.3778941284921953 0.2088884720572392 6
  endloop
endfacet
facet normal 0 0 1
  outer loop
    vertex 0.1897705100383896 -0.194528037393205 6
    vertex 0.04764255706417024 -0.09358336288822866 6
    vertex 0.03109911795329148 -0.2662296315503761 6
  endloop
endfacet
facet normal 0 -0 1
  outer loop
    vertex -0.3778941284921953 0.2088884720572392 6
    vertex -0.3613891046179822 0.3804134871097531 6
    vertex -0.5149483730694266 0.3072179737940434 6
  endloop
endfacet
facet normal 0 0 1
  outer loop
    vertex -0.5331614068557566 0.1372869248339609 6
    vertex -0.3778941284921953 0.2088884720572392 6
    vertex -0.5149483730694266 0.3072179737940434 6
  endloop
endfacet
facet normal 0 0 1
  outer loop
    vertex 0.6609268976127814 0.1988357421698021 6
    vertex 0.8171320025303751 0.2359418908288145 6
    vertex 0.6808025238325544 0.3454426878807482 6
  endloop
endfacet
facet normal 0 0 1
  outer loop
    vertex 0.173634889877698 -0.3668832243541008 6
    vertex 0.01347153733301588 -0.4372968099336555 6
    vertex 0.1568597153034398 -0.5347527619572598 6
  endloop
endfacet
facet normal 0 0 1
  outer loop
    vertex -0.4413450583292582 -0.4883479971850203 6
    vertex -0.2858604504784846 -0.4119586813191248 6
    vertex -0.4259633521825095 -0.3076711834976996 6
  endloop
endfacet
facet normal 0 0 1
  outer loop
    vertex -0.4113081725829723 -0.1377568850329596 6
    vertex -0.5647212030367961 -0.187933281760879 6
    vertex -0.4259633521825095 -0.3076711834976996 6
  endloop
endfacet
facet normal 0 -0 1
  outer loop
    vertex -0.2858604504784846 -0.4119586813191248 6
    vertex -0.2692259123005404 -0.2385407860188292 6
    vertex -0.4259633521825095 -0.3076711834976996 6
  endloop
endfacet
facet normal 0 0 1
  outer loop
    vertex -0.2692259123005404 -0.2385407860188292 6
    vertex -0.4113081725829723 -0.1377568850329596 6
    vertex -0.4259633521825095 -0.3076711834976996 6
  endloop
endfacet
facet normal 0 0 1
  outer loop
    vertex 0.5937516180102189 0.601449174232821 6
    vertex 0.4137819358445353 0.5567077535690246 6
    vertex 0.5424946276347233 0.4528041427578208 6
  endloop
endfacet
facet normal -0 0 1
  outer loop
    vertex -0.1415292420341327 -0.5125603531864651 6
    vertex 0.006827882933136084 -0.6051286917222446 6
    vertex 0.01347153733301588 -0.4372968099336555 6
  endloop
endfacet
facet normal 0 0 1
  outer loop
    vertex 0.173634889877698 -0.3668832243541008 6
    vertex 0.03109911795329148 -0.2662296315503761 6
    vertex 0.01347153733301588 -0.4372968099336555 6
  endloop
endfacet
facet normal 0 0 1
  outer loop
    vertex -0.1271190169822785 -0.3390200798126297 6
    vertex -0.1415292420341327 -0.5125603531864651 6
    vertex 0.01347153733301588 -0.4372968099336555 6
  endloop
endfacet
facet normal 0 0 1
  outer loop
    vertex 0.01347153733301588 -0.4372968099336555 6
    vertex 0.006827882933136084 -0.6051286917222446 6
    vertex 0.1568597153034398 -0.5347527619572598 6
  endloop
endfacet
facet normal 0 0 1
  outer loop
    vertex -0.4259633521825095 -0.3076711834976996 6
    vertex -0.5647212030367961 -0.187933281760879 6
    vertex -0.583319316367006 -0.3814894696693846 6
  endloop
endfacet
facet normal 0 0 1
  outer loop
    vertex -0.583319316367006 -0.3814894696693846 6
    vertex -0.7832773224829964 -0.3585507650528907 6
    vertex -0.7192677926427318 -0.4961000643738108 6
  endloop
endfacet
facet normal 0 0 1
  outer loop
    vertex 0.1568597153034398 -0.5347527619572598 6
    vertex 0.006827882933136084 -0.6051286917222446 6
    vertex 0.1605017426201159 -0.7110069645573012 6
  endloop
endfacet
facet normal 0 0 1
  outer loop
    vertex 0.03109911795329148 -0.2662296315503761 6
    vertex -0.1271190169822785 -0.3390200798126297 6
    vertex 0.01347153733301588 -0.4372968099336555 6
  endloop
endfacet
facet normal 0 -0 1
  outer loop
    vertex -0.4413450583292582 -0.4883479971850203 6
    vertex -0.4259633521825095 -0.3076711834976996 6
    vertex -0.583319316367006 -0.3814894696693846 6
  endloop
endfacet
facet normal 0 0 1
  outer loop
    vertex 0.3118237298032507 -0.4647944005666507 6
    vertex 0.173634889877698 -0.3668832243541008 6
    vertex 0.1568597153034398 -0.5347527619572598 6
  endloop
endfacet
facet normal 0 -0 1
  outer loop
    vertex -0.6623795742944094 0.2414012129665281 6
    vertex -0.6350633314860543 0.4134991829311041 6
    vertex -0.7760407262459261 0.3719150132481283 6
  endloop
endfacet
facet normal -0 0 1
  outer loop
    vertex 0.09991509708781472 0.5907884458107456 6
    vertex 0.2558934233448562 0.4978693330960458 6
    vertex 0.2607972898033978 0.6605905162911103 6
  endloop
endfacet
facet normal 0 -0 1
  outer loop
    vertex -0.6350633314860543 0.4134991829311041 6
    vertex -0.6099953939111548 0.5874504880495555 6
    vertex -0.7335793846376203 0.5093389999695991 6
  endloop
endfacet
facet normal 0 0 1
  outer loop
    vertex -0.4413450583292582 -0.4883479971850203 6
    vertex -0.5976724774602399 -0.5976724774602398 6
    vertex -0.4443073245700203 -0.6364240514773958 6
  endloop
endfacet
facet normal 0 -0 1
  outer loop
    vertex -0.3613891046179822 0.3804134871097531 6
    vertex -0.3460967350737 0.5562046730679968 6
    vertex -0.4930885553031571 0.4724375045029384 6
  endloop
endfacet
facet normal 0 0 1
  outer loop
    vertex 0.4622973580780588 -0.3898718278197024 6
    vertex 0.3118237298032507 -0.4647944005666507 6
    vertex 0.442641912411338 -0.5715415420895242 6
  endloop
endfacet
facet normal 0 0 1
  outer loop
    vertex -0.70625511617278 0.07005784726368672 6
    vertex -0.5331614068557566 0.1372869248339609 6
    vertex -0.6623795742944094 0.2414012129665281 6
  endloop
endfacet
facet normal 0 0 1
  outer loop
    vertex 0.6722446417551647 -0.1716523968471834 6
    vertex 0.4896668970846491 -0.2239334793534308 6
    vertex 0.6139189019450221 -0.3369579484236528 6
  endloop
endfacet
facet normal -0 0 1
  outer loop
    vertex 0.5195890257803351 0.1245929687906187 6
    vertex 0.6651435525179469 0.02335774679146845 6
    vertex 0.6609268976127814 0.1988357421698021 6
  endloop
endfacet
facet normal 0 0 1
  outer loop
    vertex 0.4137819358445353 0.5567077535690246 6
    vertex 0.3951506749113086 0.3953405877170136 6
    vertex 0.5424946276347233 0.4528041427578208 6
  endloop
endfacet
facet normal 0 0 1
  outer loop
    vertex -0.5149483730694266 0.3072179737940434 6
    vertex -0.6350633314860543 0.4134991829311041 6
    vertex -0.6623795742944094 0.2414012129665281 6
  endloop
endfacet
facet normal 0 -0 1
  outer loop
    vertex -0.5149483730694266 0.3072179737940434 6
    vertex -0.4930885553031571 0.4724375045029384 6
    vertex -0.6350633314860543 0.4134991829311041 6
  endloop
endfacet
facet normal 0 -0 1
  outer loop
    vertex -0.3572123903134611 -0.7660444431189781 6
    vertex -0.3047159973039467 -0.5865747698844586 6
    vertex -0.4443073245700203 -0.6364240514773958 6
  endloop
endfacet
facet normal -0 0 1
  outer loop
    vertex 0.5424946276347233 0.4528041427578208 6
    vertex 0.6808025238325544 0.3454426878807482 6
    vertex 0.7115735913300458 0.4875010799538118 6
  endloop
endfacet
facet normal 0 0 1
  outer loop
    vertex 0.2558934233448562 0.4978693330960458 6
    vertex 0.4137819358445353 0.5567077535690246 6
    vertex 0.2607972898033978 0.6605905162911103 6
  endloop
endfacet
facet normal 0 0 1
  outer loop
    vertex 0.5322613166526116 0.2936071175302004 6
    vertex 0.6808025238325544 0.3454426878807482 6
    vertex 0.5424946276347233 0.4528041427578208 6
  endloop
endfacet
facet normal 0 0 1
  outer loop
    vertex -0.05104301438181122 0.5264173944141783 6
    vertex 0.09991509708781472 0.5907884458107456 6
    vertex -0.03339096980344454 0.6710831765594318 6
  endloop
endfacet
facet normal 0 0 1
  outer loop
    vertex 0.1568597153034398 -0.5347527619572598 6
    vertex 0.1605017426201159 -0.7110069645573012 6
    vertex 0.2878942425948917 -0.6159090506635886 6
  endloop
endfacet
facet normal -0 0 1
  outer loop
    vertex 0.6808025238325544 0.3454426878807482 6
    vertex 0.8171320025303751 0.2359418908288145 6
    vertex 0.8079817150660067 0.3822787903312753 6
  endloop
endfacet
facet normal 0 -0 1
  outer loop
    vertex -0.5647212030367961 -0.187933281760879 6
    vertex -0.5489038845044331 -0.03049951756663503 6
    vertex -0.6843104698602785 -0.07066468114197155 6
  endloop
endfacet
facet normal 0 0 1
  outer loop
    vertex -0.8164357873534698 0.2187633098932302 6
    vertex -0.6623795742944094 0.2414012129665281 6
    vertex -0.7760407262459261 0.3719150132481283 6
  endloop
endfacet
facet normal 0 0 1
  outer loop
    vertex -0.5149483730694266 0.3072179737940434 6
    vertex -0.3613891046179822 0.3804134871097531 6
    vertex -0.4930885553031571 0.4724375045029384 6
  endloop
endfacet
facet normal -0 0 1
  outer loop
    vertex 0.5322613166526116 0.2936071175302004 6
    vertex 0.6609268976127814 0.1988357421698021 6
    vertex 0.6808025238325544 0.3454426878807482 6
  endloop
endfacet
facet normal 0 0 1
  outer loop
    vertex 0.4622973580780588 -0.3898718278197024 6
    vertex 0.442641912411338 -0.5715415420895242 6
    vertex 0.5682510108521882 -0.48158113310195 6
  endloop
endfacet
facet normal -0 0 1
  outer loop
    vertex -0.2198100153138729 -0.8472566137217035 6
    vertex -0.07652644805514296 -0.8546762829760999 6
    vertex -0.1496429172081606 -0.6910619687153224 6
  endloop
endfacet
facet normal 0 -0 1
  outer loop
    vertex -0.5331614068557566 0.1372869248339609 6
    vertex -0.5149483730694266 0.3072179737940434 6
    vertex -0.6623795742944094 0.2414012129665281 6
  endloop
endfacet
facet normal 0 0 1
  outer loop
    vertex 0.4896668970846491 -0.2239334793534308 6
    vertex 0.4622973580780588 -0.3898718278197024 6
    vertex 0.6139189019450221 -0.3369579484236528 6
  endloop
endfacet
facet normal 0 0 1
  outer loop
    vertex 0.09991509708781472 0.5907884458107456 6
    vertex 0.07483752384820333 0.7521464220744625 6
    vertex -0.03339096980344454 0.6710831765594318 6
  endloop
endfacet
facet normal 0 0 1
  outer loop
    vertex -0.3047159973039467 -0.5865747698844586 6
    vertex -0.4413450583292582 -0.4883479971850203 6
    vertex -0.4443073245700203 -0.6364240514773958 6
  endloop
endfacet
facet normal 0 0 1
  outer loop
    vertex 0.5322613166526116 0.2936071175302004 6
    vertex 0.5195890257803351 0.1245929687906187 6
    vertex 0.6609268976127814 0.1988357421698021 6
  endloop
endfacet
facet normal 0 0 1
  outer loop
    vertex -0.7332998217080278 -0.1964870950365522 6
    vertex -0.5647212030367961 -0.187933281760879 6
    vertex -0.6843104698602785 -0.07066468114197155 6
  endloop
endfacet
facet normal 0 0 1
  outer loop
    vertex 0.006827882933136084 -0.6051286917222446 6
    vertex -0.1496429172081606 -0.6910619687153224 6
    vertex 0.004677087078055478 -0.7438837055933882 6
  endloop
endfacet
facet normal -0 0 1
  outer loop
    vertex 0.3951506749113086 0.3953405877170136 6
    vertex 0.5322613166526116 0.2936071175302004 6
    vertex 0.5424946276347233 0.4528041427578208 6
  endloop
endfacet
facet normal 0 0 1
  outer loop
    vertex 0.3118237298032507 -0.4647944005666507 6
    vertex 0.1568597153034398 -0.5347527619572598 6
    vertex 0.2878942425948917 -0.6159090506635886 6
  endloop
endfacet
facet normal 0 0 1
  outer loop
    vertex 0.5937516180102189 0.601449174232821 6
    vertex 0.5424946276347233 0.4528041427578208 6
    vertex 0.7115735913300458 0.4875010799538118 6
  endloop
endfacet
facet normal 0 -0 1
  outer loop
    vertex 0.3420201433256682 -0.9396926207859085 6
    vertex 0.3550445030517005 -0.7623608830725722 6
    vertex 0.2213095030633571 -0.8533148337002902 6
  endloop
endfacet
facet normal 0 0 1
  outer loop
    vertex 0.17364817766693 -0.9848077530122081 6
    vertex 0.3420201433256682 -0.9396926207859085 6
    vertex 0.2213095030633571 -0.8533148337002902 6
  endloop
endfacet
facet normal 0 0 1
  outer loop
    vertex 0.07483752384820333 0.7521464220744625 6
    vertex -0.07039478587847363 0.8251333001473163 6
    vertex -0.03339096980344454 0.6710831765594318 6
  endloop
endfacet
facet normal -0 0 1
  outer loop
    vertex -0.3420201433256694 -0.9396926207859082 6
    vertex -0.1736481776669303 -0.984807753012208 6
    vertex -0.2198100153138729 -0.8472566137217035 6
  endloop
endfacet
facet normal 0 0 1
  outer loop
    vertex -0.984807753012208 0.1736481776669307 6
    vertex -1 1.224646799147353e-16 6
    vertex -0.8683170845064527 0.07631695597981158 6
  endloop
endfacet
facet normal -0 0 1
  outer loop
    vertex -0.8660254037844388 -0.4999999999999997 6
    vertex -0.766044443118978 -0.6427876096865393 6
    vertex -0.7192677926427318 -0.4961000643738108 6
  endloop
endfacet
facet normal 0 -0 1
  outer loop
    vertex 0.9396926207859081 -0.3420201433256694 6
    vertex 0.984807753012208 -0.1736481776669304 6
    vertex 0.8371156865430369 -0.2185330864723911 6
  endloop
endfacet
facet normal -0 0 1
  outer loop
    vertex 0.3550445030517005 -0.7623608830725722 6
    vertex 0.5000000000000001 -0.8660254037844386 6
    vertex 0.5097593807210087 -0.7151013238484767 6
  endloop
endfacet
facet normal 0 0 1
  outer loop
    vertex 0.5000000000000001 -0.8660254037844386 6
    vertex 0.6427876096865393 -0.7660444431189781 6
    vertex 0.5097593807210087 -0.7151013238484767 6
  endloop
endfacet
facet normal 0 0 1
  outer loop
    vertex -0.4999999999999998 0.8660254037844387 6
    vertex -0.6427876096865394 0.766044443118978 6
    vertex -0.5045128288277025 0.7128045653119511 6
  endloop
endfacet
facet normal 0 0 1
  outer loop
    vertex -0.3572123903134611 -0.7660444431189781 6
    vertex -0.3420201433256694 -0.9396926207859082 6
    vertex -0.2198100153138729 -0.8472566137217035 6
  endloop
endfacet
facet normal 0 0 1
  outer loop
    vertex 0.984807753012208 0.1736481776669303 6
    vertex 0.8171320025303751 0.2359418908288145 6
    vertex 0.8684062271013905 0.0759757002066906 6
  endloop
endfacet
facet normal 0 0 1
  outer loop
    vertex -0.8164357873534698 0.2187633098932302 6
    vertex -0.984807753012208 0.1736481776669307 6
    vertex -0.8683170845064527 0.07631695597981158 6
  endloop
endfacet
facet normal -0 0 1
  outer loop
    vertex -1 1.224646799147353e-16 6
    vertex -0.8328202280049311 -0.07603599290028862 6
    vertex -0.8683170845064527 0.07631695597981158 6
  endloop
endfacet
facet normal 0 0 1
  outer loop
    vertex -0.766044443118978 -0.6427876096865393 6
    vertex -0.5976724774602399 -0.5976724774602398 6
    vertex -0.7192677926427318 -0.4961000643738108 6
  endloop
endfacet
facet normal 0 -0 1
  outer loop
    vertex -0.1736481776669303 -0.984807753012208 6
    vertex -0.07652644805514296 -0.8546762829760999 6
    vertex -0.2198100153138729 -0.8472566137217035 6
  endloop
endfacet
facet normal 0 0 1
  outer loop
    vertex 0.984807753012208 -0.1736481776669304 6
    vertex 0.8227889740429258 -0.048132324208711 6
    vertex 0.8371156865430369 -0.2185330864723911 6
  endloop
endfacet
facet normal 0 0 1
  outer loop
    vertex 0.8227889740429258 -0.048132324208711 6
    vertex 1 0 6
    vertex 0.8684062271013905 0.0759757002066906 6
  endloop
endfacet
facet normal 0 0 1
  outer loop
    vertex -0.1736481776669303 0.984807753012208 6
    vertex -0.3420201433256687 0.9396926207859084 6
    vertex -0.2279816207718398 0.8285540375552227 6
  endloop
endfacet
facet normal 0 0 1
  outer loop
    vertex -0.6427876096865394 0.766044443118978 6
    vertex -0.6099953939111548 0.5874504880495555 6
    vertex -0.5045128288277025 0.7128045653119511 6
  endloop
endfacet
facet normal 0 0 1
  outer loop
    vertex 0.6427876096865393 -0.7660444431189781 6
    vertex 0.6083228784554651 -0.6095343471768699 6
    vertex 0.5097593807210087 -0.7151013238484767 6
  endloop
endfacet
facet normal 0 0 1
  outer loop
    vertex -0.3420201433256687 0.9396926207859084 6
    vertex -0.3669091366449524 0.7341649571074121 6
    vertex -0.2279816207718398 0.8285540375552227 6
  endloop
endfacet
facet normal 0 0 1
  outer loop
    vertex 1 0 6
    vertex 0.984807753012208 0.1736481776669303 6
    vertex 0.8684062271013905 0.0759757002066906 6
  endloop
endfacet
facet normal 0 0 1
  outer loop
    vertex -0.07039478587847363 0.8251333001473163 6
    vertex -0.1736481776669303 0.984807753012208 6
    vertex -0.2279816207718398 0.8285540375552227 6
  endloop
endfacet
facet normal 0 0 1
  outer loop
    vertex -0.3669091366449524 0.7341649571074121 6
    vertex -0.4999999999999998 0.8660254037844387 6
    vertex -0.5045128288277025 0.7128045653119511 6
  endloop
endfacet
facet normal 0 0 1
  outer loop
    vertex -0.7832773224829964 -0.3585507650528907 6
    vertex -0.8660254037844388 -0.4999999999999997 6
    vertex -0.7192677926427318 -0.4961000643738108 6
  endloop
endfacet
facet normal 0 -0 1
  outer loop
    vertex 0.7660444431189778 -0.6427876096865396 6
    vertex 0.8660254037844384 -0.5000000000000004 6
    vertex 0.7140740033710572 -0.5000000000000004 6
  endloop
endfacet
facet normal 0 0 1
  outer loop
    vertex 0.8660254037844384 -0.5000000000000004 6
    vertex 0.7660444431189779 -0.3572123903134612 6
    vertex 0.7140740033710572 -0.5000000000000004 6
  endloop
endfacet
facet normal 0 0 1
  outer loop
    vertex 0.7660444431189779 -0.3572123903134612 6
    vertex 0.9396926207859081 -0.3420201433256694 6
    vertex 0.8371156865430369 -0.2185330864723911 6
  endloop
endfacet
facet normal -0 0 1
  outer loop
    vertex 0.6083228784554651 -0.6095343471768699 6
    vertex 0.7660444431189778 -0.6427876096865396 6
    vertex 0.7140740033710572 -0.5000000000000004 6
  endloop
endfacet
facet normal 0 0 1
  outer loop
    vertex -1.83697019872103e-16 -1 6
    vertex 0.17364817766693 -0.9848077530122081 6
    vertex 0.08222517510032891 -0.8575446199959731 6
  endloop
endfacet
facet normal 0 0 1
  outer loop
    vertex -0.1496429172081606 -0.6910619687153224 6
    vertex -0.07652644805514296 -0.8546762829760999 6
    vertex 0.004677087078055478 -0.7438837055933882 6
  endloop
endfacet
facet normal 0 0 1
  outer loop
    vertex -0.07652644805514296 -0.8546762829760999 6
    vertex -1.83697019872103e-16 -1 6
    vertex 0.08222517510032891 -0.8575446199959731 6
  endloop
endfacet
facet normal -0 0 1
  outer loop
    vertex 0.2607972898033978 0.6605905162911103 6
    vertex 0.4137819358445353 0.5567077535690246 6
    vertex 0.4191171031780941 0.730231935025382 6
  endloop
endfacet
facet normal -0 0 1
  outer loop
    vertex 0.442641912411338 -0.5715415420895242 6
    vertex 0.6083228784554651 -0.6095343471768699 6
    vertex 0.5682510108521882 -0.48158113310195 6
  endloop
endfacet
facet normal 0 0 1
  outer loop
    vertex 0.2213095030633571 -0.8533148337002902 6
    vertex 0.1605017426201159 -0.7110069645573012 6
    vertex 0.08222517510032891 -0.8575446199959731 6
  endloop
endfacet
facet normal 0 0 1
  outer loop
    vertex -0.8660254037844387 0.4999999999999999 6
    vertex -0.9396926207859083 0.3420201433256689 6
    vertex -0.7760407262459261 0.3719150132481283 6
  endloop
endfacet
facet normal 0 0 1
  outer loop
    vertex 0.8660254037844387 0.4999999999999999 6
    vertex 0.766044443118978 0.6427876096865393 6
    vertex 0.7115735913300458 0.4875010799538118 6
  endloop
endfacet
facet normal 0 0 1
  outer loop
    vertex 0.3118237298032507 -0.4647944005666507 6
    vertex 0.2878942425948917 -0.6159090506635886 6
    vertex 0.442641912411338 -0.5715415420895242 6
  endloop
endfacet
facet normal -0 0 1
  outer loop
    vertex -0.9396926207859084 -0.3420201433256687 6
    vertex -0.7832773224829964 -0.3585507650528907 6
    vertex -0.8589296976148437 -0.2303081641789672 6
  endloop
endfacet
facet normal 0 0 1
  outer loop
    vertex -0.8328202280049311 -0.07603599290028862 6
    vertex -0.9848077530122081 -0.17364817766693 6
    vertex -0.8589296976148437 -0.2303081641789672 6
  endloop
endfacet
facet normal 0 0 1
  outer loop
    vertex 0.2206153631189133 0.8193371428106936 6
    vertex 0.1736481776669304 0.984807753012208 6
    vertex 0.07922745563039124 0.8804583900170944 6
  endloop
endfacet
facet normal 0 0 1
  outer loop
    vertex 6.123233995736766e-17 1 6
    vertex -0.07039478587847363 0.8251333001473163 6
    vertex 0.07922745563039124 0.8804583900170944 6
  endloop
endfacet
facet normal 0 0 1
  outer loop
    vertex -0.6099953939111548 0.5874504880495555 6
    vertex -0.7660444431189779 0.6427876096865395 6
    vertex -0.7335793846376203 0.5093389999695991 6
  endloop
endfacet
facet normal 0 0 1
  outer loop
    vertex -0.5976724774602399 -0.5976724774602398 6
    vertex -0.6427876096865395 -0.7660444431189779 6
    vertex -0.5161465525637701 -0.7372712381252079 6
  endloop
endfacet
facet normal 0 -0 1
  outer loop
    vertex -0.5000000000000004 -0.8660254037844384 6
    vertex -0.3572123903134611 -0.7660444431189781 6
    vertex -0.5161465525637701 -0.7372712381252079 6
  endloop
endfacet
facet normal 0 -0 1
  outer loop
    vertex 0.8171320025303751 0.2359418908288145 6
    vertex 0.9396926207859084 0.3420201433256687 6
    vertex 0.8079817150660067 0.3822787903312753 6
  endloop
endfacet
facet normal -0 0 1
  outer loop
    vertex -0.9396926207859083 0.3420201433256689 6
    vertex -0.8164357873534698 0.2187633098932302 6
    vertex -0.7760407262459261 0.3719150132481283 6
  endloop
endfacet
facet normal 0 0 1
  outer loop
    vertex 0.766044443118978 0.6427876096865393 6
    vertex 0.5937516180102189 0.601449174232821 6
    vertex 0.7115735913300458 0.4875010799538118 6
  endloop
endfacet
facet normal -0 0 1
  outer loop
    vertex -0.1869358603431738 0.6589715567232687 6
    vertex -0.05104301438181122 0.5264173944141783 6
    vertex -0.03339096980344454 0.6710831765594318 6
  endloop
endfacet
facet normal 0 0 1
  outer loop
    vertex 0.6083228784554651 -0.6095343471768699 6
    vertex 0.442641912411338 -0.5715415420895242 6
    vertex 0.5097593807210087 -0.7151013238484767 6
  endloop
endfacet
facet normal 0 0 1
  outer loop
    vertex -0.7332998217080278 -0.1964870950365522 6
    vertex -0.8328202280049311 -0.07603599290028862 6
    vertex -0.8589296976148437 -0.2303081641789672 6
  endloop
endfacet
facet normal 0 -0 1
  outer loop
    vertex -0.7832773224829964 -0.3585507650528907 6
    vertex -0.7332998217080278 -0.1964870950365522 6
    vertex -0.8589296976148437 -0.2303081641789672 6
  endloop
endfacet
facet normal -0 0 1
  outer loop
    vertex -0.07039478587847363 0.8251333001473163 6
    vertex 0.07483752384820333 0.7521464220744625 6
    vertex 0.07922745563039124 0.8804583900170944 6
  endloop
endfacet
facet normal 0 0 1
  outer loop
    vertex 0.07483752384820333 0.7521464220744625 6
    vertex 0.2206153631189133 0.8193371428106936 6
    vertex 0.07922745563039124 0.8804583900170944 6
  endloop
endfacet
facet normal -0 0 1
  outer loop
    vertex -0.8328202280049311 -0.07603599290028862 6
    vertex -0.7332998217080278 -0.1964870950365522 6
    vertex -0.6843104698602785 -0.07066468114197155 6
  endloop
endfacet
facet normal 0 0 1
  outer loop
    vertex -0.5489038845044331 -0.03049951756663503 6
    vertex -0.70625511617278 0.07005784726368672 6
    vertex -0.6843104698602785 -0.07066468114197155 6
  endloop
endfacet
facet normal 0 -0 1
  outer loop
    vertex 0.08222517510032891 -0.8575446199959731 6
    vertex 0.1605017426201159 -0.7110069645573012 6
    vertex 0.004677087078055478 -0.7438837055933882 6
  endloop
endfacet
facet normal 0 0 1
  outer loop
    vertex -0.9848077530122081 -0.17364817766693 6
    vertex -0.9396926207859084 -0.3420201433256687 6
    vertex -0.8589296976148437 -0.2303081641789672 6
  endloop
endfacet
facet normal 0 0 1
  outer loop
    vertex 0.1736481776669304 0.984807753012208 6
    vertex 6.123233995736766e-17 1 6
    vertex 0.07922745563039124 0.8804583900170944 6
  endloop
endfacet
facet normal 0 -0 1
  outer loop
    vertex 0.17364817766693 -0.9848077530122081 6
    vertex 0.2213095030633571 -0.8533148337002902 6
    vertex 0.08222517510032891 -0.8575446199959731 6
  endloop
endfacet
facet normal 0 0 1
  outer loop
    vertex 0.1605017426201159 -0.7110069645573012 6
    vertex 0.006827882933136084 -0.6051286917222446 6
    vertex 0.004677087078055478 -0.7438837055933882 6
  endloop
endfacet
facet normal 0 0 1
  outer loop
    vertex 0.6609268976127814 0.1988357421698021 6
    vertex 0.6651435525179469 0.02335774679146845 6
    vertex 0.7563609715222811 0.10736398223216 6
  endloop
endfacet
facet normal 0 0 1
  outer loop
    vertex -0.7660444431189779 0.6427876096865395 6
    vertex -0.8660254037844387 0.4999999999999999 6
    vertex -0.7335793846376203 0.5093389999695991 6
  endloop
endfacet
facet normal 0 0 1
  outer loop
    vertex 0.8660254037844387 0.4999999999999999 6
    vertex 0.7115735913300458 0.4875010799538118 6
    vertex 0.8079817150660067 0.3822787903312753 6
  endloop
endfacet
facet normal 0 0 1
  outer loop
    vertex -0.4930885553031571 0.4724375045029384 6
    vertex -0.3460967350737 0.5562046730679968 6
    vertex -0.4655261197942876 0.602664153990477 6
  endloop
endfacet
facet normal -0 0 1
  outer loop
    vertex -0.8660254037844387 0.4999999999999999 6
    vertex -0.7760407262459261 0.3719150132481283 6
    vertex -0.7335793846376203 0.5093389999695991 6
  endloop
endfacet
facet normal 0 0 1
  outer loop
    vertex 0.9396926207859084 0.3420201433256687 6
    vertex 0.8660254037844387 0.4999999999999999 6
    vertex 0.8079817150660067 0.3822787903312753 6
  endloop
endfacet
facet normal -0 0 1
  outer loop
    vertex -0.6427876096865395 -0.7660444431189779 6
    vertex -0.5000000000000004 -0.8660254037844384 6
    vertex -0.5161465525637701 -0.7372712381252079 6
  endloop
endfacet
facet normal 0 0 1
  outer loop
    vertex -0.3572123903134611 -0.7660444431189781 6
    vertex -0.4443073245700203 -0.6364240514773958 6
    vertex -0.5161465525637701 -0.7372712381252079 6
  endloop
endfacet
facet normal 0 0 1
  outer loop
    vertex -0.4443073245700203 -0.6364240514773958 6
    vertex -0.5976724774602399 -0.5976724774602398 6
    vertex -0.5161465525637701 -0.7372712381252079 6
  endloop
endfacet
facet normal 0 0 1
  outer loop
    vertex 0.7115735913300458 0.4875010799538118 6
    vertex 0.6808025238325544 0.3454426878807482 6
    vertex 0.8079817150660067 0.3822787903312753 6
  endloop
endfacet
facet normal 0 0 1
  outer loop
    vertex -0.7760407262459261 0.3719150132481283 6
    vertex -0.6350633314860543 0.4134991829311041 6
    vertex -0.7335793846376203 0.5093389999695991 6
  endloop
endfacet
facet normal 0 0 1
  outer loop
    vertex 0.6139189019450221 -0.3369579484236528 6
    vertex 0.4622973580780588 -0.3898718278197024 6
    vertex 0.5682510108521882 -0.48158113310195 6
  endloop
endfacet
facet normal -0 0 1
  outer loop
    vertex -0.6099953939111548 0.5874504880495555 6
    vertex -0.4930885553031571 0.4724375045029384 6
    vertex -0.4655261197942876 0.602664153990477 6
  endloop
endfacet
facet normal -0 0 1
  outer loop
    vertex -0.07652644805514296 -0.8546762829760999 6
    vertex 0.08222517510032891 -0.8575446199959731 6
    vertex 0.004677087078055478 -0.7438837055933882 6
  endloop
endfacet
facet normal 0 -0 1
  outer loop
    vertex 0.6083228784554651 -0.6095343471768699 6
    vertex 0.7140740033710572 -0.5000000000000004 6
    vertex 0.5682510108521882 -0.48158113310195 6
  endloop
endfacet
facet normal 0 0 1
  outer loop
    vertex 0.8171320025303751 0.2359418908288145 6
    vertex 0.6609268976127814 0.1988357421698021 6
    vertex 0.7563609715222811 0.10736398223216 6
  endloop
endfacet
facet normal 0 0 1
  outer loop
    vertex -0.5045128288277025 0.7128045653119511 6
    vertex -0.6099953939111548 0.5874504880495555 6
    vertex -0.4655261197942876 0.602664153990477 6
  endloop
endfacet
facet normal 0 0 1
  outer loop
    vertex 0.8684062271013905 0.0759757002066906 6
    vertex 0.8171320025303751 0.2359418908288145 6
    vertex 0.7563609715222811 0.10736398223216 6
  endloop
endfacet
endsolid Created by Gmsh
