solid Created by Gmsh
facet normal -0 0 1
  outer loop
    vertex 0.04625598921207626 0.08077147976503306 0
    vertex 0.06302986107211417 0.06508367525506306 0
    vertex 0.06543963525774277 0.09152211001160977 0
  endloop
endfacet
facet normal 0 -0 1
  outer loop
    vertex 0.1030329775995025 -0.08645493350283957 0
    vertex 0.116480416809007 -0.06725000000000006 0
    vertex 0.08952138505734375 -0.05955935731135857 0
  endloop
endfacet
facet normal 0 0 1
  outer loop
    vertex 0.06302986107211417 0.06508367525506306 0
    vertex 0.0818165917146243 0.0800668224437476 0
    vertex 0.06543963525774277 0.09152211001160977 0
  endloop
endfacet
facet normal 0 0 1
  outer loop
    vertex -0.132456642780142 -0.02335567989620209 0
    vertex -0.1263886574957047 -0.04600170927730244 0
    vertex -0.1086449804256333 -0.0294473618344178 0
  endloop
endfacet
facet normal 0 0 1
  outer loop
    vertex -0.07007428451379269 0.05757608403066364 0
    vertex -0.07999757325431917 0.08078062827549953 0
    vertex -0.09338471211808615 0.06463972564667531 0
  endloop
endfacet
facet normal -0 0 1
  outer loop
    vertex 0.07208471639928951 -0.03855771226456346 0
    vertex 0.08952138505734375 -0.05955935731135857 0
    vertex 0.09299389096020337 -0.03177249659176233 0
  endloop
endfacet
facet normal 0 0 1
  outer loop
    vertex 0.08952138505734375 -0.05955935731135857 0
    vertex 0.1072054244642753 -0.0469740421524493 0
    vertex 0.09299389096020337 -0.03177249659176233 0
  endloop
endfacet
facet normal 0 0 1
  outer loop
    vertex 0.01045683694492774 -0.09542339294793474 0
    vertex -0.00910351815251656 -0.1134383079574109 0
    vertex 0.01082653277385052 -0.1171257914169059 0
  endloop
endfacet
facet normal 0 0 1
  outer loop
    vertex -0.07007428451379269 0.05757608403066364 0
    vertex -0.09338471211808615 0.06463972564667531 0
    vertex -0.0866602028726858 0.04684271189935826 0
  endloop
endfacet
facet normal 0 -0 1
  outer loop
    vertex -0.00910351815251656 -0.1134383079574109 0
    vertex 0.01045683694492774 -0.09542339294793474 0
    vertex -0.01375277106109568 -0.09498878124007291 0
  endloop
endfacet
facet normal -0 0 1
  outer loop
    vertex 0.0780916217460218 -0.08186722254578227 0
    vertex 0.1030329775995025 -0.08645493350283957 0
    vertex 0.08952138505734375 -0.05955935731135857 0
  endloop
endfacet
facet normal 0 0 1
  outer loop
    vertex 0.116480416809007 -0.06725000000000006 0
    vertex 0.1072054244642753 -0.0469740421524493 0
    vertex 0.08952138505734375 -0.05955935731135857 0
  endloop
endfacet
facet normal 0 0 1
  outer loop
    vertex 0.1345 0 0
    vertex 0.132456642780142 0.02335567989620213 0
    vertex 0.1090822411429604 0.01163280878067051 0
  endloop
endfacet
facet normal 0 0 1
  outer loop
    vertex -0.1134410318288318 -0.00817875291304998 0
    vertex -0.132456642780142 -0.02335567989620209 0
    vertex -0.1086449804256333 -0.0294473618344178 0
  endloop
endfacet
facet normal -0 0 1
  outer loop
    vertex -0.1263886574957047 -0.04600170927730244 0
    vertex -0.1016678747578357 -0.04938345755915153 0
    vertex -0.1086449804256333 -0.0294473618344178 0
  endloop
endfacet
facet normal 0 0 1
  outer loop
    vertex -0.01156641525534952 0.1105963976573297 0
    vertex -0.01561267305817795 0.08633086521061641 0
    vertex 0.009593297385836157 0.09462152115281312 0
  endloop
endfacet
facet normal 0 0 1
  outer loop
    vertex -0.07987827444054611 -0.05273939752483554 0
    vertex -0.08038694821840225 -0.08038694821840225 0
    vertex -0.06283743209621974 -0.06755757941190899 0
  endloop
endfacet
facet normal 0 -0 1
  outer loop
    vertex 0.1158976845113257 -0.009968124566564337 0
    vertex 0.1345 0 0
    vertex 0.1090822411429604 0.01163280878067051 0
  endloop
endfacet
facet normal 0 -0 1
  outer loop
    vertex -0.08038694821840225 -0.08038694821840225 0
    vertex -0.07987827444054611 -0.05273939752483554 0
    vertex -0.09628929836505874 -0.06724294736104576 0
  endloop
endfacet
facet normal 0 0 1
  outer loop
    vertex -0.03776255648224548 0.08188139324996591 0
    vertex -0.04824130876706226 0.1011010781717448 0
    vertex -0.05833483348430019 0.07878188791099724 0
  endloop
endfacet
facet normal 0 0 1
  outer loop
    vertex -0.06283743209621974 -0.06755757941190899 0
    vertex -0.06580175602063162 -0.0925570415041696 0
    vertex -0.04615418062397968 -0.08380835088633598 0
  endloop
endfacet
facet normal 0 0 1
  outer loop
    vertex -0.06283743209621974 -0.06755757941190899 0
    vertex -0.08038694821840225 -0.08038694821840225 0
    vertex -0.06580175602063162 -0.0925570415041696 0
  endloop
endfacet
facet normal 0 0 1
  outer loop
    vertex -0.07999757325431917 0.08078062827549953 0
    vertex -0.07007428451379269 0.05757608403066364 0
    vertex -0.05833483348430019 0.07878188791099724 0
  endloop
endfacet
facet normal 0 0 1
  outer loop
    vertex 0.009593297385836157 0.09462152115281312 0
    vertex 0.02845354188736869 0.1107267090385129 0
    vertex 0.009967220782811495 0.1165802541257595 0
  endloop
endfacet
facet normal 0 -0 1
  outer loop
    vertex -0.05833483348430019 0.07878188791099724 0
    vertex -0.04824130876706226 0.1011010781717448 0
    vertex -0.06805572980170424 0.09603539775335022 0
  endloop
endfacet
facet normal 0 0 1
  outer loop
    vertex 0.07728691742427136 0.04555160874800575 0
    vertex 0.1003745530873909 0.04993349559089272 0
    vertex 0.08098896084646365 0.06284373761255688 0
  endloop
endfacet
facet normal 0 0 1
  outer loop
    vertex 0.1003745530873909 0.04993349559089272 0
    vertex 0.09622251572714925 0.06940561146666806 0
    vertex 0.08098896084646365 0.06284373761255688 0
  endloop
endfacet
facet normal 0 0 1
  outer loop
    vertex 0.09299389096020337 -0.03177249659176233 0
    vertex 0.1122430575759765 -0.02834891973044957 0
    vertex 0.09669777069337922 -0.009117037236028155 0
  endloop
endfacet
facet normal 0 0 1
  outer loop
    vertex 0.02845354188736869 0.1107267090385129 0
    vertex 0.009593297385836157 0.09462152115281312 0
    vertex 0.03159733463428249 0.09211632113000082 0
  endloop
endfacet
facet normal 0 -0 1
  outer loop
    vertex 0.1122430575759765 -0.02834891973044957 0
    vertex 0.1158976845113257 -0.009968124566564337 0
    vertex 0.09669777069337922 -0.009117037236028155 0
  endloop
endfacet
facet normal 0 0 1
  outer loop
    vertex 0.04783043604480243 0.1036972881973054 0
    vertex 0.04625598921207626 0.08077147976503306 0
    vertex 0.06543963525774277 0.09152211001160977 0
  endloop
endfacet
facet normal -0 0 1
  outer loop
    vertex -0.01156641525534952 0.1105963976573297 0
    vertex 0.009593297385836157 0.09462152115281312 0
    vertex 0.009967220782811495 0.1165802541257595 0
  endloop
endfacet
facet normal -0 0 1
  outer loop
    vertex -0.03034570404229749 -0.1132517092773025 0
    vertex -0.00910351815251656 -0.1134383079574109 0
    vertex -0.01375277106109568 -0.09498878124007291 0
  endloop
endfacet
facet normal 0 -0 1
  outer loop
    vertex -0.03034570404229749 -0.1132517092773025 0
    vertex -0.01375277106109568 -0.09498878124007291 0
    vertex -0.03296250900662522 -0.09515869709280414 0
  endloop
endfacet
facet normal 0 0 1
  outer loop
    vertex 0.07208471639928951 -0.03855771226456346 0
    vertex 0.06455466572857628 -0.06210523899793866 0
    vertex 0.08952138505734375 -0.05955935731135857 0
  endloop
endfacet
facet normal 0 -0 1
  outer loop
    vertex -0.01561267305817795 0.08633086521061641 0
    vertex -0.01156641525534952 0.1105963976573297 0
    vertex -0.02914204515826856 0.09761070183557086 0
  endloop
endfacet
facet normal 0 0 1
  outer loop
    vertex 0.1003745530873909 0.04993349559089272 0
    vertex 0.07728691742427136 0.04555160874800575 0
    vertex 0.09285180137921906 0.0281769310650112 0
  endloop
endfacet
facet normal 0 0 1
  outer loop
    vertex 0.0780916217460218 -0.08186722254578227 0
    vertex 0.06455466572857628 -0.06210523899793866 0
    vertex 0.05676557397823767 -0.08309737979814447 0
  endloop
endfacet
facet normal -0 0 1
  outer loop
    vertex 0.03578438733336928 -0.0875757761511143 0
    vertex 0.05085074164020729 -0.1035490358750232 0
    vertex 0.05676557397823767 -0.08309737979814447 0
  endloop
endfacet
facet normal -0 0 1
  outer loop
    vertex 0.01969480221348906 -0.07105896456729131 0
    vertex 0.03578438733336928 -0.0875757761511143 0
    vertex 0.04275046483392454 -0.06557094627079295 0
  endloop
endfacet
facet normal -0 0 1
  outer loop
    vertex -0.05682856500193328 -0.0463467007440473 0
    vertex -0.04127265784575148 -0.06252604717729089 0
    vertex -0.03433851600493329 -0.04116092159810558 0
  endloop
endfacet
facet normal -0 0 1
  outer loop
    vertex -0.05032805961730583 -0.02415354069201826 0
    vertex -0.03433851600493329 -0.04116092159810558 0
    vertex -0.02743823550003 -0.01897955291613769 0
  endloop
endfacet
facet normal 0 0 1
  outer loop
    vertex -0.04127265784575148 -0.06252604717729089 0
    vertex -0.01856850624407409 -0.05865332668541019 0
    vertex -0.03433851600493329 -0.04116092159810558 0
  endloop
endfacet
facet normal 0 0 1
  outer loop
    vertex -0.05032805961730583 -0.02415354069201826 0
    vertex -0.05682856500193328 -0.0463467007440473 0
    vertex -0.03433851600493329 -0.04116092159810558 0
  endloop
endfacet
facet normal 0 0 1
  outer loop
    vertex -0.03433851600493329 -0.04116092159810558 0
    vertex -0.01158036183034461 -0.03626980234562813 0
    vertex -0.02743823550003 -0.01897955291613769 0
  endloop
endfacet
facet normal 0 -0 1
  outer loop
    vertex -0.01856850624407409 -0.05865332668541019 0
    vertex -0.01158036183034461 -0.03626980234562813 0
    vertex -0.03433851600493329 -0.04116092159810558 0
  endloop
endfacet
facet normal 0 0 1
  outer loop
    vertex 0.07208471639928951 -0.03855771226456346 0
    vertex 0.04985431466859047 -0.04331129015040128 0
    vertex 0.06455466572857628 -0.06210523899793866 0
  endloop
endfacet
facet normal 0 0 1
  outer loop
    vertex 0.004235465396385543 -0.05355472888758629 0
    vertex -0.01158036183034461 -0.03626980234562813 0
    vertex -0.01856850624407409 -0.05865332668541019 0
  endloop
endfacet
facet normal 0 -0 1
  outer loop
    vertex 0.04985431466859047 -0.04331129015040128 0
    vertex 0.05705890400215002 -0.02085035331061193 0
    vertex 0.034183607317014 -0.025986527596393 0
  endloop
endfacet
facet normal 0 0 1
  outer loop
    vertex 0.07208471639928951 -0.03855771226456346 0
    vertex 0.05705890400215002 -0.02085035331061193 0
    vertex 0.04985431466859047 -0.04331129015040128 0
  endloop
endfacet
facet normal 0 0 1
  outer loop
    vertex 0.02709481539633424 -0.04842709899200235 0
    vertex 0.04985431466859047 -0.04331129015040128 0
    vertex 0.034183607317014 -0.025986527596393 0
  endloop
endfacet
facet normal 0 0 1
  outer loop
    vertex 0.04117304458931968 -0.003607491988230412 0
    vertex 0.01829739998525661 -0.008743967355609502 0
    vertex 0.034183607317014 -0.025986527596393 0
  endloop
endfacet
facet normal 0 0 1
  outer loop
    vertex 0.05705890400215002 -0.02085035331061193 0
    vertex 0.04117304458931968 -0.003607491988230412 0
    vertex 0.034183607317014 -0.025986527596393 0
  endloop
endfacet
facet normal 0 0 1
  outer loop
    vertex 0.01829739998525661 -0.008743967355609502 0
    vertex 0.01130819603786632 -0.0311223466353269 0
    vertex 0.034183607317014 -0.025986527596393 0
  endloop
endfacet
facet normal 0 0 1
  outer loop
    vertex -0.0204638360359712 0.003362301684501381 0
    vertex -0.04333884092899133 -0.001773648799629251 0
    vertex -0.02743823550003 -0.01897955291613769 0
  endloop
endfacet
facet normal 0 0 1
  outer loop
    vertex -0.04333884092899133 -0.001773648799629251 0
    vertex -0.05032805961730583 -0.02415354069201826 0
    vertex -0.02743823550003 -0.01897955291613769 0
  endloop
endfacet
facet normal 0 0 1
  outer loop
    vertex -0.004579798582633776 -0.01388170574594629 0
    vertex -0.0204638360359712 0.003362301684501381 0
    vertex -0.02743823550003 -0.01897955291613769 0
  endloop
endfacet
facet normal 0 0 1
  outer loop
    vertex 0.009593297385836157 0.09462152115281312 0
    vertex 0.000507890106420466 0.07048729522029673 0
    vertex 0.0233806304507244 0.07563523077563147 0
  endloop
endfacet
facet normal 0 -0 1
  outer loop
    vertex 0.03227684642328086 0.03601391836204022 0
    vertex 0.03926642487770184 0.05839270671573268 0
    vertex 0.0163914862635843 0.05325449538842392 0
  endloop
endfacet
facet normal 0 0 1
  outer loop
    vertex 0.0233806304507244 0.07563523077563147 0
    vertex 0.000507890106420466 0.07048729522029673 0
    vertex 0.0163914862635843 0.05325449538842392 0
  endloop
endfacet
facet normal 0 0 1
  outer loop
    vertex 0.009401416500942167 0.03087760889135957 0
    vertex 0.03227684642328086 0.03601391836204022 0
    vertex 0.0163914862635843 0.05325449538842392 0
  endloop
endfacet
facet normal 0 0 1
  outer loop
    vertex 0.03926642487770184 0.05839270671573268 0
    vertex 0.0233806304507244 0.07563523077563147 0
    vertex 0.0163914862635843 0.05325449538842392 0
  endloop
endfacet
facet normal 0 0 1
  outer loop
    vertex -0.006484290777563892 0.04812021236548283 0
    vertex -0.01347384414466209 0.02574144723809541 0
    vertex 0.009401416500942167 0.03087760889135957 0
  endloop
endfacet
facet normal -0 0 1
  outer loop
    vertex -0.006484290777563892 0.04812021236548283 0
    vertex 0.009401416500942167 0.03087760889135957 0
    vertex 0.0163914862635843 0.05325449538842392 0
  endloop
endfacet
facet normal -0 0 1
  outer loop
    vertex -0.01347384414466209 0.02574144723809541 0
    vertex 0.002411531846018673 0.00849855552237375 0
    vertex 0.009401416500942167 0.03087760889135957 0
  endloop
endfacet
facet normal 0 0 1
  outer loop
    vertex 0.000507890106420466 0.07048729522029673 0
    vertex -0.006484290777563892 0.04812021236548283 0
    vertex 0.0163914862635843 0.05325449538842392 0
  endloop
endfacet
facet normal 0 -0 1
  outer loop
    vertex 0.02528718618408071 0.01363505443210213 0
    vertex 0.03227684642328086 0.03601391836204022 0
    vertex 0.009401416500942167 0.03087760889135957 0
  endloop
endfacet
facet normal 0 0 1
  outer loop
    vertex -0.07370429657367543 0.032358078931027 0
    vertex -0.05194074432240612 0.03775693470847633 0
    vertex -0.07007428451379269 0.05757608403066364 0
  endloop
endfacet
facet normal -0 0 1
  outer loop
    vertex -0.07370429657367543 0.032358078931027 0
    vertex -0.05922458668853856 0.01546892127462971 0
    vertex -0.05194074432240612 0.03775693470847633 0
  endloop
endfacet
facet normal 0 0 1
  outer loop
    vertex 0.07728691742427136 0.04555160874800575 0
    vertex 0.0551522230079227 0.04115018351192346 0
    vertex 0.07049079293555796 0.02368639722632275 0
  endloop
endfacet
facet normal 0 0 1
  outer loop
    vertex -0.05922458668853856 0.01546892127462971 0
    vertex -0.0363492751927082 0.02060513291243146 0
    vertex -0.05194074432240612 0.03775693470847633 0
  endloop
endfacet
facet normal 0 0 1
  outer loop
    vertex 0.0551522230079227 0.04115018351192346 0
    vertex 0.04816264189585022 0.01877138284669319 0
    vertex 0.07049079293555796 0.02368639722632275 0
  endloop
endfacet
facet normal 0 -0 1
  outer loop
    vertex -0.05194074432240612 0.03775693470847633 0
    vertex -0.04488583929719316 0.06003529511776601 0
    vertex -0.07007428451379269 0.05757608403066364 0
  endloop
endfacet
facet normal 0 0 1
  outer loop
    vertex -0.02935965944278438 0.04298395248164326 0
    vertex -0.04488583929719316 0.06003529511776601 0
    vertex -0.05194074432240612 0.03775693470847633 0
  endloop
endfacet
facet normal 0 0 1
  outer loop
    vertex 0.06404845952288139 0.001528878757665575 0
    vertex 0.08535334214206436 0.00696812330654412 0
    vertex 0.07049079293555796 0.02368639722632275 0
  endloop
endfacet
facet normal 0 0 1
  outer loop
    vertex -0.06621413395594641 -0.006909839120417878 0
    vertex -0.0814024136172003 0.01062952390002212 0
    vertex -0.08948820006662965 -0.01298761662274632 0
  endloop
endfacet
facet normal -0 0 1
  outer loop
    vertex -0.1030329775995025 -0.08645493350283953 0
    vertex -0.08645493350283956 -0.1030329775995025 0
    vertex -0.08038694821840225 -0.08038694821840225 0
  endloop
endfacet
facet normal 0 0 1
  outer loop
    vertex -0.08645493350283955 0.1030329775995025 0
    vertex -0.1030329775995025 0.08645493350283956 0
    vertex -0.07999757325431917 0.08078062827549953 0
  endloop
endfacet
facet normal -0 0 1
  outer loop
    vertex -0.02335567989620213 -0.132456642780142 0
    vertex -2.470724917279785e-17 -0.1345 0
    vertex -0.00910351815251656 -0.1134383079574109 0
  endloop
endfacet
facet normal 0 -0 1
  outer loop
    vertex 0.132456642780142 -0.02335567989620214 0
    vertex 0.1345 0 0
    vertex 0.1158976845113257 -0.009968124566564337 0
  endloop
endfacet
facet normal -0 0 1
  outer loop
    vertex -0.06725000000000006 -0.116480416809007 0
    vertex -0.04600170927730254 -0.1263886574957047 0
    vertex -0.04874028344306434 -0.1052161224551365 0
  endloop
endfacet
facet normal 0 -0 1
  outer loop
    vertex 0.08645493350283953 -0.1030329775995026 0
    vertex 0.1030329775995025 -0.08645493350283957 0
    vertex 0.0780916217460218 -0.08186722254578227 0
  endloop
endfacet
facet normal 0 -0 1
  outer loop
    vertex 0.116480416809007 -0.06725000000000006 0
    vertex 0.1263886574957047 -0.04600170927730254 0
    vertex 0.1072054244642753 -0.0469740421524493 0
  endloop
endfacet
facet normal 0 0 1
  outer loop
    vertex 0.04600170927730246 0.1263886574957047 0
    vertex 0.02335567989620214 0.132456642780142 0
    vertex 0.02845354188736869 0.1107267090385129 0
  endloop
endfacet
facet normal 0 0 1
  outer loop
    vertex 0.1263886574957047 0.04600170927730245 0
    vertex 0.116480416809007 0.06724999999999999 0
    vertex 0.1003745530873909 0.04993349559089272 0
  endloop
endfacet
facet normal 0 0 1
  outer loop
    vertex 0.1030329775995025 0.08645493350283953 0
    vertex 0.08645493350283955 0.1030329775995025 0
    vertex 0.0818165917146243 0.0800668224437476 0
  endloop
endfacet
facet normal 0 0 1
  outer loop
    vertex -0.1345 1.64714994485319e-17 0
    vertex -0.132456642780142 -0.02335567989620209 0
    vertex -0.1134410318288318 -0.00817875291304998 0
  endloop
endfacet
facet normal 0 0 1
  outer loop
    vertex -0.1263886574957047 -0.04600170927730244 0
    vertex -0.116480416809007 -0.06724999999999996 0
    vertex -0.1016678747578357 -0.04938345755915153 0
  endloop
endfacet
facet normal 0 0 1
  outer loop
    vertex -0.04600170927730245 0.1263886574957047 0
    vertex -0.06724999999999998 0.116480416809007 0
    vertex -0.04824130876706226 0.1011010781717448 0
  endloop
endfacet
facet normal 0 0 1
  outer loop
    vertex -0.116480416809007 0.06724999999999999 0
    vertex -0.1263886574957047 0.04600170927730247 0
    vertex -0.1058582020669765 0.04773773445305986 0
  endloop
endfacet
facet normal 0 0 1
  outer loop
    vertex 8.235749724265951e-18 0.1345 0
    vertex -0.02335567989620213 0.132456642780142 0
    vertex -0.01156641525534952 0.1105963976573297 0
  endloop
endfacet
facet normal 0 0 1
  outer loop
    vertex 0.02335567989620208 -0.132456642780142 0
    vertex 0.04600170927730237 -0.1263886574957047 0
    vertex 0.02942366518063937 -0.1098106133990417 0
  endloop
endfacet
facet normal 0 0 1
  outer loop
    vertex -0.05032805961730583 -0.02415354069201826 0
    vertex -0.07190203746810674 -0.02965654842266592 0
    vertex -0.05682856500193328 -0.0463467007440473 0
  endloop
endfacet
facet normal -0 0 1
  outer loop
    vertex -0.01561267305817795 0.08633086521061641 0
    vertex 0.000507890106420466 0.07048729522029673 0
    vertex 0.009593297385836157 0.09462152115281312 0
  endloop
endfacet
facet normal 0 -0 1
  outer loop
    vertex 0.03926642487770184 0.05839270671573268 0
    vertex 0.04625598921207626 0.08077147976503306 0
    vertex 0.0233806304507244 0.07563523077563147 0
  endloop
endfacet
facet normal 0 -0 1
  outer loop
    vertex -0.07190203746810674 -0.02965654842266592 0
    vertex -0.06621413395594641 -0.006909839120417878 0
    vertex -0.08948820006662965 -0.01298761662274632 0
  endloop
endfacet
facet normal 0 0 1
  outer loop
    vertex -0.0814024136172003 0.01062952390002212 0
    vertex -0.05922458668853856 0.01546892127462971 0
    vertex -0.07370429657367543 0.032358078931027 0
  endloop
endfacet
facet normal 0 0 1
  outer loop
    vertex -0.05032805961730583 -0.02415354069201826 0
    vertex -0.06621413395594641 -0.006909839120417878 0
    vertex -0.07190203746810674 -0.02965654842266592 0
  endloop
endfacet
facet normal 0 0 1
  outer loop
    vertex -0.02235435251278521 0.06529261759171716 0
    vertex 0.000507890106420466 0.07048729522029673 0
    vertex -0.01561267305817795 0.08633086521061641 0
  endloop
endfacet
facet normal 0 0 1
  outer loop
    vertex 0.06302986107211417 0.06508367525506306 0
    vertex 0.0551522230079227 0.04115018351192346 0
    vertex 0.07728691742427136 0.04555160874800575 0
  endloop
endfacet
facet normal 0 0 1
  outer loop
    vertex 0.03926642487770184 0.05839270671573268 0
    vertex 0.06302986107211417 0.06508367525506306 0
    vertex 0.04625598921207626 0.08077147976503306 0
  endloop
endfacet
facet normal 0 -0 1
  outer loop
    vertex -0.06621413395594641 -0.006909839120417878 0
    vertex -0.05922458668853856 0.01546892127462971 0
    vertex -0.0814024136172003 0.01062952390002212 0
  endloop
endfacet
facet normal 0 0 1
  outer loop
    vertex -0.04333884092899133 -0.001773648799629251 0
    vertex -0.06621413395594641 -0.006909839120417878 0
    vertex -0.05032805961730583 -0.02415354069201826 0
  endloop
endfacet
facet normal 0 -0 1
  outer loop
    vertex -0.02935965944278438 0.04298395248164326 0
    vertex -0.02235435251278521 0.06529261759171716 0
    vertex -0.04488583929719316 0.06003529511776601 0
  endloop
endfacet
facet normal 0 0 1
  outer loop
    vertex 0.07952036383087138 -0.01551701726192338 0
    vertex 0.05705890400215002 -0.02085035331061193 0
    vertex 0.07208471639928951 -0.03855771226456346 0
  endloop
endfacet
facet normal -0 0 1
  outer loop
    vertex 0.03926642487770184 0.05839270671573268 0
    vertex 0.0551522230079227 0.04115018351192346 0
    vertex 0.06302986107211417 0.06508367525506306 0
  endloop
endfacet
facet normal -0 0 1
  outer loop
    vertex -0.02235435251278521 0.06529261759171716 0
    vertex -0.006484290777563892 0.04812021236548283 0
    vertex 0.000507890106420466 0.07048729522029673 0
  endloop
endfacet
facet normal -0 0 1
  outer loop
    vertex 0.06404845952288139 0.001528878757665575 0
    vertex 0.07952036383087138 -0.01551701726192338 0
    vertex 0.08535334214206436 0.00696812330654412 0
  endloop
endfacet
facet normal 0 0 1
  outer loop
    vertex -0.04333884092899133 -0.001773648799629251 0
    vertex -0.05922458668853856 0.01546892127462971 0
    vertex -0.06621413395594641 -0.006909839120417878 0
  endloop
endfacet
facet normal 0 0 1
  outer loop
    vertex 0.06404845952288139 0.001528878757665575 0
    vertex 0.05705890400215002 -0.02085035331061193 0
    vertex 0.07952036383087138 -0.01551701726192338 0
  endloop
endfacet
facet normal 0 0 1
  outer loop
    vertex -0.02935965944278438 0.04298395248164326 0
    vertex -0.006484290777563892 0.04812021236548283 0
    vertex -0.02235435251278521 0.06529261759171716 0
  endloop
endfacet
facet normal 0 0 1
  outer loop
    vertex 0.03227684642328086 0.03601391836204022 0
    vertex 0.0551522230079227 0.04115018351192346 0
    vertex 0.03926642487770184 0.05839270671573268 0
  endloop
endfacet
facet normal 0 -0 1
  outer loop
    vertex -0.04333884092899133 -0.001773648799629251 0
    vertex -0.0363492751927082 0.02060513291243146 0
    vertex -0.05922458668853856 0.01546892127462971 0
  endloop
endfacet
facet normal 0 -0 1
  outer loop
    vertex -0.0363492751927082 0.02060513291243146 0
    vertex -0.02935965944278438 0.04298395248164326 0
    vertex -0.05194074432240612 0.03775693470847633 0
  endloop
endfacet
facet normal -0 0 1
  outer loop
    vertex 0.04816264189585022 0.01877138284669319 0
    vertex 0.06404845952288139 0.001528878757665575 0
    vertex 0.07049079293555796 0.02368639722632275 0
  endloop
endfacet
facet normal -0 0 1
  outer loop
    vertex -0.02935965944278438 0.04298395248164326 0
    vertex -0.01347384414466209 0.02574144723809541 0
    vertex -0.006484290777563892 0.04812021236548283 0
  endloop
endfacet
facet normal 0 0 1
  outer loop
    vertex 0.06404845952288139 0.001528878757665575 0
    vertex 0.04117304458931968 -0.003607491988230412 0
    vertex 0.05705890400215002 -0.02085035331061193 0
  endloop
endfacet
facet normal -0 0 1
  outer loop
    vertex 0.03227684642328086 0.03601391836204022 0
    vertex 0.04816264189585022 0.01877138284669319 0
    vertex 0.0551522230079227 0.04115018351192346 0
  endloop
endfacet
facet normal 0 0 1
  outer loop
    vertex -0.0204638360359712 0.003362301684501381 0
    vertex -0.0363492751927082 0.02060513291243146 0
    vertex -0.04333884092899133 -0.001773648799629251 0
  endloop
endfacet
facet normal 0 0 1
  outer loop
    vertex 0.02528718618408071 0.01363505443210213 0
    vertex 0.04816264189585022 0.01877138284669319 0
    vertex 0.03227684642328086 0.03601391836204022 0
  endloop
endfacet
facet normal 0 0 1
  outer loop
    vertex 0.04816264189585022 0.01877138284669319 0
    vertex 0.04117304458931968 -0.003607491988230412 0
    vertex 0.06404845952288139 0.001528878757665575 0
  endloop
endfacet
facet normal 0 0 1
  outer loop
    vertex -0.0363492751927082 0.02060513291243146 0
    vertex -0.01347384414466209 0.02574144723809541 0
    vertex -0.02935965944278438 0.04298395248164326 0
  endloop
endfacet
facet normal 0 -0 1
  outer loop
    vertex -0.0204638360359712 0.003362301684501381 0
    vertex -0.01347384414466209 0.02574144723809541 0
    vertex -0.0363492751927082 0.02060513291243146 0
  endloop
endfacet
facet normal -0 0 1
  outer loop
    vertex 0.02528718618408071 0.01363505443210213 0
    vertex 0.04117304458931968 -0.003607491988230412 0
    vertex 0.04816264189585022 0.01877138284669319 0
  endloop
endfacet
facet normal 0 0 1
  outer loop
    vertex 0.02528718618408071 0.01363505443210213 0
    vertex 0.01829739998525661 -0.008743967355609502 0
    vertex 0.04117304458931968 -0.003607491988230412 0
  endloop
endfacet
facet normal 0 0 1
  outer loop
    vertex -0.0204638360359712 0.003362301684501381 0
    vertex 0.002411531846018673 0.00849855552237375 0
    vertex -0.01347384414466209 0.02574144723809541 0
  endloop
endfacet
facet normal 0 0 1
  outer loop
    vertex 0.002411531846018673 0.00849855552237375 0
    vertex 0.02528718618408071 0.01363505443210213 0
    vertex 0.009401416500942167 0.03087760889135957 0
  endloop
endfacet
facet normal 0 -0 1
  outer loop
    vertex -0.004579798582633776 -0.01388170574594629 0
    vertex 0.002411531846018673 0.00849855552237375 0
    vertex -0.0204638360359712 0.003362301684501381 0
  endloop
endfacet
facet normal -0 0 1
  outer loop
    vertex 0.002411531846018673 0.00849855552237375 0
    vertex 0.01829739998525661 -0.008743967355609502 0
    vertex 0.02528718618408071 0.01363505443210213 0
  endloop
endfacet
facet normal 0 0 1
  outer loop
    vertex -0.004579798582633776 -0.01388170574594629 0
    vertex 0.01829739998525661 -0.008743967355609502 0
    vertex 0.002411531846018673 0.00849855552237375 0
  endloop
endfacet
facet normal 0 -0 1
  outer loop
    vertex -0.01158036183034461 -0.03626980234562813 0
    vertex -0.004579798582633776 -0.01388170574594629 0
    vertex -0.02743823550003 -0.01897955291613769 0
  endloop
endfacet
facet normal -0 0 1
  outer loop
    vertex -0.004579798582633776 -0.01388170574594629 0
    vertex 0.01130819603786632 -0.0311223466353269 0
    vertex 0.01829739998525661 -0.008743967355609502 0
  endloop
endfacet
facet normal 0 0 1
  outer loop
    vertex 0.04985431466859047 -0.04331129015040128 0
    vertex 0.04275046483392454 -0.06557094627079295 0
    vertex 0.06455466572857628 -0.06210523899793866 0
  endloop
endfacet
facet normal 0 0 1
  outer loop
    vertex -0.01158036183034461 -0.03626980234562813 0
    vertex 0.01130819603786632 -0.0311223466353269 0
    vertex -0.004579798582633776 -0.01388170574594629 0
  endloop
endfacet
facet normal -0 0 1
  outer loop
    vertex 0.02709481539633424 -0.04842709899200235 0
    vertex 0.04275046483392454 -0.06557094627079295 0
    vertex 0.04985431466859047 -0.04331129015040128 0
  endloop
endfacet
facet normal 0 -0 1
  outer loop
    vertex 0.004235465396385543 -0.05355472888758629 0
    vertex 0.01130819603786632 -0.0311223466353269 0
    vertex -0.01158036183034461 -0.03626980234562813 0
  endloop
endfacet
facet normal -0 0 1
  outer loop
    vertex 0.01130819603786632 -0.0311223466353269 0
    vertex 0.02709481539633424 -0.04842709899200235 0
    vertex 0.034183607317014 -0.025986527596393 0
  endloop
endfacet
facet normal 0 -0 1
  outer loop
    vertex -0.02581960586268892 -0.07852852160517271 0
    vertex -0.01856850624407409 -0.05865332668541019 0
    vertex -0.04127265784575148 -0.06252604717729089 0
  endloop
endfacet
facet normal 0 0 1
  outer loop
    vertex 0.004235465396385543 -0.05355472888758629 0
    vertex 0.02709481539633424 -0.04842709899200235 0
    vertex 0.01130819603786632 -0.0311223466353269 0
  endloop
endfacet
facet normal 0 0 1
  outer loop
    vertex 0.02709481539633424 -0.04842709899200235 0
    vertex 0.01969480221348906 -0.07105896456729131 0
    vertex 0.04275046483392454 -0.06557094627079295 0
  endloop
endfacet
facet normal 0 0 1
  outer loop
    vertex -0.002662205674842225 -0.07587953938908017 0
    vertex -0.01856850624407409 -0.05865332668541019 0
    vertex -0.02581960586268892 -0.07852852160517271 0
  endloop
endfacet
facet normal 0 -0 1
  outer loop
    vertex -0.002662205674842225 -0.07587953938908017 0
    vertex 0.004235465396385543 -0.05355472888758629 0
    vertex -0.01856850624407409 -0.05865332668541019 0
  endloop
endfacet
facet normal -0 0 1
  outer loop
    vertex 0.004235465396385543 -0.05355472888758629 0
    vertex 0.01969480221348906 -0.07105896456729131 0
    vertex 0.02709481539633424 -0.04842709899200235 0
  endloop
endfacet
facet normal 0 0 1
  outer loop
    vertex -0.002662205674842225 -0.07587953938908017 0
    vertex 0.01969480221348906 -0.07105896456729131 0
    vertex 0.004235465396385543 -0.05355472888758629 0
  endloop
endfacet
facet normal 0 -0 1
  outer loop
    vertex 0.01045683694492774 -0.09542339294793474 0
    vertex 0.01969480221348906 -0.07105896456729131 0
    vertex -0.002662205674842225 -0.07587953938908017 0
  endloop
endfacet
facet normal 0 0 1
  outer loop
    vertex 0.01045683694492774 -0.09542339294793474 0
    vertex 0.03578438733336928 -0.0875757761511143 0
    vertex 0.01969480221348906 -0.07105896456729131 0
  endloop
endfacet
facet normal 0 -0 1
  outer loop
    vertex -0.02235435251278521 0.06529261759171716 0
    vertex -0.01561267305817795 0.08633086521061641 0
    vertex -0.03776255648224548 0.08188139324996591 0
  endloop
endfacet
facet normal 0 0 1
  outer loop
    vertex -0.05682856500193328 -0.0463467007440473 0
    vertex -0.07190203746810674 -0.02965654842266592 0
    vertex -0.07987827444054611 -0.05273939752483554 0
  endloop
endfacet
facet normal 0 0 1
  outer loop
    vertex 0.06455466572857628 -0.06210523899793866 0
    vertex 0.04275046483392454 -0.06557094627079295 0
    vertex 0.05676557397823767 -0.08309737979814447 0
  endloop
endfacet
facet normal 0 0 1
  outer loop
    vertex -0.04488583929719316 0.06003529511776601 0
    vertex -0.02235435251278521 0.06529261759171716 0
    vertex -0.03776255648224548 0.08188139324996591 0
  endloop
endfacet
facet normal 0 0 1
  outer loop
    vertex 0.07728691742427136 0.04555160874800575 0
    vertex 0.07049079293555796 0.02368639722632275 0
    vertex 0.09285180137921906 0.0281769310650112 0
  endloop
endfacet
facet normal 0 -0 1
  outer loop
    vertex 0.02942366518063937 -0.1098106133990417 0
    vertex 0.03578438733336928 -0.0875757761511143 0
    vertex 0.01045683694492774 -0.09542339294793474 0
  endloop
endfacet
facet normal 0 -0 1
  outer loop
    vertex -0.1022033822708362 0.01004765455495987 0
    vertex -0.09387028790643184 0.0295094129981034 0
    vertex -0.1139032667223596 0.02870276223981195 0
  endloop
endfacet
facet normal 0 0 1
  outer loop
    vertex -0.1022033822708362 0.01004765455495987 0
    vertex -0.1139032667223596 0.02870276223981195 0
    vertex -0.1195075149118379 0.01070412100644614 0
  endloop
endfacet
facet normal 0 0 1
  outer loop
    vertex 0.1090822411429604 0.01163280878067051 0
    vertex 0.132456642780142 0.02335567989620213 0
    vertex 0.1122307791770834 0.0318201249220158 0
  endloop
endfacet
facet normal -0 0 1
  outer loop
    vertex -0.1134410318288318 -0.00817875291304998 0
    vertex -0.08948820006662965 -0.01298761662274632 0
    vertex -0.1022033822708362 0.01004765455495987 0
  endloop
endfacet
facet normal 0 0 1
  outer loop
    vertex 0.04275046483392454 -0.06557094627079295 0
    vertex 0.03578438733336928 -0.0875757761511143 0
    vertex 0.05676557397823767 -0.08309737979814447 0
  endloop
endfacet
facet normal 0 0 1
  outer loop
    vertex -0.07007428451379269 0.05757608403066364 0
    vertex -0.04488583929719316 0.06003529511776601 0
    vertex -0.05833483348430019 0.07878188791099724 0
  endloop
endfacet
facet normal 0 -0 1
  outer loop
    vertex 0.04625598921207626 0.08077147976503306 0
    vertex 0.04783043604480243 0.1036972881973054 0
    vertex 0.03159733463428249 0.09211632113000082 0
  endloop
endfacet
facet normal 0 0 1
  outer loop
    vertex -0.05682856500193328 -0.0463467007440473 0
    vertex -0.07987827444054611 -0.05273939752483554 0
    vertex -0.06283743209621974 -0.06755757941190899 0
  endloop
endfacet
facet normal -0 0 1
  outer loop
    vertex 0.07049079293555796 0.02368639722632275 0
    vertex 0.08535334214206436 0.00696812330654412 0
    vertex 0.09285180137921906 0.0281769310650112 0
  endloop
endfacet
facet normal 0 0 1
  outer loop
    vertex 0.02942366518063937 -0.1098106133990417 0
    vertex 0.01045683694492774 -0.09542339294793474 0
    vertex 0.01082653277385052 -0.1171257914169059 0
  endloop
endfacet
facet normal 0 -0 1
  outer loop
    vertex -0.08948820006662965 -0.01298761662274632 0
    vertex -0.0814024136172003 0.01062952390002212 0
    vertex -0.1022033822708362 0.01004765455495987 0
  endloop
endfacet
facet normal 0 0 1
  outer loop
    vertex -0.02581960586268892 -0.07852852160517271 0
    vertex -0.04127265784575148 -0.06252604717729089 0
    vertex -0.04615418062397968 -0.08380835088633598 0
  endloop
endfacet
facet normal 0 0 1
  outer loop
    vertex 0.01045683694492774 -0.09542339294793474 0
    vertex -0.002662205674842225 -0.07587953938908017 0
    vertex -0.01375277106109568 -0.09498878124007291 0
  endloop
endfacet
facet normal 0 -0 1
  outer loop
    vertex -0.0814024136172003 0.01062952390002212 0
    vertex -0.07370429657367543 0.032358078931027 0
    vertex -0.09387028790643184 0.0295094129981034 0
  endloop
endfacet
facet normal 0 0 1
  outer loop
    vertex 0.09285180137921906 0.0281769310650112 0
    vertex 0.08535334214206436 0.00696812330654412 0
    vertex 0.1090822411429604 0.01163280878067051 0
  endloop
endfacet
facet normal 0 0 1
  outer loop
    vertex -0.01156641525534952 0.1105963976573297 0
    vertex -0.03034570404229745 0.1132517092773024 0
    vertex -0.02914204515826856 0.09761070183557086 0
  endloop
endfacet
facet normal 0 0 1
  outer loop
    vertex 0.009593297385836157 0.09462152115281312 0
    vertex 0.0233806304507244 0.07563523077563147 0
    vertex 0.03159733463428249 0.09211632113000082 0
  endloop
endfacet
facet normal 0 0 1
  outer loop
    vertex -0.04127265784575148 -0.06252604717729089 0
    vertex -0.05682856500193328 -0.0463467007440473 0
    vertex -0.06283743209621974 -0.06755757941190899 0
  endloop
endfacet
facet normal 0 0 1
  outer loop
    vertex -0.07190203746810674 -0.02965654842266592 0
    vertex -0.08948820006662965 -0.01298761662274632 0
    vertex -0.08977661691543755 -0.03539547020570372 0
  endloop
endfacet
facet normal -0 0 1
  outer loop
    vertex 0.06455466572857628 -0.06210523899793866 0
    vertex 0.0780916217460218 -0.08186722254578227 0
    vertex 0.08952138505734375 -0.05955935731135857 0
  endloop
endfacet
facet normal 0 0 1
  outer loop
    vertex -0.07987827444054611 -0.05273939752483554 0
    vertex -0.1016678747578357 -0.04938345755915153 0
    vertex -0.09628929836505874 -0.06724294736104576 0
  endloop
endfacet
facet normal 0 -0 1
  outer loop
    vertex -0.04488583929719316 0.06003529511776601 0
    vertex -0.03776255648224548 0.08188139324996591 0
    vertex -0.05833483348430019 0.07878188791099724 0
  endloop
endfacet
facet normal 0 0 1
  outer loop
    vertex 0.05676557397823767 -0.08309737979814447 0
    vertex 0.05085074164020729 -0.1035490358750232 0
    vertex 0.06788257417346126 -0.09760540652549189 0
  endloop
endfacet
facet normal 0 0 1
  outer loop
    vertex -0.08948820006662965 -0.01298761662274632 0
    vertex -0.1134410318288318 -0.00817875291304998 0
    vertex -0.1086449804256333 -0.0294473618344178 0
  endloop
endfacet
facet normal 0 0 1
  outer loop
    vertex 0.02942366518063937 -0.1098106133990417 0
    vertex 0.05085074164020729 -0.1035490358750232 0
    vertex 0.03578438733336928 -0.0875757761511143 0
  endloop
endfacet
facet normal 0 0 1
  outer loop
    vertex 0.1158976845113257 -0.009968124566564337 0
    vertex 0.1090822411429604 0.01163280878067051 0
    vertex 0.09669777069337922 -0.009117037236028155 0
  endloop
endfacet
facet normal 0 0 1
  outer loop
    vertex 0.1090822411429604 0.01163280878067051 0
    vertex 0.08535334214206436 0.00696812330654412 0
    vertex 0.09669777069337922 -0.009117037236028155 0
  endloop
endfacet
facet normal 0 0 1
  outer loop
    vertex 0.07952036383087138 -0.01551701726192338 0
    vertex 0.07208471639928951 -0.03855771226456346 0
    vertex 0.09299389096020337 -0.03177249659176233 0
  endloop
endfacet
facet normal 0 0 1
  outer loop
    vertex -0.1058582020669765 0.04773773445305986 0
    vertex -0.09387028790643184 0.0295094129981034 0
    vertex -0.0866602028726858 0.04684271189935826 0
  endloop
endfacet
facet normal 0 0 1
  outer loop
    vertex -0.09387028790643184 0.0295094129981034 0
    vertex -0.07370429657367543 0.032358078931027 0
    vertex -0.0866602028726858 0.04684271189935826 0
  endloop
endfacet
facet normal 0 0 1
  outer loop
    vertex -0.08948820006662965 -0.01298761662274632 0
    vertex -0.1086449804256333 -0.0294473618344178 0
    vertex -0.08977661691543755 -0.03539547020570372 0
  endloop
endfacet
facet normal 0 0 1
  outer loop
    vertex 0.04600170927730237 -0.1263886574957047 0
    vertex 0.06725000000000002 -0.116480416809007 0
    vertex 0.05085074164020729 -0.1035490358750232 0
  endloop
endfacet
facet normal 0 -0 1
  outer loop
    vertex 0.1263886574957047 -0.04600170927730254 0
    vertex 0.132456642780142 -0.02335567989620214 0
    vertex 0.1122430575759765 -0.02834891973044957 0
  endloop
endfacet
facet normal -0 0 1
  outer loop
    vertex 0.02942366518063937 -0.1098106133990417 0
    vertex 0.04600170927730237 -0.1263886574957047 0
    vertex 0.05085074164020729 -0.1035490358750232 0
  endloop
endfacet
facet normal 0 0 1
  outer loop
    vertex -0.06724999999999998 0.116480416809007 0
    vertex -0.08645493350283955 0.1030329775995025 0
    vertex -0.06805572980170424 0.09603539775335022 0
  endloop
endfacet
facet normal 0 0 1
  outer loop
    vertex 0.04600170927730246 0.1263886574957047 0
    vertex 0.02845354188736869 0.1107267090385129 0
    vertex 0.04783043604480243 0.1036972881973054 0
  endloop
endfacet
facet normal 0 0 1
  outer loop
    vertex -0.04874028344306434 -0.1052161224551365 0
    vertex -0.04600170927730254 -0.1263886574957047 0
    vertex -0.03034570404229749 -0.1132517092773025 0
  endloop
endfacet
facet normal 0 0 1
  outer loop
    vertex 0.06725000000000002 0.116480416809007 0
    vertex 0.04600170927730246 0.1263886574957047 0
    vertex 0.04783043604480243 0.1036972881973054 0
  endloop
endfacet
facet normal 0 0 1
  outer loop
    vertex -0.1030329775995025 0.08645493350283956 0
    vertex -0.116480416809007 0.06724999999999999 0
    vertex -0.09338471211808615 0.06463972564667531 0
  endloop
endfacet
facet normal -0 0 1
  outer loop
    vertex -0.04600170927730254 -0.1263886574957047 0
    vertex -0.02335567989620213 -0.132456642780142 0
    vertex -0.03034570404229749 -0.1132517092773025 0
  endloop
endfacet
facet normal 0 0 1
  outer loop
    vertex 0.1072054244642753 -0.0469740421524493 0
    vertex 0.1263886574957047 -0.04600170927730254 0
    vertex 0.1122430575759765 -0.02834891973044957 0
  endloop
endfacet
facet normal 0 0 1
  outer loop
    vertex -0.02335567989620213 0.132456642780142 0
    vertex -0.04600170927730245 0.1263886574957047 0
    vertex -0.03034570404229745 0.1132517092773024 0
  endloop
endfacet
facet normal -0 0 1
  outer loop
    vertex -0.116480416809007 -0.06724999999999996 0
    vertex -0.1030329775995025 -0.08645493350283953 0
    vertex -0.09628929836505874 -0.06724294736104576 0
  endloop
endfacet
facet normal 0 0 1
  outer loop
    vertex -0.1016678747578357 -0.04938345755915153 0
    vertex -0.116480416809007 -0.06724999999999996 0
    vertex -0.09628929836505874 -0.06724294736104576 0
  endloop
endfacet
facet normal 0 0 1
  outer loop
    vertex 0.02845354188736869 0.1107267090385129 0
    vertex 0.02335567989620214 0.132456642780142 0
    vertex 0.009967220782811495 0.1165802541257595 0
  endloop
endfacet
facet normal 0 0 1
  outer loop
    vertex -0.04600170927730245 0.1263886574957047 0
    vertex -0.04824130876706226 0.1011010781717448 0
    vertex -0.03034570404229745 0.1132517092773024 0
  endloop
endfacet
facet normal 0 0 1
  outer loop
    vertex 0.02335567989620214 0.132456642780142 0
    vertex 8.235749724265951e-18 0.1345 0
    vertex 0.009967220782811495 0.1165802541257595 0
  endloop
endfacet
facet normal 0 0 1
  outer loop
    vertex 0.116480416809007 0.06724999999999999 0
    vertex 0.1030329775995025 0.08645493350283953 0
    vertex 0.09622251572714925 0.06940561146666806 0
  endloop
endfacet
facet normal 0 0 1
  outer loop
    vertex -0.01156641525534952 0.1105963976573297 0
    vertex -0.02335567989620213 0.132456642780142 0
    vertex -0.03034570404229745 0.1132517092773024 0
  endloop
endfacet
facet normal 0 0 1
  outer loop
    vertex -0.00910351815251656 -0.1134383079574109 0
    vertex -2.470724917279785e-17 -0.1345 0
    vertex 0.01082653277385052 -0.1171257914169059 0
  endloop
endfacet
facet normal 0 0 1
  outer loop
    vertex 0.08645493350283955 0.1030329775995025 0
    vertex 0.06725000000000002 0.116480416809007 0
    vertex 0.06543963525774277 0.09152211001160977 0
  endloop
endfacet
facet normal 0 0 1
  outer loop
    vertex -0.1030329775995025 -0.08645493350283953 0
    vertex -0.08038694821840225 -0.08038694821840225 0
    vertex -0.09628929836505874 -0.06724294736104576 0
  endloop
endfacet
facet normal 0 0 1
  outer loop
    vertex -0.08038694821840225 -0.08038694821840225 0
    vertex -0.08645493350283956 -0.1030329775995025 0
    vertex -0.06580175602063162 -0.0925570415041696 0
  endloop
endfacet
facet normal 0 -0 1
  outer loop
    vertex 0.1003745530873909 0.04993349559089272 0
    vertex 0.116480416809007 0.06724999999999999 0
    vertex 0.09622251572714925 0.06940561146666806 0
  endloop
endfacet
facet normal 0 0 1
  outer loop
    vertex -0.04824130876706226 0.1011010781717448 0
    vertex -0.06724999999999998 0.116480416809007 0
    vertex -0.06805572980170424 0.09603539775335022 0
  endloop
endfacet
facet normal 0 0 1
  outer loop
    vertex 8.235749724265951e-18 0.1345 0
    vertex -0.01156641525534952 0.1105963976573297 0
    vertex 0.009967220782811495 0.1165802541257595 0
  endloop
endfacet
facet normal 0 0 1
  outer loop
    vertex -0.08645493350283955 0.1030329775995025 0
    vertex -0.07999757325431917 0.08078062827549953 0
    vertex -0.06805572980170424 0.09603539775335022 0
  endloop
endfacet
facet normal 0 0 1
  outer loop
    vertex -0.07999757325431917 0.08078062827549953 0
    vertex -0.1030329775995025 0.08645493350283956 0
    vertex -0.09338471211808615 0.06463972564667531 0
  endloop
endfacet
facet normal 0 0 1
  outer loop
    vertex -0.116480416809007 0.06724999999999999 0
    vertex -0.1058582020669765 0.04773773445305986 0
    vertex -0.09338471211808615 0.06463972564667531 0
  endloop
endfacet
facet normal 0 0 1
  outer loop
    vertex -0.06725000000000006 -0.116480416809007 0
    vertex -0.04874028344306434 -0.1052161224551365 0
    vertex -0.06580175602063162 -0.0925570415041696 0
  endloop
endfacet
facet normal 0 -0 1
  outer loop
    vertex -0.02335567989620213 -0.132456642780142 0
    vertex -0.00910351815251656 -0.1134383079574109 0
    vertex -0.03034570404229749 -0.1132517092773025 0
  endloop
endfacet
facet normal 0 0 1
  outer loop
    vertex 0.132456642780142 -0.02335567989620214 0
    vertex 0.1158976845113257 -0.009968124566564337 0
    vertex 0.1122430575759765 -0.02834891973044957 0
  endloop
endfacet
facet normal 0 0 1
  outer loop
    vertex 0.1030329775995025 0.08645493350283953 0
    vertex 0.0818165917146243 0.0800668224437476 0
    vertex 0.09622251572714925 0.06940561146666806 0
  endloop
endfacet
facet normal 0 0 1
  outer loop
    vertex -2.470724917279785e-17 -0.1345 0
    vertex 0.02335567989620208 -0.132456642780142 0
    vertex 0.01082653277385052 -0.1171257914169059 0
  endloop
endfacet
facet normal 0 -0 1
  outer loop
    vertex 0.02335567989620208 -0.132456642780142 0
    vertex 0.02942366518063937 -0.1098106133990417 0
    vertex 0.01082653277385052 -0.1171257914169059 0
  endloop
endfacet
facet normal 0 -0 1
  outer loop
    vertex 0.0818165917146243 0.0800668224437476 0
    vertex 0.08645493350283955 0.1030329775995025 0
    vertex 0.06543963525774277 0.09152211001160977 0
  endloop
endfacet
facet normal -0 0 1
  outer loop
    vertex -0.08645493350283956 -0.1030329775995025 0
    vertex -0.06725000000000006 -0.116480416809007 0
    vertex -0.06580175602063162 -0.0925570415041696 0
  endloop
endfacet
facet normal 0 0 1
  outer loop
    vertex 0.0818165917146243 0.0800668224437476 0
    vertex 0.06302986107211417 0.06508367525506306 0
    vertex 0.08098896084646365 0.06284373761255688 0
  endloop
endfacet
facet normal 0 0 1
  outer loop
    vertex 0.132456642780142 0.02335567989620213 0
    vertex 0.1263886574957047 0.04600170927730245 0
    vertex 0.1122307791770834 0.0318201249220158 0
  endloop
endfacet
facet normal 0 0 1
  outer loop
    vertex -0.1058582020669765 0.04773773445305986 0
    vertex -0.1263886574957047 0.04600170927730247 0
    vertex -0.1139032667223596 0.02870276223981195 0
  endloop
endfacet
facet normal 0 0 1
  outer loop
    vertex 0.08645493350283953 -0.1030329775995026 0
    vertex 0.0780916217460218 -0.08186722254578227 0
    vertex 0.06788257417346126 -0.09760540652549189 0
  endloop
endfacet
facet normal -0 0 1
  outer loop
    vertex -0.1345 1.64714994485319e-17 0
    vertex -0.1134410318288318 -0.00817875291304998 0
    vertex -0.1195075149118379 0.01070412100644614 0
  endloop
endfacet
facet normal 0 0 1
  outer loop
    vertex -0.02581960586268892 -0.07852852160517271 0
    vertex -0.04615418062397968 -0.08380835088633598 0
    vertex -0.03296250900662522 -0.09515869709280414 0
  endloop
endfacet
facet normal 0 0 1
  outer loop
    vertex 0.1263886574957047 0.04600170927730245 0
    vertex 0.1003745530873909 0.04993349559089272 0
    vertex 0.1122307791770834 0.0318201249220158 0
  endloop
endfacet
facet normal -0 0 1
  outer loop
    vertex -0.06580175602063162 -0.0925570415041696 0
    vertex -0.04874028344306434 -0.1052161224551365 0
    vertex -0.04615418062397968 -0.08380835088633598 0
  endloop
endfacet
facet normal 0 0 1
  outer loop
    vertex -0.002662205674842225 -0.07587953938908017 0
    vertex -0.02581960586268892 -0.07852852160517271 0
    vertex -0.01375277106109568 -0.09498878124007291 0
  endloop
endfacet
facet normal -0 0 1
  outer loop
    vertex 0.09285180137921906 0.0281769310650112 0
    vertex 0.1090822411429604 0.01163280878067051 0
    vertex 0.1122307791770834 0.0318201249220158 0
  endloop
endfacet
facet normal 0 0 1
  outer loop
    vertex -0.0814024136172003 0.01062952390002212 0
    vertex -0.09387028790643184 0.0295094129981034 0
    vertex -0.1022033822708362 0.01004765455495987 0
  endloop
endfacet
facet normal -0 0 1
  outer loop
    vertex -0.07999757325431917 0.08078062827549953 0
    vertex -0.05833483348430019 0.07878188791099724 0
    vertex -0.06805572980170424 0.09603539775335022 0
  endloop
endfacet
facet normal 0 0 1
  outer loop
    vertex 0.0780916217460218 -0.08186722254578227 0
    vertex 0.05676557397823767 -0.08309737979814447 0
    vertex 0.06788257417346126 -0.09760540652549189 0
  endloop
endfacet
facet normal 0 0 1
  outer loop
    vertex 0.1003745530873909 0.04993349559089272 0
    vertex 0.09285180137921906 0.0281769310650112 0
    vertex 0.1122307791770834 0.0318201249220158 0
  endloop
endfacet
facet normal 0 0 1
  outer loop
    vertex -0.1263886574957047 0.04600170927730247 0
    vertex -0.132456642780142 0.02335567989620218 0
    vertex -0.1139032667223596 0.02870276223981195 0
  endloop
endfacet
facet normal 0 0 1
  outer loop
    vertex -0.04127265784575148 -0.06252604717729089 0
    vertex -0.06283743209621974 -0.06755757941190899 0
    vertex -0.04615418062397968 -0.08380835088633598 0
  endloop
endfacet
facet normal 0 0 1
  outer loop
    vertex 0.04783043604480243 0.1036972881973054 0
    vertex 0.02845354188736869 0.1107267090385129 0
    vertex 0.03159733463428249 0.09211632113000082 0
  endloop
endfacet
facet normal 0 0 1
  outer loop
    vertex -0.09387028790643184 0.0295094129981034 0
    vertex -0.1058582020669765 0.04773773445305986 0
    vertex -0.1139032667223596 0.02870276223981195 0
  endloop
endfacet
facet normal 0 0 1
  outer loop
    vertex 0.06725000000000002 -0.116480416809007 0
    vertex 0.08645493350283953 -0.1030329775995026 0
    vertex 0.06788257417346126 -0.09760540652549189 0
  endloop
endfacet
facet normal 0 0 1
  outer loop
    vertex 0.0233806304507244 0.07563523077563147 0
    vertex 0.04625598921207626 0.08077147976503306 0
    vertex 0.03159733463428249 0.09211632113000082 0
  endloop
endfacet
facet normal 0 -0 1
  outer loop
    vertex -0.07370429657367543 0.032358078931027 0
    vertex -0.07007428451379269 0.05757608403066364 0
    vertex -0.0866602028726858 0.04684271189935826 0
  endloop
endfacet
facet normal 0 0 1
  outer loop
    vertex -0.132456642780142 0.02335567989620218 0
    vertex -0.1345 1.64714994485319e-17 0
    vertex -0.1195075149118379 0.01070412100644614 0
  endloop
endfacet
facet normal 0 0 1
  outer loop
    vertex -0.09338471211808615 0.06463972564667531 0
    vertex -0.1058582020669765 0.04773773445305986 0
    vertex -0.0866602028726858 0.04684271189935826 0
  endloop
endfacet
facet normal 0 0 1
  outer loop
    vertex 0.06725000000000002 0.116480416809007 0
    vertex 0.04783043604480243 0.1036972881973054 0
    vertex 0.06543963525774277 0.09152211001160977 0
  endloop
endfacet
facet normal 0 0 1
  outer loop
    vertex 0.08535334214206436 0.00696812330654412 0
    vertex 0.07952036383087138 -0.01551701726192338 0
    vertex 0.09669777069337922 -0.009117037236028155 0
  endloop
endfacet
facet normal 0 0 1
  outer loop
    vertex -0.04824130876706226 0.1011010781717448 0
    vertex -0.03776255648224548 0.08188139324996591 0
    vertex -0.02914204515826856 0.09761070183557086 0
  endloop
endfacet
facet normal 0 0 1
  outer loop
    vertex 0.06302986107211417 0.06508367525506306 0
    vertex 0.07728691742427136 0.04555160874800575 0
    vertex 0.08098896084646365 0.06284373761255688 0
  endloop
endfacet
facet normal -0 0 1
  outer loop
    vertex -0.1016678747578357 -0.04938345755915153 0
    vertex -0.07987827444054611 -0.05273939752483554 0
    vertex -0.08977661691543755 -0.03539547020570372 0
  endloop
endfacet
facet normal 0 0 1
  outer loop
    vertex -0.03776255648224548 0.08188139324996591 0
    vertex -0.01561267305817795 0.08633086521061641 0
    vertex -0.02914204515826856 0.09761070183557086 0
  endloop
endfacet
facet normal -0 0 1
  outer loop
    vertex 0.07952036383087138 -0.01551701726192338 0
    vertex 0.09299389096020337 -0.03177249659176233 0
    vertex 0.09669777069337922 -0.009117037236028155 0
  endloop
endfacet
facet normal 0 -0 1
  outer loop
    vertex -0.07987827444054611 -0.05273939752483554 0
    vertex -0.07190203746810674 -0.02965654842266592 0
    vertex -0.08977661691543755 -0.03539547020570372 0
  endloop
endfacet
facet normal 0 -0 1
  outer loop
    vertex 0.1072054244642753 -0.0469740421524493 0
    vertex 0.1122430575759765 -0.02834891973044957 0
    vertex 0.09299389096020337 -0.03177249659176233 0
  endloop
endfacet
facet normal 0 -0 1
  outer loop
    vertex -0.1134410318288318 -0.00817875291304998 0
    vertex -0.1022033822708362 0.01004765455495987 0
    vertex -0.1195075149118379 0.01070412100644614 0
  endloop
endfacet
facet normal -0 0 1
  outer loop
    vertex 0.05085074164020729 -0.1035490358750232 0
    vertex 0.06725000000000002 -0.116480416809007 0
    vertex 0.06788257417346126 -0.09760540652549189 0
  endloop
endfacet
facet normal 0 0 1
  outer loop
    vertex -0.04615418062397968 -0.08380835088633598 0
    vertex -0.04874028344306434 -0.1052161224551365 0
    vertex -0.03296250900662522 -0.09515869709280414 0
  endloop
endfacet
facet normal 0 0 1
  outer loop
    vertex -0.01375277106109568 -0.09498878124007291 0
    vertex -0.02581960586268892 -0.07852852160517271 0
    vertex -0.03296250900662522 -0.09515869709280414 0
  endloop
endfacet
facet normal 0 0 1
  outer loop
    vertex -0.1139032667223596 0.02870276223981195 0
    vertex -0.132456642780142 0.02335567989620218 0
    vertex -0.1195075149118379 0.01070412100644614 0
  endloop
endfacet
facet normal 0 0 1
  outer loop
    vertex -0.03034570404229745 0.1132517092773024 0
    vertex -0.04824130876706226 0.1011010781717448 0
    vertex -0.02914204515826856 0.09761070183557086 0
  endloop
endfacet
facet normal 0 0 1
  outer loop
    vertex -0.1086449804256333 -0.0294473618344178 0
    vertex -0.1016678747578357 -0.04938345755915153 0
    vertex -0.08977661691543755 -0.03539547020570372 0
  endloop
endfacet
facet normal 0 0 1
  outer loop
    vertex 0.09622251572714925 0.06940561146666806 0
    vertex 0.0818165917146243 0.0800668224437476 0
    vertex 0.08098896084646365 0.06284373761255688 0
  endloop
endfacet
facet normal -0 0 1
  outer loop
    vertex -0.04874028344306434 -0.1052161224551365 0
    vertex -0.03034570404229749 -0.1132517092773025 0
    vertex -0.03296250900662522 -0.09515869709280414 0
  endloop
endfacet
endsolid Created by Gmsh
