solid Created by Gmsh
facet normal 0 0 1
  outer loop
    vertex -0.2 1.42334061203897e-14 0
    vertex -0.2 -0.005450000000000001 0
    vertex -0.1941666666666699 -1.280225925270884e-15 0
  endloop
endfacet
facet normal 0 -0 1
  outer loop
    vertex 0.2 -1.42334061203897e-14 0
    vertex 0.2 0.005450000000000001 0
    vertex 0.1941666666666699 1.281816088457196e-15 0
  endloop
endfacet
facet normal 0 -0 1
  outer loop
    vertex 0.2 -0.005450000000000001 0
    vertex 0.2 -1.42334061203897e-14 0
    vertex 0.1941666666666699 1.281816088457196e-15 0
  endloop
endfacet
facet normal 0 0 1
  outer loop
    vertex -0.2 0.005450000000000001 0
    vertex -0.2 1.42334061203897e-14 0
    vertex -0.1941666666666699 -1.280225925270884e-15 0
  endloop
endfacet
facet normal 0 0 1
  outer loop
    vertex 0.1899999999999699 -0.005450000000000001 0
    vertex 0.2 -0.005450000000000001 0
    vertex 0.1941666666666699 1.281816088457196e-15 0
  endloop
endfacet
facet normal 0 0 1
  outer loop
    vertex -0.1899999999999699 0.005450000000000001 0
    vertex -0.2 0.005450000000000001 0
    vertex -0.1941666666666699 -1.280225925270884e-15 0
  endloop
endfacet
facet normal 0 0 1
  outer loop
    vertex 0.2 0.005450000000000001 0
    vertex 0.1900000000000176 0.005450000000000001 0
    vertex 0.1941666666666699 1.281816088457196e-15 0
  endloop
endfacet
facet normal 0 0 1
  outer loop
    vertex -0.2 -0.005450000000000001 0
    vertex -0.1900000000000176 -0.005450000000000001 0
    vertex -0.1941666666666699 -1.280225925270884e-15 0
  endloop
endfacet
facet normal 0 0 1
  outer loop
    vertex -0.004999999999995799 1.553335605302691e-13 0
    vertex -5.312417172831374e-13 -0.005450000000000001 0
    vertex 0.005000000000037604 5.893842514286886e-14 0
  endloop
endfacet
facet normal 0 0 1
  outer loop
    vertex 5.312417172831374e-13 0.005450000000000001 0
    vertex -0.004999999999995799 1.553335605302691e-13 0
    vertex 0.005000000000037604 5.893842514286886e-14 0
  endloop
endfacet
facet normal 0 0 1
  outer loop
    vertex -5.312417172831374e-13 -0.005450000000000001 0
    vertex 0.009999999999492332 -0.005450000000000001 0
    vertex 0.005000000000037604 5.893842514286886e-14 0
  endloop
endfacet
facet normal 0 0 1
  outer loop
    vertex -0.01000000000050821 -0.005450000000000001 0
    vertex -5.312417172831374e-13 -0.005450000000000001 0
    vertex -0.004999999999995799 1.553335605302691e-13 0
  endloop
endfacet
facet normal 0 0 1
  outer loop
    vertex 0.009999999999492332 -0.005450000000000001 0
    vertex 0.01999999999951596 -0.005450000000000001 0
    vertex 0.01500000000022088 1.9829872505042e-13 0
  endloop
endfacet
facet normal 0 -0 1
  outer loop
    vertex -0.01000000000050821 -0.005450000000000001 0
    vertex -0.004999999999995799 1.553335605302691e-13 0
    vertex -0.01500000000007626 9.957304112063571e-14 0
  endloop
endfacet
facet normal 0 0 1
  outer loop
    vertex -0.02999999999954497 0.005450000000000001 0
    vertex -0.03999999999957288 0.005450000000000001 0
    vertex -0.03500000000003468 -8.810731897146647e-15 0
  endloop
endfacet
facet normal 0 0 1
  outer loop
    vertex 0.02999999999954497 -0.005450000000000001 0
    vertex 0.03999999999957288 -0.005450000000000001 0
    vertex 0.03500000000015794 1.422332885703466e-13 0
  endloop
endfacet
facet normal 0 0 1
  outer loop
    vertex 0.04999999999959756 -0.005450000000000001 0
    vertex 0.0599999999996309 -0.005450000000000001 0
    vertex 0.05500000000002837 3.09405777115559e-14 0
  endloop
endfacet
facet normal 0 0 1
  outer loop
    vertex -0.02000000000047975 -0.005450000000000001 0
    vertex -0.01000000000050821 -0.005450000000000001 0
    vertex -0.01500000000007626 9.957304112063571e-14 0
  endloop
endfacet
facet normal 0 0 1
  outer loop
    vertex 0.0300000000004513 0.005450000000000001 0
    vertex 0.02000000000047975 0.005450000000000001 0
    vertex 0.02500000000015384 1.386659930428282e-13 0
  endloop
endfacet
facet normal 0 0 1
  outer loop
    vertex -0.0300000000004513 -0.005450000000000001 0
    vertex -0.02000000000047975 -0.005450000000000001 0
    vertex -0.02500000000008422 -4.83868632034385e-14 0
  endloop
endfacet
facet normal 0 0 1
  outer loop
    vertex 0.07999999999967583 -0.005450000000000001 0
    vertex 0.08999999999971237 -0.005450000000000001 0
    vertex 0.08500000000005767 4.818765555718771e-14 0
  endloop
endfacet
facet normal 0 0 1
  outer loop
    vertex -0.07999999999967583 0.005450000000000001 0
    vertex -0.08999999999971237 0.005450000000000001 0
    vertex -0.08500000000005317 -5.660553256266486e-14 0
  endloop
endfacet
facet normal 0 -0 1
  outer loop
    vertex -0.02000000000047975 -0.005450000000000001 0
    vertex -0.01500000000007626 9.957304112063571e-14 0
    vertex -0.02500000000008422 -4.83868632034385e-14 0
  endloop
endfacet
facet normal 0 0 1
  outer loop
    vertex -0.0599999999996309 0.005450000000000001 0
    vertex -0.06999999999965228 0.005450000000000001 0
    vertex -0.06500000000001613 -1.887995052538383e-14 0
  endloop
endfacet
facet normal 0 0 1
  outer loop
    vertex 0.0599999999996309 -0.005450000000000001 0
    vertex 0.06999999999965228 -0.005450000000000001 0
    vertex 0.06500000000006589 6.52950967785544e-14 0
  endloop
endfacet
facet normal 0 0 1
  outer loop
    vertex 0.05000000000038896 0.005450000000000001 0
    vertex 0.04000000000042284 0.005450000000000001 0
    vertex 0.04500000000013189 1.20347502129043e-13 0
  endloop
endfacet
facet normal 0 0 1
  outer loop
    vertex -0.05000000000038896 -0.005450000000000001 0
    vertex -0.04000000000042284 -0.005450000000000001 0
    vertex -0.04500000000013188 -4.477528179441391e-15 0
  endloop
endfacet
facet normal 0 0 1
  outer loop
    vertex -0.06999999999965228 0.005450000000000001 0
    vertex -0.07999999999967583 0.005450000000000001 0
    vertex -0.0750000000000578 -6.098377966127529e-14 0
  endloop
endfacet
facet normal 0 0 1
  outer loop
    vertex 0.06999999999965228 -0.005450000000000001 0
    vertex 0.07999999999967583 -0.005450000000000001 0
    vertex 0.07500000000005855 5.958065560007283e-14 0
  endloop
endfacet
facet normal 0 0 1
  outer loop
    vertex -0.06000000000035507 -0.005450000000000001 0
    vertex -0.05000000000038896 -0.005450000000000001 0
    vertex -0.05500000000007419 -5.229592349102772e-14 0
  endloop
endfacet
facet normal 0 0 1
  outer loop
    vertex -0.1099999999997509 0.005450000000000001 0
    vertex -0.1199999999997874 0.005450000000000001 0
    vertex -0.1150000000000078 -2.037094398323311e-14 0
  endloop
endfacet
facet normal 0 0 1
  outer loop
    vertex -0.08999999999971237 0.005450000000000001 0
    vertex -0.09999999999973158 0.005450000000000001 0
    vertex -0.09500000000005063 -5.416883489272177e-14 0
  endloop
endfacet
facet normal 0 -0 1
  outer loop
    vertex -0.05000000000038896 -0.005450000000000001 0
    vertex -0.04500000000013188 -4.477528179441391e-15 0
    vertex -0.05500000000007419 -5.229592349102772e-14 0
  endloop
endfacet
facet normal 0 -0 1
  outer loop
    vertex 0.009999999999492332 -0.005450000000000001 0
    vertex 0.01500000000022088 1.9829872505042e-13 0
    vertex 0.005000000000037604 5.893842514286886e-14 0
  endloop
endfacet
facet normal 0 0 1
  outer loop
    vertex 0.1399999999998324 -0.005450000000000001 0
    vertex 0.1499999999998712 -0.005450000000000001 0
    vertex 0.1450000000000151 2.602538812940396e-14 0
  endloop
endfacet
facet normal 0 0 1
  outer loop
    vertex 0.1000000000002412 0.005450000000000001 0
    vertex 0.0900000000002697 0.005450000000000001 0
    vertex 0.09500000000007763 3.661342111727145e-15 0
  endloop
endfacet
facet normal 0 0 1
  outer loop
    vertex 0.1199999999997874 -0.005450000000000001 0
    vertex 0.129999999999811 -0.005450000000000001 0
    vertex 0.1249999999999968 8.547719784623971e-15 0
  endloop
endfacet
facet normal 0 0 1
  outer loop
    vertex 0.1100000000002128 0.005450000000000001 0
    vertex 0.1000000000002412 0.005450000000000001 0
    vertex 0.1050000000000354 -3.469991086819697e-14 0
  endloop
endfacet
facet normal 0 0 1
  outer loop
    vertex -0.1100000000002128 -0.005450000000000001 0
    vertex -0.1000000000002412 -0.005450000000000001 0
    vertex -0.1050000000000651 -6.931823844430125e-14 0
  endloop
endfacet
facet normal 0 0 1
  outer loop
    vertex 0.1200000000001843 0.005450000000000001 0
    vertex 0.1100000000002128 0.005450000000000001 0
    vertex 0.1150000000000235 2.0582500930304e-14 0
  endloop
endfacet
facet normal 0 0 1
  outer loop
    vertex -0.129999999999811 0.005450000000000001 0
    vertex -0.1399999999998324 0.005450000000000001 0
    vertex -0.1350000000000003 -9.609364976078019e-15 0
  endloop
endfacet
facet normal 0 0 1
  outer loop
    vertex 0.129999999999811 -0.005450000000000001 0
    vertex 0.1399999999998324 -0.005450000000000001 0
    vertex 0.1350000000000186 3.070295041570183e-14 0
  endloop
endfacet
facet normal 0 0 1
  outer loop
    vertex 0.1000000000002412 0.005450000000000001 0
    vertex 0.09500000000007763 3.661342111727145e-15 0
    vertex 0.1050000000000354 -3.469991086819697e-14 0
  endloop
endfacet
facet normal 0 0 1
  outer loop
    vertex 0.1699999999999162 -0.005450000000000001 0
    vertex 0.1799999999999506 -0.005450000000000001 0
    vertex 0.1750000000000167 1.576118557342959e-14 0
  endloop
endfacet
facet normal 0 0 1
  outer loop
    vertex -0.1300000000001559 -0.005450000000000001 0
    vertex -0.1200000000001843 -0.005450000000000001 0
    vertex -0.1250000000000464 -5.290655809335948e-14 0
  endloop
endfacet
facet normal 0 0 1
  outer loop
    vertex 0.1100000000002128 0.005450000000000001 0
    vertex 0.1050000000000354 -3.469991086819697e-14 0
    vertex 0.1150000000000235 2.0582500930304e-14 0
  endloop
endfacet
facet normal 0 0 1
  outer loop
    vertex 0.1599999999998905 -0.005450000000000001 0
    vertex 0.1699999999999162 -0.005450000000000001 0
    vertex 0.1650000000000136 1.7711917488471e-14 0
  endloop
endfacet
facet normal 0 0 1
  outer loop
    vertex 0.1499999999998712 -0.005450000000000001 0
    vertex 0.1599999999998905 -0.005450000000000001 0
    vertex 0.1550000000000139 2.079470471586219e-14 0
  endloop
endfacet
facet normal 0 -0 1
  outer loop
    vertex 0.0599999999996309 -0.005450000000000001 0
    vertex 0.06500000000006589 6.52950967785544e-14 0
    vertex 0.05500000000002837 3.09405777115559e-14 0
  endloop
endfacet
facet normal 0 0 1
  outer loop
    vertex -0.1700000000000745 -0.005450000000000001 0
    vertex -0.1600000000000878 -0.005450000000000001 0
    vertex -0.1650000000000066 1.448417117825357e-14 0
  endloop
endfacet
facet normal 0 0 1
  outer loop
    vertex -0.1500000000001044 -0.005450000000000001 0
    vertex -0.1400000000001274 -0.005450000000000001 0
    vertex -0.1450000000000288 -4.748764401370649e-15 0
  endloop
endfacet
facet normal 0 0 1
  outer loop
    vertex -0.06999999999965228 0.005450000000000001 0
    vertex -0.0750000000000578 -6.098377966127529e-14 0
    vertex -0.06500000000001613 -1.887995052538383e-14 0
  endloop
endfacet
facet normal 0 -0 1
  outer loop
    vertex 0.06999999999965228 -0.005450000000000001 0
    vertex 0.07500000000005855 5.958065560007283e-14 0
    vertex 0.06500000000006589 6.52950967785544e-14 0
  endloop
endfacet
facet normal 0 0 1
  outer loop
    vertex -0.1600000000000878 -0.005450000000000001 0
    vertex -0.1500000000001044 -0.005450000000000001 0
    vertex -0.1550000000000106 1.430251279120209e-14 0
  endloop
endfacet
facet normal 0 -0 1
  outer loop
    vertex 0.07999999999967583 -0.005450000000000001 0
    vertex 0.08500000000005767 4.818765555718771e-14 0
    vertex 0.07500000000005855 5.958065560007283e-14 0
  endloop
endfacet
facet normal 0 0 1
  outer loop
    vertex -0.07999999999967583 0.005450000000000001 0
    vertex -0.08500000000005317 -5.660553256266486e-14 0
    vertex -0.0750000000000578 -6.098377966127529e-14 0
  endloop
endfacet
facet normal 0 0 1
  outer loop
    vertex 0.1799999999999506 -0.005450000000000001 0
    vertex 0.1899999999999699 -0.005450000000000001 0
    vertex 0.1850000000000318 2.192430265113288e-14 0
  endloop
endfacet
facet normal 0 0 1
  outer loop
    vertex -0.1799999999999506 0.005450000000000001 0
    vertex -0.1899999999999699 0.005450000000000001 0
    vertex -0.1850000000000318 -2.191389431027702e-14 0
  endloop
endfacet
facet normal 0 0 1
  outer loop
    vertex -0.08999999999971237 0.005450000000000001 0
    vertex -0.09500000000005063 -5.416883489272177e-14 0
    vertex -0.08500000000005317 -5.660553256266486e-14 0
  endloop
endfacet
facet normal 0 -0 1
  outer loop
    vertex -0.1500000000001044 -0.005450000000000001 0
    vertex -0.1450000000000288 -4.748764401370649e-15 0
    vertex -0.1550000000000106 1.430251279120209e-14 0
  endloop
endfacet
facet normal 0 -0 1
  outer loop
    vertex -0.1600000000000878 -0.005450000000000001 0
    vertex -0.1550000000000106 1.430251279120209e-14 0
    vertex -0.1650000000000066 1.448417117825357e-14 0
  endloop
endfacet
facet normal 0 0 1
  outer loop
    vertex -0.1699999999999162 0.005450000000000001 0
    vertex -0.1799999999999506 0.005450000000000001 0
    vertex -0.1750000000000043 -1.238287188670574e-15 0
  endloop
endfacet
facet normal 0 -0 1
  outer loop
    vertex -0.1700000000000745 -0.005450000000000001 0
    vertex -0.1650000000000066 1.448417117825357e-14 0
    vertex -0.1750000000000043 -1.238287188670574e-15 0
  endloop
endfacet
facet normal 0 0 1
  outer loop
    vertex -0.1800000000000461 -0.005450000000000001 0
    vertex -0.1700000000000745 -0.005450000000000001 0
    vertex -0.1750000000000043 -1.238287188670574e-15 0
  endloop
endfacet
facet normal 0 0 1
  outer loop
    vertex -0.1399999999998324 0.005450000000000001 0
    vertex -0.1499999999998712 0.005450000000000001 0
    vertex -0.1450000000000288 -4.748764401370649e-15 0
  endloop
endfacet
facet normal 0 0 1
  outer loop
    vertex -0.1599999999998905 0.005450000000000001 0
    vertex -0.1699999999999162 0.005450000000000001 0
    vertex -0.1650000000000066 1.448417117825357e-14 0
  endloop
endfacet
facet normal 0 -0 1
  outer loop
    vertex 0.1499999999998712 -0.005450000000000001 0
    vertex 0.1550000000000139 2.079470471586219e-14 0
    vertex 0.1450000000000151 2.602538812940396e-14 0
  endloop
endfacet
facet normal 0 -0 1
  outer loop
    vertex 0.1599999999998905 -0.005450000000000001 0
    vertex 0.1650000000000136 1.7711917488471e-14 0
    vertex 0.1550000000000139 2.079470471586219e-14 0
  endloop
endfacet
facet normal 0 -0 1
  outer loop
    vertex 0.129999999999811 -0.005450000000000001 0
    vertex 0.1350000000000186 3.070295041570183e-14 0
    vertex 0.1249999999999968 8.547719784623971e-15 0
  endloop
endfacet
facet normal 0 0 1
  outer loop
    vertex 0.1700000000000745 0.005450000000000001 0
    vertex 0.1600000000000878 0.005450000000000001 0
    vertex 0.1650000000000136 1.7711917488471e-14 0
  endloop
endfacet
facet normal 0 -0 1
  outer loop
    vertex 0.1399999999998324 -0.005450000000000001 0
    vertex 0.1450000000000151 2.602538812940396e-14 0
    vertex 0.1350000000000186 3.070295041570183e-14 0
  endloop
endfacet
facet normal 0 0 1
  outer loop
    vertex -0.1900000000000176 -0.005450000000000001 0
    vertex -0.1800000000000461 -0.005450000000000001 0
    vertex -0.1850000000000318 -2.191389431027702e-14 0
  endloop
endfacet
facet normal 0 0 1
  outer loop
    vertex 0.1900000000000176 0.005450000000000001 0
    vertex 0.1800000000000461 0.005450000000000001 0
    vertex 0.1850000000000318 2.192430265113288e-14 0
  endloop
endfacet
facet normal 0 -0 1
  outer loop
    vertex -0.06000000000035507 -0.005450000000000001 0
    vertex -0.05500000000007419 -5.229592349102772e-14 0
    vertex -0.06500000000001613 -1.887995052538383e-14 0
  endloop
endfacet
facet normal 0 0 1
  outer loop
    vertex 0.1200000000001843 0.005450000000000001 0
    vertex 0.1150000000000235 2.0582500930304e-14 0
    vertex 0.1249999999999968 8.547719784623971e-15 0
  endloop
endfacet
facet normal 0 -0 1
  outer loop
    vertex -0.1100000000002128 -0.005450000000000001 0
    vertex -0.1050000000000651 -6.931823844430125e-14 0
    vertex -0.1150000000000078 -2.037094398323311e-14 0
  endloop
endfacet
facet normal 0 -0 1
  outer loop
    vertex -0.1800000000000461 -0.005450000000000001 0
    vertex -0.1750000000000043 -1.238287188670574e-15 0
    vertex -0.1850000000000318 -2.191389431027702e-14 0
  endloop
endfacet
facet normal 0 -0 1
  outer loop
    vertex -0.1300000000001559 -0.005450000000000001 0
    vertex -0.1250000000000464 -5.290655809335948e-14 0
    vertex -0.1350000000000003 -9.609364976078019e-15 0
  endloop
endfacet
facet normal 0 0 1
  outer loop
    vertex 0.0300000000004513 0.005450000000000001 0
    vertex 0.02500000000015384 1.386659930428282e-13 0
    vertex 0.03500000000015794 1.422332885703466e-13 0
  endloop
endfacet
facet normal 0 -0 1
  outer loop
    vertex -0.0300000000004513 -0.005450000000000001 0
    vertex -0.02500000000008422 -4.83868632034385e-14 0
    vertex -0.03500000000003468 -8.810731897146647e-15 0
  endloop
endfacet
facet normal 0 0 1
  outer loop
    vertex 0.05000000000038896 0.005450000000000001 0
    vertex 0.04500000000013189 1.20347502129043e-13 0
    vertex 0.05500000000002837 3.09405777115559e-14 0
  endloop
endfacet
facet normal 0 0 1
  outer loop
    vertex -0.1499999999998712 0.005450000000000001 0
    vertex -0.1599999999998905 0.005450000000000001 0
    vertex -0.1550000000000106 1.430251279120209e-14 0
  endloop
endfacet
facet normal 0 0 1
  outer loop
    vertex 0.1800000000000461 0.005450000000000001 0
    vertex 0.1700000000000745 0.005450000000000001 0
    vertex 0.1750000000000167 1.576118557342959e-14 0
  endloop
endfacet
facet normal 0 0 1
  outer loop
    vertex -0.1450000000000288 -4.748764401370649e-15 0
    vertex -0.1400000000001274 -0.005450000000000001 0
    vertex -0.1350000000000003 -9.609364976078019e-15 0
  endloop
endfacet
facet normal 0 0 1
  outer loop
    vertex 0.1099999999997509 -0.005450000000000001 0
    vertex 0.1199999999997874 -0.005450000000000001 0
    vertex 0.1150000000000235 2.0582500930304e-14 0
  endloop
endfacet
facet normal -0 0 1
  outer loop
    vertex -0.1050000000000651 -6.931823844430125e-14 0
    vertex -0.1000000000002412 -0.005450000000000001 0
    vertex -0.09500000000005063 -5.416883489272177e-14 0
  endloop
endfacet
facet normal 0 0 1
  outer loop
    vertex 0.09500000000007763 3.661342111727145e-15 0
    vertex 0.0900000000002697 0.005450000000000001 0
    vertex 0.08500000000005767 4.818765555718771e-14 0
  endloop
endfacet
facet normal -0 0 1
  outer loop
    vertex -0.1250000000000464 -5.290655809335948e-14 0
    vertex -0.1200000000001843 -0.005450000000000001 0
    vertex -0.1150000000000078 -2.037094398323311e-14 0
  endloop
endfacet
facet normal 0 0 1
  outer loop
    vertex 0.02500000000015384 1.386659930428282e-13 0
    vertex 0.02000000000047975 0.005450000000000001 0
    vertex 0.01500000000022088 1.9829872505042e-13 0
  endloop
endfacet
facet normal 0 0 1
  outer loop
    vertex 0.04500000000013189 1.20347502129043e-13 0
    vertex 0.04000000000042284 0.005450000000000001 0
    vertex 0.03500000000015794 1.422332885703466e-13 0
  endloop
endfacet
facet normal 0 0 1
  outer loop
    vertex -0.04500000000013188 -4.477528179441391e-15 0
    vertex -0.04000000000042284 -0.005450000000000001 0
    vertex -0.03500000000003468 -8.810731897146647e-15 0
  endloop
endfacet
facet normal 0 0 1
  outer loop
    vertex 0.1600000000000878 0.005450000000000001 0
    vertex 0.1500000000001044 0.005450000000000001 0
    vertex 0.1550000000000139 2.079470471586219e-14 0
  endloop
endfacet
facet normal 0 0 1
  outer loop
    vertex 0.1850000000000318 2.192430265113288e-14 0
    vertex 0.1800000000000461 0.005450000000000001 0
    vertex 0.1750000000000167 1.576118557342959e-14 0
  endloop
endfacet
facet normal 0 -0 1
  outer loop
    vertex 0.1699999999999162 -0.005450000000000001 0
    vertex 0.1750000000000167 1.576118557342959e-14 0
    vertex 0.1650000000000136 1.7711917488471e-14 0
  endloop
endfacet
facet normal 0 0 1
  outer loop
    vertex 0.1750000000000167 1.576118557342959e-14 0
    vertex 0.1700000000000745 0.005450000000000001 0
    vertex 0.1650000000000136 1.7711917488471e-14 0
  endloop
endfacet
facet normal 0 0 1
  outer loop
    vertex 0.1500000000001044 0.005450000000000001 0
    vertex 0.1400000000001274 0.005450000000000001 0
    vertex 0.1450000000000151 2.602538812940396e-14 0
  endloop
endfacet
facet normal 0 0 1
  outer loop
    vertex 0.1650000000000136 1.7711917488471e-14 0
    vertex 0.1600000000000878 0.005450000000000001 0
    vertex 0.1550000000000139 2.079470471586219e-14 0
  endloop
endfacet
facet normal 0 0 1
  outer loop
    vertex -0.1199999999997874 0.005450000000000001 0
    vertex -0.129999999999811 0.005450000000000001 0
    vertex -0.1250000000000464 -5.290655809335948e-14 0
  endloop
endfacet
facet normal 0 0 1
  outer loop
    vertex 0.1550000000000139 2.079470471586219e-14 0
    vertex 0.1500000000001044 0.005450000000000001 0
    vertex 0.1450000000000151 2.602538812940396e-14 0
  endloop
endfacet
facet normal 0 -0 1
  outer loop
    vertex 0.1799999999999506 -0.005450000000000001 0
    vertex 0.1850000000000318 2.192430265113288e-14 0
    vertex 0.1750000000000167 1.576118557342959e-14 0
  endloop
endfacet
facet normal 0 0 1
  outer loop
    vertex 0.1400000000001274 0.005450000000000001 0
    vertex 0.1300000000001559 0.005450000000000001 0
    vertex 0.1350000000000186 3.070295041570183e-14 0
  endloop
endfacet
facet normal 0 0 1
  outer loop
    vertex -0.1400000000001274 -0.005450000000000001 0
    vertex -0.1300000000001559 -0.005450000000000001 0
    vertex -0.1350000000000003 -9.609364976078019e-15 0
  endloop
endfacet
facet normal 0 0 1
  outer loop
    vertex -0.1399999999998324 0.005450000000000001 0
    vertex -0.1450000000000288 -4.748764401370649e-15 0
    vertex -0.1350000000000003 -9.609364976078019e-15 0
  endloop
endfacet
facet normal 0 -0 1
  outer loop
    vertex 0.08999999999971237 -0.005450000000000001 0
    vertex 0.09500000000007763 3.661342111727145e-15 0
    vertex 0.08500000000005767 4.818765555718771e-14 0
  endloop
endfacet
facet normal 0 0 1
  outer loop
    vertex -0.09999999999973158 0.005450000000000001 0
    vertex -0.1050000000000651 -6.931823844430125e-14 0
    vertex -0.09500000000005063 -5.416883489272177e-14 0
  endloop
endfacet
facet normal 0 0 1
  outer loop
    vertex 0.1450000000000151 2.602538812940396e-14 0
    vertex 0.1400000000001274 0.005450000000000001 0
    vertex 0.1350000000000186 3.070295041570183e-14 0
  endloop
endfacet
facet normal 0 0 1
  outer loop
    vertex -0.09999999999973158 0.005450000000000001 0
    vertex -0.1099999999997509 0.005450000000000001 0
    vertex -0.1050000000000651 -6.931823844430125e-14 0
  endloop
endfacet
facet normal 0 0 1
  outer loop
    vertex 0.09999999999973158 -0.005450000000000001 0
    vertex 0.1099999999997509 -0.005450000000000001 0
    vertex 0.1050000000000354 -3.469991086819697e-14 0
  endloop
endfacet
facet normal 0 0 1
  outer loop
    vertex 0.1300000000001559 0.005450000000000001 0
    vertex 0.1200000000001843 0.005450000000000001 0
    vertex 0.1249999999999968 8.547719784623971e-15 0
  endloop
endfacet
facet normal 0 0 1
  outer loop
    vertex -0.1199999999997874 0.005450000000000001 0
    vertex -0.1250000000000464 -5.290655809335948e-14 0
    vertex -0.1150000000000078 -2.037094398323311e-14 0
  endloop
endfacet
facet normal 0 -0 1
  outer loop
    vertex 0.01999999999951596 -0.005450000000000001 0
    vertex 0.02500000000015384 1.386659930428282e-13 0
    vertex 0.01500000000022088 1.9829872505042e-13 0
  endloop
endfacet
facet normal 0 0 1
  outer loop
    vertex 0.08999999999971237 -0.005450000000000001 0
    vertex 0.09999999999973158 -0.005450000000000001 0
    vertex 0.09500000000007763 3.661342111727145e-15 0
  endloop
endfacet
facet normal 0 0 1
  outer loop
    vertex -0.1050000000000651 -6.931823844430125e-14 0
    vertex -0.1099999999997509 0.005450000000000001 0
    vertex -0.1150000000000078 -2.037094398323311e-14 0
  endloop
endfacet
facet normal 0 0 1
  outer loop
    vertex -0.1750000000000043 -1.238287188670574e-15 0
    vertex -0.1799999999999506 0.005450000000000001 0
    vertex -0.1850000000000318 -2.191389431027702e-14 0
  endloop
endfacet
facet normal 0 0 1
  outer loop
    vertex -0.03999999999957288 0.005450000000000001 0
    vertex -0.04500000000013188 -4.477528179441391e-15 0
    vertex -0.03500000000003468 -8.810731897146647e-15 0
  endloop
endfacet
facet normal 0 -0 1
  outer loop
    vertex 0.03999999999957288 -0.005450000000000001 0
    vertex 0.04500000000013189 1.20347502129043e-13 0
    vertex 0.03500000000015794 1.422332885703466e-13 0
  endloop
endfacet
facet normal 0 0 1
  outer loop
    vertex -0.1550000000000106 1.430251279120209e-14 0
    vertex -0.1599999999998905 0.005450000000000001 0
    vertex -0.1650000000000066 1.448417117825357e-14 0
  endloop
endfacet
facet normal 0 0 1
  outer loop
    vertex -0.1250000000000464 -5.290655809335948e-14 0
    vertex -0.129999999999811 0.005450000000000001 0
    vertex -0.1350000000000003 -9.609364976078019e-15 0
  endloop
endfacet
facet normal 0 0 1
  outer loop
    vertex -0.1200000000001843 -0.005450000000000001 0
    vertex -0.1100000000002128 -0.005450000000000001 0
    vertex -0.1150000000000078 -2.037094398323311e-14 0
  endloop
endfacet
facet normal 0 0 1
  outer loop
    vertex 0.1150000000000235 2.0582500930304e-14 0
    vertex 0.1199999999997874 -0.005450000000000001 0
    vertex 0.1249999999999968 8.547719784623971e-15 0
  endloop
endfacet
facet normal 0 0 1
  outer loop
    vertex -0.05500000000007419 -5.229592349102772e-14 0
    vertex -0.0599999999996309 0.005450000000000001 0
    vertex -0.06500000000001613 -1.887995052538383e-14 0
  endloop
endfacet
facet normal 0 0 1
  outer loop
    vertex 0.1350000000000186 3.070295041570183e-14 0
    vertex 0.1300000000001559 0.005450000000000001 0
    vertex 0.1249999999999968 8.547719784623971e-15 0
  endloop
endfacet
facet normal 0 0 1
  outer loop
    vertex -0.02500000000008422 -4.83868632034385e-14 0
    vertex -0.02999999999954497 0.005450000000000001 0
    vertex -0.03500000000003468 -8.810731897146647e-15 0
  endloop
endfacet
facet normal -0 0 1
  outer loop
    vertex 0.02500000000015384 1.386659930428282e-13 0
    vertex 0.02999999999954497 -0.005450000000000001 0
    vertex 0.03500000000015794 1.422332885703466e-13 0
  endloop
endfacet
facet normal 0 0 1
  outer loop
    vertex -0.1650000000000066 1.448417117825357e-14 0
    vertex -0.1699999999999162 0.005450000000000001 0
    vertex -0.1750000000000043 -1.238287188670574e-15 0
  endloop
endfacet
facet normal 0 0 1
  outer loop
    vertex 0.04500000000013189 1.20347502129043e-13 0
    vertex 0.04999999999959756 -0.005450000000000001 0
    vertex 0.05500000000002837 3.09405777115559e-14 0
  endloop
endfacet
facet normal 0 0 1
  outer loop
    vertex -0.04999999999959756 0.005450000000000001 0
    vertex -0.0599999999996309 0.005450000000000001 0
    vertex -0.05500000000007419 -5.229592349102772e-14 0
  endloop
endfacet
facet normal 0 0 1
  outer loop
    vertex -0.1000000000002412 -0.005450000000000001 0
    vertex -0.0900000000002697 -0.005450000000000001 0
    vertex -0.09500000000005063 -5.416883489272177e-14 0
  endloop
endfacet
facet normal 0 0 1
  outer loop
    vertex -0.1450000000000288 -4.748764401370649e-15 0
    vertex -0.1499999999998712 0.005450000000000001 0
    vertex -0.1550000000000106 1.430251279120209e-14 0
  endloop
endfacet
facet normal 0 0 1
  outer loop
    vertex -0.0900000000002697 -0.005450000000000001 0
    vertex -0.08000000000029815 -0.005450000000000001 0
    vertex -0.08500000000005317 -5.660553256266486e-14 0
  endloop
endfacet
facet normal 0 0 1
  outer loop
    vertex 0.0900000000002697 0.005450000000000001 0
    vertex 0.08000000000029815 0.005450000000000001 0
    vertex 0.08500000000005767 4.818765555718771e-14 0
  endloop
endfacet
facet normal 0 0 1
  outer loop
    vertex 5.312417172831374e-13 0.005450000000000001 0
    vertex -0.009999999999492332 0.005450000000000001 0
    vertex -0.004999999999995799 1.553335605302691e-13 0
  endloop
endfacet
facet normal 0 0 1
  outer loop
    vertex 0.08000000000029815 0.005450000000000001 0
    vertex 0.07000000000032661 0.005450000000000001 0
    vertex 0.07500000000005855 5.958065560007283e-14 0
  endloop
endfacet
facet normal 0 0 1
  outer loop
    vertex -0.08000000000029815 -0.005450000000000001 0
    vertex -0.07000000000032661 -0.005450000000000001 0
    vertex -0.0750000000000578 -6.098377966127529e-14 0
  endloop
endfacet
facet normal 0 0 1
  outer loop
    vertex 0.07000000000032661 0.005450000000000001 0
    vertex 0.06000000000035507 0.005450000000000001 0
    vertex 0.06500000000006589 6.52950967785544e-14 0
  endloop
endfacet
facet normal 0 0 1
  outer loop
    vertex -0.07000000000032661 -0.005450000000000001 0
    vertex -0.06000000000035507 -0.005450000000000001 0
    vertex -0.06500000000001613 -1.887995052538383e-14 0
  endloop
endfacet
facet normal 0 0 1
  outer loop
    vertex -0.09500000000005063 -5.416883489272177e-14 0
    vertex -0.0900000000002697 -0.005450000000000001 0
    vertex -0.08500000000005317 -5.660553256266486e-14 0
  endloop
endfacet
facet normal 0 0 1
  outer loop
    vertex -0.03999999999957288 0.005450000000000001 0
    vertex -0.04999999999959756 0.005450000000000001 0
    vertex -0.04500000000013188 -4.477528179441391e-15 0
  endloop
endfacet
facet normal 0 0 1
  outer loop
    vertex 0.03999999999957288 -0.005450000000000001 0
    vertex 0.04999999999959756 -0.005450000000000001 0
    vertex 0.04500000000013189 1.20347502129043e-13 0
  endloop
endfacet
facet normal 0 0 1
  outer loop
    vertex -0.08500000000005317 -5.660553256266486e-14 0
    vertex -0.08000000000029815 -0.005450000000000001 0
    vertex -0.0750000000000578 -6.098377966127529e-14 0
  endloop
endfacet
facet normal 0 0 1
  outer loop
    vertex 0.08500000000005767 4.818765555718771e-14 0
    vertex 0.08000000000029815 0.005450000000000001 0
    vertex 0.07500000000005855 5.958065560007283e-14 0
  endloop
endfacet
facet normal 0 0 1
  outer loop
    vertex 0.06000000000035507 0.005450000000000001 0
    vertex 0.05000000000038896 0.005450000000000001 0
    vertex 0.05500000000002837 3.09405777115559e-14 0
  endloop
endfacet
facet normal 0 0 1
  outer loop
    vertex -0.01999999999951596 0.005450000000000001 0
    vertex -0.02999999999954497 0.005450000000000001 0
    vertex -0.02500000000008422 -4.83868632034385e-14 0
  endloop
endfacet
facet normal 0 0 1
  outer loop
    vertex 0.01999999999951596 -0.005450000000000001 0
    vertex 0.02999999999954497 -0.005450000000000001 0
    vertex 0.02500000000015384 1.386659930428282e-13 0
  endloop
endfacet
facet normal -0 0 1
  outer loop
    vertex -0.0750000000000578 -6.098377966127529e-14 0
    vertex -0.07000000000032661 -0.005450000000000001 0
    vertex -0.06500000000001613 -1.887995052538383e-14 0
  endloop
endfacet
facet normal 0 0 1
  outer loop
    vertex 0.07500000000005855 5.958065560007283e-14 0
    vertex 0.07000000000032661 0.005450000000000001 0
    vertex 0.06500000000006589 6.52950967785544e-14 0
  endloop
endfacet
facet normal 0 0 1
  outer loop
    vertex 0.06500000000006589 6.52950967785544e-14 0
    vertex 0.06000000000035507 0.005450000000000001 0
    vertex 0.05500000000002837 3.09405777115559e-14 0
  endloop
endfacet
facet normal -0 0 1
  outer loop
    vertex 0.1050000000000354 -3.469991086819697e-14 0
    vertex 0.1099999999997509 -0.005450000000000001 0
    vertex 0.1150000000000235 2.0582500930304e-14 0
  endloop
endfacet
facet normal 0 0 1
  outer loop
    vertex 0.04000000000042284 0.005450000000000001 0
    vertex 0.0300000000004513 0.005450000000000001 0
    vertex 0.03500000000015794 1.422332885703466e-13 0
  endloop
endfacet
facet normal 0 0 1
  outer loop
    vertex -0.04000000000042284 -0.005450000000000001 0
    vertex -0.0300000000004513 -0.005450000000000001 0
    vertex -0.03500000000003468 -8.810731897146647e-15 0
  endloop
endfacet
facet normal 0 0 1
  outer loop
    vertex -0.009999999999492332 0.005450000000000001 0
    vertex -0.01999999999951596 0.005450000000000001 0
    vertex -0.01500000000007626 9.957304112063571e-14 0
  endloop
endfacet
facet normal 0 0 1
  outer loop
    vertex 0.09500000000007763 3.661342111727145e-15 0
    vertex 0.09999999999973158 -0.005450000000000001 0
    vertex 0.1050000000000354 -3.469991086819697e-14 0
  endloop
endfacet
facet normal 0 0 1
  outer loop
    vertex 0.02000000000047975 0.005450000000000001 0
    vertex 0.01000000000050821 0.005450000000000001 0
    vertex 0.01500000000022088 1.9829872505042e-13 0
  endloop
endfacet
facet normal 0 0 1
  outer loop
    vertex 0.01000000000050821 0.005450000000000001 0
    vertex 5.312417172831374e-13 0.005450000000000001 0
    vertex 0.005000000000037604 5.893842514286886e-14 0
  endloop
endfacet
facet normal 0 0 1
  outer loop
    vertex 0.01500000000022088 1.9829872505042e-13 0
    vertex 0.01000000000050821 0.005450000000000001 0
    vertex 0.005000000000037604 5.893842514286886e-14 0
  endloop
endfacet
facet normal 0 0 1
  outer loop
    vertex -0.04500000000013188 -4.477528179441391e-15 0
    vertex -0.04999999999959756 0.005450000000000001 0
    vertex -0.05500000000007419 -5.229592349102772e-14 0
  endloop
endfacet
facet normal 0 0 1
  outer loop
    vertex -0.004999999999995799 1.553335605302691e-13 0
    vertex -0.009999999999492332 0.005450000000000001 0
    vertex -0.01500000000007626 9.957304112063571e-14 0
  endloop
endfacet
facet normal 0 0 1
  outer loop
    vertex -0.01500000000007626 9.957304112063571e-14 0
    vertex -0.01999999999951596 0.005450000000000001 0
    vertex -0.02500000000008422 -4.83868632034385e-14 0
  endloop
endfacet
facet normal 0 0 1
  outer loop
    vertex 0.1900000000000176 0.005450000000000001 0
    vertex 0.1850000000000318 2.192430265113288e-14 0
    vertex 0.1941666666666699 1.281816088457196e-15 0
  endloop
endfacet
facet normal 0 -0 1
  outer loop
    vertex -0.1900000000000176 -0.005450000000000001 0
    vertex -0.1850000000000318 -2.191389431027702e-14 0
    vertex -0.1941666666666699 -1.280225925270884e-15 0
  endloop
endfacet
facet normal 0 0 1
  outer loop
    vertex 0.1850000000000318 2.192430265113288e-14 0
    vertex 0.1899999999999699 -0.005450000000000001 0
    vertex 0.1941666666666699 1.281816088457196e-15 0
  endloop
endfacet
facet normal 0 0 1
  outer loop
    vertex -0.1850000000000318 -2.191389431027702e-14 0
    vertex -0.1899999999999699 0.005450000000000001 0
    vertex -0.1941666666666699 -1.280225925270884e-15 0
  endloop
endfacet
endsolid Created by Gmsh
