solid Created by Gmsh
facet normal 0 -2.22045e-14 1
  outer loop
    vertex -0.06999999999969581 0.005 0.64
    vertex -0.0799999999997329 0.005 0.64
    vertex -0.07500000000005042 -4.020746891105217e-14 0.6399999999999999
  endloop
endfacet
facet normal 0 -2.22045e-14 1
  outer loop
    vertex -0.1099999999997792 0.005 0.64
    vertex -0.1199999999998164 0.005 0.64
    vertex -0.1150000000000123 2.61961314908706e-14 0.6399999999999999
  endloop
endfacet
facet normal -0 2.22045e-14 1
  outer loop
    vertex 0.1099999999997792 -0.005 0.64
    vertex 0.1199999999998164 -0.005 0.64
    vertex 0.1150000000000073 1.639529454335069e-14 0.6399999999999999
  endloop
endfacet
facet normal -0 2.22045e-14 1
  outer loop
    vertex 0.06999999999969581 -0.005 0.64
    vertex 0.0799999999997329 -0.005 0.64
    vertex 0.07500000000005688 4.97086939475923e-14 0.6399999999999999
  endloop
endfacet
facet normal -0 2.22045e-14 1
  outer loop
    vertex 0.05999999999966296 -0.005 0.64
    vertex 0.06999999999969581 -0.005 0.64
    vertex 0.06500000000009769 1.026955666698691e-13 0.6399999999999999
  endloop
endfacet
facet normal 0 -2.22045e-14 1
  outer loop
    vertex 4.826417043801712e-13 0.005 0.64
    vertex -0.009999999999539627 0.005 0.64
    vertex -0.005000000000472808 4.826417043801712e-13 0.6399999999999999
  endloop
endfacet
facet normal 0 -2.22045e-14 1
  outer loop
    vertex -0.1499999999998893 0.005 0.64
    vertex -0.1599999999999224 0.005 0.64
    vertex -0.1550000000000078 -1.643158988472034e-14 0.6399999999999999
  endloop
endfacet
facet normal -0 2.22045e-14 1
  outer loop
    vertex 0.1499999999998893 -0.005 0.64
    vertex 0.1599999999999224 -0.005 0.64
    vertex 0.1550000000000136 4.831349440496216e-15 0.6399999999999999
  endloop
endfacet
facet normal -0 2.22045e-14 1
  outer loop
    vertex 0.179999999999967 -0.005 0.64
    vertex 0.19 -0.005 0.64
    vertex 0.1850000000000125 0 0.6399999999999999
  endloop
endfacet
facet normal 0 -2.22045e-14 1
  outer loop
    vertex -0.179999999999967 0.005 0.64
    vertex -0.19 0.005 0.64
    vertex -0.1850000000000125 2.900284179485624e-14 0.6399999999999999
  endloop
endfacet
facet normal 0 -2.22045e-14 1
  outer loop
    vertex -0.05999999999966296 0.005 0.64
    vertex -0.06999999999969581 0.005 0.64
    vertex -0.06500000000009125 -4.874862088074157e-15 0.6399999999999999
  endloop
endfacet
facet normal 0 -2.22045e-14 1
  outer loop
    vertex -0.1399999999998563 0.005 0.64
    vertex -0.1499999999998893 0.005 0.64
    vertex -0.1449999999999897 -4.613352189340612e-15 0.6399999999999999
  endloop
endfacet
facet normal -0 2.22045e-14 1
  outer loop
    vertex 0.1399999999998563 -0.005 0.64
    vertex 0.1499999999998893 -0.005 0.64
    vertex 0.1450000000000086 2.1345507344177e-14 0.6399999999999999
  endloop
endfacet
facet normal 0 -2.22045e-14 1
  outer loop
    vertex -0.1599999999999224 0.005 0.64
    vertex -0.1699999999999555 0.005 0.64
    vertex -0.1650000000000116 -3.929148672942431e-15 0.6399999999999999
  endloop
endfacet
facet normal -0 2.22045e-14 1
  outer loop
    vertex 0.1599999999999224 -0.005 0.64
    vertex 0.1699999999999555 -0.005 0.64
    vertex 0.1650000000000028 5.662595199742842e-15 0.6399999999999999
  endloop
endfacet
facet normal -0 2.22045e-14 1
  outer loop
    vertex 0.01999999999956589 -0.005 0.64
    vertex 0.02999999999959499 -0.005 0.64
    vertex 0.02500000000019158 1.873503684602177e-13 0.6399999999999999
  endloop
endfacet
facet normal 0 -2.22045e-14 1
  outer loop
    vertex -0.01999999999956589 0.005 0.64
    vertex -0.02999999999959499 0.005 0.64
    vertex -0.02500000000013704 -1.345053445005875e-13 0.6399999999999999
  endloop
endfacet
facet normal -0 2.22045e-14 1
  outer loop
    vertex 0.1199999999998164 -0.005 0.64
    vertex 0.1299999999998449 -0.005 0.64
    vertex 0.1249999999999893 7.117729928796153e-15 0.6399999999999999
  endloop
endfacet
facet normal -0 2.22045e-14 1
  outer loop
    vertex -4.826417043801712e-13 -0.005 0.64
    vertex 0.009999999999539627 -0.005 0.64
    vertex 0.005000000000472808 4.616728277448305e-13 0.6399999999999999
  endloop
endfacet
facet normal 0 -2.22045e-14 1
  outer loop
    vertex -0.1199999999998164 0.005 0.64
    vertex -0.1299999999998449 0.005 0.64
    vertex -0.1250000000000069 2.716838376570157e-14 0.6399999999999999
  endloop
endfacet
facet normal 0 -2.22045e-14 1
  outer loop
    vertex -0.009999999999539627 0.005 0.64
    vertex -0.01999999999956589 0.005 0.64
    vertex -0.01500000000010113 5.802272664659727e-14 0.6399999999999999
  endloop
endfacet
facet normal -0 2.22045e-14 1
  outer loop
    vertex 0.009999999999539627 -0.005 0.64
    vertex 0.01999999999956589 -0.005 0.64
    vertex 0.01500000000020607 2.004839643120362e-13 0.6399999999999999
  endloop
endfacet
facet normal 0 -2.22045e-14 1
  outer loop
    vertex -0.04999999999963958 0.005 0.64
    vertex -0.05999999999966296 0.005 0.64
    vertex -0.05500000000011174 -1.067639865679499e-13 0.6399999999999999
  endloop
endfacet
facet normal -0 2.22045e-14 1
  outer loop
    vertex 0.04999999999963958 -0.005 0.64
    vertex 0.05999999999966296 -0.005 0.64
    vertex 0.05500000000010084 1.074992236360355e-13 0.6399999999999999
  endloop
endfacet
facet normal -0 2.22045e-14 1
  outer loop
    vertex 0.03999999999961726 -0.005 0.64
    vertex 0.04999999999963958 -0.005 0.64
    vertex 0.04500000000015549 1.57835732595129e-13 0.6399999999999999
  endloop
endfacet
facet normal 0 -2.22045e-14 1
  outer loop
    vertex -0.02999999999959499 0.005 0.64
    vertex -0.03999999999961726 0.005 0.64
    vertex -0.03500000000013784 -1.372407001093825e-13 0.6399999999999999
  endloop
endfacet
facet normal -0 2.22045e-14 1
  outer loop
    vertex 0.02999999999959499 -0.005 0.64
    vertex 0.03999999999961726 -0.005 0.64
    vertex 0.035000000000176 1.741815304533034e-13 0.6399999999999999
  endloop
endfacet
facet normal 0 -2.22045e-14 1
  outer loop
    vertex -0.03999999999961726 0.005 0.64
    vertex -0.04999999999963958 0.005 0.64
    vertex -0.04500000000011301 -1.16479597957649e-13 0.6399999999999999
  endloop
endfacet
facet normal 0 -2.22045e-14 1
  outer loop
    vertex -0.09999999999975978 0.005 0.64
    vertex -0.1099999999997792 0.005 0.64
    vertex -0.1050000000000444 -4.325966668217163e-15 0.6399999999999999
  endloop
endfacet
facet normal -0 2.22045e-14 1
  outer loop
    vertex 0.09999999999975978 -0.005 0.64
    vertex 0.1099999999997792 -0.005 0.64
    vertex 0.1050000000000145 -3.815097029575224e-14 0.6399999999999999
  endloop
endfacet
facet normal 0 -2.22045e-14 1
  outer loop
    vertex -0.0799999999997329 0.005 0.64
    vertex -0.08999999999975228 0.005 0.64
    vertex -0.08500000000009629 -9.839944826231411e-14 0.6399999999999999
  endloop
endfacet
facet normal -0 2.22045e-14 1
  outer loop
    vertex 0.0799999999997329 -0.005 0.64
    vertex 0.08999999999975228 -0.005 0.64
    vertex 0.08500000000007502 4.31975057172819e-15 0.6399999999999999
  endloop
endfacet
facet normal -2.22045e-14 2.14336e-24 1
  outer loop
    vertex -4.826417043801712e-13 -0.005 0.64
    vertex 4.826417043801712e-13 0.005 0.64
    vertex -0.005000000000472808 4.826417043801712e-13 0.6399999999999999
  endloop
endfacet
facet normal 2.22045e-14 -2.14336e-24 1
  outer loop
    vertex 4.826417043801712e-13 0.005 0.64
    vertex -4.826417043801712e-13 -0.005 0.64
    vertex 0.005000000000472808 4.616728277448305e-13 0.6399999999999999
  endloop
endfacet
facet normal 0 -2.22045e-14 1
  outer loop
    vertex -0.1699999999999555 0.005 0.64
    vertex -0.179999999999967 0.005 0.64
    vertex -0.1750000000000018 4.178948853652301e-15 0.6399999999999999
  endloop
endfacet
facet normal 0 -2.22045e-14 1
  outer loop
    vertex -0.1299999999998449 0.005 0.64
    vertex -0.1399999999998563 0.005 0.64
    vertex -0.1350000000000033 -1.124852325132334e-14 0.6399999999999999
  endloop
endfacet
facet normal -0 2.22045e-14 1
  outer loop
    vertex 0.1299999999998449 -0.005 0.64
    vertex 0.1399999999998563 -0.005 0.64
    vertex 0.1350000000000099 2.631108502942624e-14 0.6399999999999999
  endloop
endfacet
facet normal -0 2.22045e-14 1
  outer loop
    vertex 0.1699999999999555 -0.005 0.64
    vertex 0.179999999999967 -0.005 0.64
    vertex 0.1750000000000004 9.43765866623807e-16 0.6399999999999999
  endloop
endfacet
facet normal -0 2.22045e-14 1
  outer loop
    vertex 0.08999999999975228 -0.005 0.64
    vertex 0.09999999999975978 -0.005 0.64
    vertex 0.09500000000003195 -3.580074123157584e-14 0.6399999999999999
  endloop
endfacet
facet normal 0 -2.22045e-14 1
  outer loop
    vertex -0.08999999999975228 0.005 0.64
    vertex -0.09999999999975978 0.005 0.64
    vertex -0.09500000000021155 -2.190600131846132e-13 0.6399999999999999
  endloop
endfacet
facet normal -2.22045e-14 0 1
  outer loop
    vertex 0.19 -0.005 0.64
    vertex 0.19 0.005 0.64
    vertex 0.1850000000000125 0 0.6399999999999999
  endloop
endfacet
facet normal 2.22045e-14 0 1
  outer loop
    vertex -0.19 0.005 0.64
    vertex -0.19 -0.005 0.64
    vertex -0.1850000000000125 2.900284179485624e-14 0.6399999999999999
  endloop
endfacet
facet normal -0 2.22045e-14 1
  outer loop
    vertex -0.01000000000046297 -0.005 0.64
    vertex -4.826417043801712e-13 -0.005 0.64
    vertex -0.005000000000472808 4.826417043801712e-13 0.6399999999999999
  endloop
endfacet
facet normal -0 2.22045e-14 1
  outer loop
    vertex -0.1400000000001031 -0.005 0.64
    vertex -0.1300000000001182 -0.005 0.64
    vertex -0.1350000000000033 -1.124852325132334e-14 0.6399999999999999
  endloop
endfacet
facet normal 0 -2.22045e-14 1
  outer loop
    vertex 0.1400000000001031 0.005 0.64
    vertex 0.1300000000001182 0.005 0.64
    vertex 0.1350000000000099 2.631108502942624e-14 0.6399999999999999
  endloop
endfacet
facet normal -0 2.22045e-14 1
  outer loop
    vertex -0.1800000000000251 -0.005 0.64
    vertex -0.1700000000000394 -0.005 0.64
    vertex -0.1750000000000018 4.178948853652301e-15 0.6399999999999999
  endloop
endfacet
facet normal 0 -2.22045e-14 1
  outer loop
    vertex 0.0300000000004019 0.005 0.64
    vertex 0.02000000000042843 0.005 0.64
    vertex 0.02500000000019158 1.873503684602177e-13 0.6399999999999999
  endloop
endfacet
facet normal 0 -2.22045e-14 1
  outer loop
    vertex 0.01000000000046297 0.005 0.64
    vertex 4.826417043801712e-13 0.005 0.64
    vertex 0.005000000000472808 4.616728277448305e-13 0.6399999999999999
  endloop
endfacet
facet normal -0 2.22045e-14 1
  outer loop
    vertex -0.0300000000004019 -0.005 0.64
    vertex -0.02000000000042843 -0.005 0.64
    vertex -0.02500000000013704 -1.345053445005875e-13 0.6399999999999999
  endloop
endfacet
facet normal 0 -2.22045e-14 1
  outer loop
    vertex 0.1800000000000251 0.005 0.64
    vertex 0.1700000000000394 0.005 0.64
    vertex 0.1750000000000004 9.43765866623807e-16 0.6399999999999999
  endloop
endfacet
facet normal 0 -2.22045e-14 1
  outer loop
    vertex 0.1700000000000394 0.005 0.64
    vertex 0.1600000000000537 0.005 0.64
    vertex 0.1650000000000028 5.662595199742842e-15 0.6399999999999999
  endloop
endfacet
facet normal -0 2.22045e-14 1
  outer loop
    vertex -0.1700000000000394 -0.005 0.64
    vertex -0.1600000000000537 -0.005 0.64
    vertex -0.1650000000000116 -3.929148672942431e-15 0.6399999999999999
  endloop
endfacet
facet normal 0 -2.22045e-14 1
  outer loop
    vertex 0.05000000000034169 0.005 0.64
    vertex 0.0400000000003688 0.005 0.64
    vertex 0.04500000000015549 1.57835732595129e-13 0.6399999999999999
  endloop
endfacet
facet normal -0 2.22045e-14 1
  outer loop
    vertex -0.05000000000034169 -0.005 0.64
    vertex -0.0400000000003688 -0.005 0.64
    vertex -0.04500000000011301 -1.16479597957649e-13 0.6399999999999999
  endloop
endfacet
facet normal 0 -2.22045e-14 1
  outer loop
    vertex 0.100000000000198 0.005 0.64
    vertex 0.09000000000022508 0.005 0.64
    vertex 0.09500000000003195 -3.580074123157584e-14 0.6399999999999999
  endloop
endfacet
facet normal -0 2.22045e-14 1
  outer loop
    vertex -0.100000000000198 -0.005 0.64
    vertex -0.09000000000022508 -0.005 0.64
    vertex -0.09500000000021155 -2.190600131846132e-13 0.6399999999999999
  endloop
endfacet
facet normal 0 -2.22045e-14 1
  outer loop
    vertex 0.0700000000002836 0.005 0.64
    vertex 0.06000000000030917 0.005 0.64
    vertex 0.06500000000009769 1.026955666698691e-13 0.6399999999999999
  endloop
endfacet
facet normal -9.42843e-25 2.22045e-14 1
  outer loop
    vertex -0.01000000000046297 -0.005 0.64
    vertex -0.005000000000472808 4.826417043801712e-13 0.6399999999999999
    vertex -0.01500000000010113 5.802272664659727e-14 0.6399999999999999
  endloop
endfacet
facet normal -0 2.22045e-14 1
  outer loop
    vertex -0.0800000000002576 -0.005 0.64
    vertex -0.0700000000002836 -0.005 0.64
    vertex -0.07500000000005042 -4.020746891105217e-14 0.6399999999999999
  endloop
endfacet
facet normal 0 -2.22045e-14 1
  outer loop
    vertex 0.1300000000001182 0.005 0.64
    vertex 0.1200000000001395 0.005 0.64
    vertex 0.1249999999999893 7.117729928796153e-15 0.6399999999999999
  endloop
endfacet
facet normal -0 2.22045e-14 1
  outer loop
    vertex -0.0700000000002836 -0.005 0.64
    vertex -0.06000000000030917 -0.005 0.64
    vertex -0.06500000000009125 -4.874862088074157e-15 0.6399999999999999
  endloop
endfacet
facet normal -0 2.22045e-14 1
  outer loop
    vertex -0.1300000000001182 -0.005 0.64
    vertex -0.1200000000001395 -0.005 0.64
    vertex -0.1250000000000069 2.716838376570157e-14 0.6399999999999999
  endloop
endfacet
facet normal 0 -2.22045e-14 1
  outer loop
    vertex 0.1200000000001395 0.005 0.64
    vertex 0.1100000000001654 0.005 0.64
    vertex 0.1150000000000073 1.639529454335069e-14 0.6399999999999999
  endloop
endfacet
facet normal -0 2.22045e-14 1
  outer loop
    vertex -0.1200000000001395 -0.005 0.64
    vertex -0.1100000000001654 -0.005 0.64
    vertex -0.1150000000000123 2.61961314908706e-14 0.6399999999999999
  endloop
endfacet
facet normal 0 -2.22045e-14 1
  outer loop
    vertex 0.0800000000002576 0.005 0.64
    vertex 0.0700000000002836 0.005 0.64
    vertex 0.07500000000005688 4.97086939475923e-14 0.6399999999999999
  endloop
endfacet
facet normal 1.80036e-26 2.22045e-14 1
  outer loop
    vertex -0.1700000000000394 -0.005 0.64
    vertex -0.1650000000000116 -3.929148672942431e-15 0.6399999999999999
    vertex -0.1750000000000018 4.178948853652301e-15 0.6399999999999999
  endloop
endfacet
facet normal 5.51201e-26 2.22045e-14 1
  outer loop
    vertex -0.1800000000000251 -0.005 0.64
    vertex -0.1750000000000018 4.178948853652301e-15 0.6399999999999999
    vertex -0.1850000000000125 2.900284179485624e-14 0.6399999999999999
  endloop
endfacet
facet normal 4.26178e-26 -2.22045e-14 1
  outer loop
    vertex 0.1350000000000099 2.631108502942624e-14 0.6399999999999999
    vertex 0.1300000000001182 0.005 0.64
    vertex 0.1249999999999893 7.117729928796153e-15 0.6399999999999999
  endloop
endfacet
facet normal -8.53033e-26 2.22045e-14 1
  outer loop
    vertex -0.1300000000001182 -0.005 0.64
    vertex -0.1250000000000069 2.716838376570157e-14 0.6399999999999999
    vertex -0.1350000000000033 -1.124852325132334e-14 0.6399999999999999
  endloop
endfacet
facet normal 1.47334e-26 2.22045e-14 1
  outer loop
    vertex -0.1400000000001031 -0.005 0.64
    vertex -0.1350000000000033 -1.124852325132334e-14 0.6399999999999999
    vertex -0.1449999999999897 -4.613352189340612e-15 0.6399999999999999
  endloop
endfacet
facet normal 0 -2.22045e-14 1
  outer loop
    vertex 0.1500000000000788 0.005 0.64
    vertex 0.1400000000001031 0.005 0.64
    vertex 0.1450000000000086 2.1345507344177e-14 0.6399999999999999
  endloop
endfacet
facet normal -0 2.22045e-14 1
  outer loop
    vertex -0.1500000000000788 -0.005 0.64
    vertex -0.1400000000001031 -0.005 0.64
    vertex -0.1449999999999897 -4.613352189340612e-15 0.6399999999999999
  endloop
endfacet
facet normal -1.10258e-26 -2.22045e-14 1
  outer loop
    vertex 0.1450000000000086 2.1345507344177e-14 0.6399999999999999
    vertex 0.1400000000001031 0.005 0.64
    vertex 0.1350000000000099 2.631108502942624e-14 0.6399999999999999
  endloop
endfacet
facet normal 0 -2.22045e-14 1
  outer loop
    vertex 0.19 0.005 0.64
    vertex 0.1800000000000251 0.005 0.64
    vertex 0.1850000000000125 0 0.6399999999999999
  endloop
endfacet
facet normal -0 2.22045e-14 1
  outer loop
    vertex -0.19 -0.005 0.64
    vertex -0.1800000000000251 -0.005 0.64
    vertex -0.1850000000000125 2.900284179485624e-14 0.6399999999999999
  endloop
endfacet
facet normal 0 -2.22045e-14 1
  outer loop
    vertex 0.1600000000000537 0.005 0.64
    vertex 0.1500000000000788 0.005 0.64
    vertex 0.1550000000000136 4.831349440496216e-15 0.6399999999999999
  endloop
endfacet
facet normal -0 2.22045e-14 1
  outer loop
    vertex -0.1600000000000537 -0.005 0.64
    vertex -0.1500000000000788 -0.005 0.64
    vertex -0.1550000000000078 -1.643158988472034e-14 0.6399999999999999
  endloop
endfacet
facet normal -1.0479e-26 -2.22045e-14 1
  outer loop
    vertex 0.1700000000000394 0.005 0.64
    vertex 0.1650000000000028 5.662595199742842e-15 0.6399999999999999
    vertex 0.1750000000000004 9.43765866623807e-16 0.6399999999999999
  endloop
endfacet
facet normal -2.09558e-27 -2.22045e-14 1
  outer loop
    vertex 0.1850000000000125 0 0.6399999999999999
    vertex 0.1800000000000251 0.005 0.64
    vertex 0.1750000000000004 9.43765866623807e-16 0.6399999999999999
  endloop
endfacet
facet normal 1.84697e-27 -2.22045e-14 1
  outer loop
    vertex 0.1600000000000537 0.005 0.64
    vertex 0.1550000000000136 4.831349440496216e-15 0.6399999999999999
    vertex 0.1650000000000028 5.662595199742842e-15 0.6399999999999999
  endloop
endfacet
facet normal 2.7761e-26 2.22045e-14 1
  outer loop
    vertex -0.1650000000000116 -3.929148672942431e-15 0.6399999999999999
    vertex -0.1600000000000537 -0.005 0.64
    vertex -0.1550000000000078 -1.643158988472034e-14 0.6399999999999999
  endloop
endfacet
facet normal 0 -2.22045e-14 1
  outer loop
    vertex 0.09000000000022508 0.005 0.64
    vertex 0.0800000000002576 0.005 0.64
    vertex 0.08500000000007502 4.31975057172819e-15 0.6399999999999999
  endloop
endfacet
facet normal 0 -2.22045e-14 1
  outer loop
    vertex 0.06000000000030917 0.005 0.64
    vertex 0.05000000000034169 0.005 0.64
    vertex 0.05500000000010084 1.074992236360355e-13 0.6399999999999999
  endloop
endfacet
facet normal -0 2.22045e-14 1
  outer loop
    vertex -0.09000000000022508 -0.005 0.64
    vertex -0.0800000000002576 -0.005 0.64
    vertex -0.08500000000009629 -9.839944826231411e-14 0.6399999999999999
  endloop
endfacet
facet normal -0 2.22045e-14 1
  outer loop
    vertex -0.06000000000030917 -0.005 0.64
    vertex -0.05000000000034169 -0.005 0.64
    vertex -0.05500000000011174 -1.067639865679499e-13 0.6399999999999999
  endloop
endfacet
facet normal -0 2.22045e-14 1
  outer loop
    vertex -0.1100000000001654 -0.005 0.64
    vertex -0.100000000000198 -0.005 0.64
    vertex -0.1050000000000444 -4.325966668217163e-15 0.6399999999999999
  endloop
endfacet
facet normal 0 -2.22045e-14 1
  outer loop
    vertex 0.1100000000001654 0.005 0.64
    vertex 0.100000000000198 0.005 0.64
    vertex 0.1050000000000145 -3.815097029575224e-14 0.6399999999999999
  endloop
endfacet
facet normal 0 -2.22045e-14 1
  outer loop
    vertex 0.0400000000003688 0.005 0.64
    vertex 0.0300000000004019 0.005 0.64
    vertex 0.035000000000176 1.741815304533034e-13 0.6399999999999999
  endloop
endfacet
facet normal -0 2.22045e-14 1
  outer loop
    vertex -0.0400000000003688 -0.005 0.64
    vertex -0.0300000000004019 -0.005 0.64
    vertex -0.03500000000013784 -1.372407001093825e-13 0.6399999999999999
  endloop
endfacet
facet normal 0 -2.22045e-14 1
  outer loop
    vertex 0.02000000000042843 0.005 0.64
    vertex 0.01000000000046297 0.005 0.64
    vertex 0.01500000000020607 2.004839643120362e-13 0.6399999999999999
  endloop
endfacet
facet normal -0 2.22045e-14 1
  outer loop
    vertex -0.02000000000042843 -0.005 0.64
    vertex -0.01000000000046297 -0.005 0.64
    vertex -0.01500000000010113 5.802272664659727e-14 0.6399999999999999
  endloop
endfacet
facet normal -2.05997e-26 -2.22045e-14 1
  outer loop
    vertex 0.1200000000001395 0.005 0.64
    vertex 0.1150000000000073 1.639529454335069e-14 0.6399999999999999
    vertex 0.1249999999999893 7.117729928796153e-15 0.6399999999999999
  endloop
endfacet
facet normal -5.79956e-25 -2.22045e-14 1
  outer loop
    vertex 0.01500000000020607 2.004839643120362e-13 0.6399999999999999
    vertex 0.01000000000046297 0.005 0.64
    vertex 0.005000000000472808 4.616728277448305e-13 0.6399999999999999
  endloop
endfacet
facet normal 2.15897e-27 2.22045e-14 1
  outer loop
    vertex -0.1200000000001395 -0.005 0.64
    vertex -0.1150000000000123 2.61961314908706e-14 0.6399999999999999
    vertex -0.1250000000000069 2.716838376570157e-14 0.6399999999999999
  endloop
endfacet
facet normal -1.06658e-26 -2.22045e-14 1
  outer loop
    vertex 0.06000000000030917 0.005 0.64
    vertex 0.05500000000010084 1.074992236360355e-13 0.6399999999999999
    vertex 0.06500000000009769 1.026955666698691e-13 0.6399999999999999
  endloop
endfacet
facet normal -1.17654e-25 -2.22045e-14 1
  outer loop
    vertex 0.07500000000005688 4.97086939475923e-14 0.6399999999999999
    vertex 0.0700000000002836 0.005 0.64
    vertex 0.06500000000009769 1.026955666698691e-13 0.6399999999999999
  endloop
endfacet
facet normal -7.84547e-26 2.22045e-14 1
  outer loop
    vertex -0.0700000000002836 -0.005 0.64
    vertex -0.06500000000009125 -4.874862088074157e-15 0.6399999999999999
    vertex -0.07500000000005042 -4.020746891105217e-14 0.6399999999999999
  endloop
endfacet
facet normal -2.92407e-26 -2.22045e-14 1
  outer loop
    vertex 0.035000000000176 1.741815304533034e-13 0.6399999999999999
    vertex 0.0300000000004019 0.005 0.64
    vertex 0.02500000000019158 1.873503684602177e-13 0.6399999999999999
  endloop
endfacet
facet normal -2.91624e-26 -2.22045e-14 1
  outer loop
    vertex 0.02500000000019158 1.873503684602177e-13 0.6399999999999999
    vertex 0.02000000000042843 0.005 0.64
    vertex 0.01500000000020607 2.004839643120362e-13 0.6399999999999999
  endloop
endfacet
facet normal -1.29213e-25 2.22045e-14 1
  outer loop
    vertex -0.0800000000002576 -0.005 0.64
    vertex -0.07500000000005042 -4.020746891105217e-14 0.6399999999999999
    vertex -0.08500000000009629 -9.839944826231411e-14 0.6399999999999999
  endloop
endfacet
facet normal -1.80036e-26 -2.22045e-14 1
  outer loop
    vertex -0.1650000000000116 -3.929148672942431e-15 0.6399999999999999
    vertex -0.1699999999999555 0.005 0.64
    vertex -0.1750000000000018 4.178948853652301e-15 0.6399999999999999
  endloop
endfacet
facet normal -6.07438e-27 2.22045e-14 1
  outer loop
    vertex -0.0300000000004019 -0.005 0.64
    vertex -0.02500000000013704 -1.345053445005875e-13 0.6399999999999999
    vertex -0.03500000000013784 -1.372407001093825e-13 0.6399999999999999
  endloop
endfacet
facet normal -4.27498e-25 2.22045e-14 1
  outer loop
    vertex -0.02500000000013704 -1.345053445005875e-13 0.6399999999999999
    vertex -0.02000000000042843 -0.005 0.64
    vertex -0.01500000000010113 5.802272664659727e-14 0.6399999999999999
  endloop
endfacet
facet normal -3.6295e-26 -2.22045e-14 1
  outer loop
    vertex 0.04500000000015549 1.57835732595129e-13 0.6399999999999999
    vertex 0.0400000000003688 0.005 0.64
    vertex 0.035000000000176 1.741815304533034e-13 0.6399999999999999
  endloop
endfacet
facet normal -2.62418e-26 2.22045e-14 1
  outer loop
    vertex -0.1550000000000078 -1.643158988472034e-14 0.6399999999999999
    vertex -0.1500000000000788 -0.005 0.64
    vertex -0.1449999999999897 -4.613352189340612e-15 0.6399999999999999
  endloop
endfacet
facet normal -1.1177e-25 -2.22045e-14 1
  outer loop
    vertex 0.05500000000010084 1.074992236360355e-13 0.6399999999999999
    vertex 0.05000000000034169 0.005 0.64
    vertex 0.04500000000015549 1.57835732595129e-13 0.6399999999999999
  endloop
endfacet
facet normal -8.90839e-26 -2.22045e-14 1
  outer loop
    vertex 0.09000000000022508 0.005 0.64
    vertex 0.08500000000007502 4.31975057172819e-15 0.6399999999999999
    vertex 0.09500000000003195 -3.580074123157584e-14 0.6399999999999999
  endloop
endfacet
facet normal -2.6792e-25 2.22045e-14 1
  outer loop
    vertex -0.09500000000021155 -2.190600131846132e-13 0.6399999999999999
    vertex -0.09000000000022508 -0.005 0.64
    vertex -0.08500000000009629 -9.839944826231411e-14 0.6399999999999999
  endloop
endfacet
facet normal -3.66688e-26 -2.22045e-14 1
  outer loop
    vertex 0.1550000000000136 4.831349440496216e-15 0.6399999999999999
    vertex 0.1500000000000788 0.005 0.64
    vertex 0.1450000000000086 2.1345507344177e-14 0.6399999999999999
  endloop
endfacet
facet normal 4.60989e-26 2.22045e-14 1
  outer loop
    vertex -0.04500000000011301 -1.16479597957649e-13 0.6399999999999999
    vertex -0.0400000000003688 -0.005 0.64
    vertex -0.03500000000013784 -1.372407001093825e-13 0.6399999999999999
  endloop
endfacet
facet normal 2.15743e-26 2.22045e-14 1
  outer loop
    vertex -0.05000000000034169 -0.005 0.64
    vertex -0.04500000000011301 -1.16479597957649e-13 0.6399999999999999
    vertex -0.05500000000011174 -1.067639865679499e-13 0.6399999999999999
  endloop
endfacet
facet normal 4.76805e-25 2.22045e-14 1
  outer loop
    vertex -0.1050000000000444 -4.325966668217163e-15 0.6399999999999999
    vertex -0.100000000000198 -0.005 0.64
    vertex -0.09500000000021155 -2.190600131846132e-13 0.6399999999999999
  endloop
endfacet
facet normal -5.21927e-27 -2.22045e-14 1
  outer loop
    vertex 0.100000000000198 0.005 0.64
    vertex 0.09500000000003195 -3.580074123157584e-14 0.6399999999999999
    vertex 0.1050000000000145 -3.815097029575224e-14 0.6399999999999999
  endloop
endfacet
facet normal 2.26239e-25 2.22045e-14 1
  outer loop
    vertex -0.06500000000009125 -4.874862088074157e-15 0.6399999999999999
    vertex -0.06000000000030917 -0.005 0.64
    vertex -0.05500000000011174 -1.067639865679499e-13 0.6399999999999999
  endloop
endfacet
facet normal 1.21116e-25 -2.22045e-14 1
  outer loop
    vertex 0.1100000000001654 0.005 0.64
    vertex 0.1050000000000145 -3.815097029575224e-14 0.6399999999999999
    vertex 0.1150000000000073 1.639529454335069e-14 0.6399999999999999
  endloop
endfacet
facet normal 6.77715e-26 2.22045e-14 1
  outer loop
    vertex -0.1100000000001654 -0.005 0.64
    vertex -0.1050000000000444 -4.325966668217163e-15 0.6399999999999999
    vertex -0.1150000000000123 2.61961314908706e-14 0.6399999999999999
  endloop
endfacet
facet normal -1.00784e-25 -2.22045e-14 1
  outer loop
    vertex 0.08500000000007502 4.31975057172819e-15 0.6399999999999999
    vertex 0.0800000000002576 0.005 0.64
    vertex 0.07500000000005688 4.97086939475923e-14 0.6399999999999999
  endloop
endfacet
facet normal 1.04779e-26 2.22045e-14 1
  outer loop
    vertex 0.1650000000000028 5.662595199742842e-15 0.6399999999999999
    vertex 0.1699999999999555 -0.005 0.64
    vertex 0.1750000000000004 9.43765866623807e-16 0.6399999999999999
  endloop
endfacet
facet normal -4.26189e-26 2.22045e-14 1
  outer loop
    vertex 0.1299999999998449 -0.005 0.64
    vertex 0.1350000000000099 2.631108502942624e-14 0.6399999999999999
    vertex 0.1249999999999893 7.117729928796153e-15 0.6399999999999999
  endloop
endfacet
facet normal 8.53027e-26 -2.22045e-14 1
  outer loop
    vertex -0.1250000000000069 2.716838376570157e-14 0.6399999999999999
    vertex -0.1299999999998449 0.005 0.64
    vertex -0.1350000000000033 -1.124852325132334e-14 0.6399999999999999
  endloop
endfacet
facet normal -5.51201e-26 -2.22045e-14 1
  outer loop
    vertex -0.1750000000000018 4.178948853652301e-15 0.6399999999999999
    vertex -0.179999999999967 0.005 0.64
    vertex -0.1850000000000125 2.900284179485624e-14 0.6399999999999999
  endloop
endfacet
facet normal -1.4733e-26 -2.22045e-14 1
  outer loop
    vertex -0.1350000000000033 -1.124852325132334e-14 0.6399999999999999
    vertex -0.1399999999998563 0.005 0.64
    vertex -0.1449999999999897 -4.613352189340612e-15 0.6399999999999999
  endloop
endfacet
facet normal 1.10259e-26 2.22045e-14 1
  outer loop
    vertex 0.1399999999998563 -0.005 0.64
    vertex 0.1450000000000086 2.1345507344177e-14 0.6399999999999999
    vertex 0.1350000000000099 2.631108502942624e-14 0.6399999999999999
  endloop
endfacet
facet normal 9.42844e-25 -2.22045e-14 1
  outer loop
    vertex -0.005000000000472808 4.826417043801712e-13 0.6399999999999999
    vertex -0.009999999999539627 0.005 0.64
    vertex -0.01500000000010113 5.802272664659727e-14 0.6399999999999999
  endloop
endfacet
facet normal 2.09541e-27 2.22045e-14 1
  outer loop
    vertex 0.179999999999967 -0.005 0.64
    vertex 0.1850000000000125 0 0.6399999999999999
    vertex 0.1750000000000004 9.43765866623807e-16 0.6399999999999999
  endloop
endfacet
facet normal -2.77604e-26 -2.22045e-14 1
  outer loop
    vertex -0.1599999999999224 0.005 0.64
    vertex -0.1650000000000116 -3.929148672942431e-15 0.6399999999999999
    vertex -0.1550000000000078 -1.643158988472034e-14 0.6399999999999999
  endloop
endfacet
facet normal -1.84574e-27 2.22045e-14 1
  outer loop
    vertex 0.1550000000000136 4.831349440496216e-15 0.6399999999999999
    vertex 0.1599999999999224 -0.005 0.64
    vertex 0.1650000000000028 5.662595199742842e-15 0.6399999999999999
  endloop
endfacet
facet normal 2.06003e-26 2.22045e-14 1
  outer loop
    vertex 0.1150000000000073 1.639529454335069e-14 0.6399999999999999
    vertex 0.1199999999998164 -0.005 0.64
    vertex 0.1249999999999893 7.117729928796153e-15 0.6399999999999999
  endloop
endfacet
facet normal -2.15883e-27 -2.22045e-14 1
  outer loop
    vertex -0.1150000000000123 2.61961314908706e-14 0.6399999999999999
    vertex -0.1199999999998164 0.005 0.64
    vertex -0.1250000000000069 2.716838376570157e-14 0.6399999999999999
  endloop
endfacet
facet normal 1.17655e-25 2.22045e-14 1
  outer loop
    vertex 0.06999999999969581 -0.005 0.64
    vertex 0.07500000000005688 4.97086939475923e-14 0.6399999999999999
    vertex 0.06500000000009769 1.026955666698691e-13 0.6399999999999999
  endloop
endfacet
facet normal 7.84541e-26 -2.22045e-14 1
  outer loop
    vertex -0.06500000000009125 -4.874862088074157e-15 0.6399999999999999
    vertex -0.06999999999969581 0.005 0.64
    vertex -0.07500000000005042 -4.020746891105217e-14 0.6399999999999999
  endloop
endfacet
facet normal 2.62408e-26 -2.22045e-14 1
  outer loop
    vertex -0.1499999999998893 0.005 0.64
    vertex -0.1550000000000078 -1.643158988472034e-14 0.6399999999999999
    vertex -0.1449999999999897 -4.613352189340612e-15 0.6399999999999999
  endloop
endfacet
facet normal 3.66697e-26 2.22045e-14 1
  outer loop
    vertex 0.1499999999998893 -0.005 0.64
    vertex 0.1550000000000136 4.831349440496216e-15 0.6399999999999999
    vertex 0.1450000000000086 2.1345507344177e-14 0.6399999999999999
  endloop
endfacet
facet normal 5.79957e-25 2.22045e-14 1
  outer loop
    vertex 0.009999999999539627 -0.005 0.64
    vertex 0.01500000000020607 2.004839643120362e-13 0.6399999999999999
    vertex 0.005000000000472808 4.616728277448305e-13 0.6399999999999999
  endloop
endfacet
facet normal 1.06663e-26 2.22045e-14 1
  outer loop
    vertex 0.05500000000010084 1.074992236360355e-13 0.6399999999999999
    vertex 0.05999999999966296 -0.005 0.64
    vertex 0.06500000000009769 1.026955666698691e-13 0.6399999999999999
  endloop
endfacet
facet normal 1.29212e-25 -2.22045e-14 1
  outer loop
    vertex -0.07500000000005042 -4.020746891105217e-14 0.6399999999999999
    vertex -0.0799999999997329 0.005 0.64
    vertex -0.08500000000009629 -9.839944826231411e-14 0.6399999999999999
  endloop
endfacet
facet normal 2.92395e-26 2.22045e-14 1
  outer loop
    vertex 0.02999999999959499 -0.005 0.64
    vertex 0.035000000000176 1.741815304533034e-13 0.6399999999999999
    vertex 0.02500000000019158 1.873503684602177e-13 0.6399999999999999
  endloop
endfacet
facet normal 6.07371e-27 -2.22045e-14 1
  outer loop
    vertex -0.02500000000013704 -1.345053445005875e-13 0.6399999999999999
    vertex -0.02999999999959499 0.005 0.64
    vertex -0.03500000000013784 -1.372407001093825e-13 0.6399999999999999
  endloop
endfacet
facet normal 1.11769e-25 2.22045e-14 1
  outer loop
    vertex 0.04999999999963958 -0.005 0.64
    vertex 0.05500000000010084 1.074992236360355e-13 0.6399999999999999
    vertex 0.04500000000015549 1.57835732595129e-13 0.6399999999999999
  endloop
endfacet
facet normal 8.90854e-26 2.22045e-14 1
  outer loop
    vertex 0.08500000000007502 4.31975057172819e-15 0.6399999999999999
    vertex 0.08999999999975228 -0.005 0.64
    vertex 0.09500000000003195 -3.580074123157584e-14 0.6399999999999999
  endloop
endfacet
facet normal 2.6792e-25 -2.22045e-14 1
  outer loop
    vertex -0.08999999999975228 0.005 0.64
    vertex -0.09500000000021155 -2.190600131846132e-13 0.6399999999999999
    vertex -0.08500000000009629 -9.839944826231411e-14 0.6399999999999999
  endloop
endfacet
facet normal -2.1573e-26 -2.22045e-14 1
  outer loop
    vertex -0.04500000000011301 -1.16479597957649e-13 0.6399999999999999
    vertex -0.04999999999963958 0.005 0.64
    vertex -0.05500000000011174 -1.067639865679499e-13 0.6399999999999999
  endloop
endfacet
facet normal 2.91624e-26 2.22045e-14 1
  outer loop
    vertex 0.01999999999956589 -0.005 0.64
    vertex 0.02500000000019158 1.873503684602177e-13 0.6399999999999999
    vertex 0.01500000000020607 2.004839643120362e-13 0.6399999999999999
  endloop
endfacet
facet normal 5.21856e-27 2.22045e-14 1
  outer loop
    vertex 0.09500000000003195 -3.580074123157584e-14 0.6399999999999999
    vertex 0.09999999999975978 -0.005 0.64
    vertex 0.1050000000000145 -3.815097029575224e-14 0.6399999999999999
  endloop
endfacet
facet normal -4.76806e-25 -2.22045e-14 1
  outer loop
    vertex -0.09999999999975978 0.005 0.64
    vertex -0.1050000000000444 -4.325966668217163e-15 0.6399999999999999
    vertex -0.09500000000021155 -2.190600131846132e-13 0.6399999999999999
  endloop
endfacet
facet normal 3.62961e-26 2.22045e-14 1
  outer loop
    vertex 0.03999999999961726 -0.005 0.64
    vertex 0.04500000000015549 1.57835732595129e-13 0.6399999999999999
    vertex 0.035000000000176 1.741815304533034e-13 0.6399999999999999
  endloop
endfacet
facet normal -4.60991e-26 -2.22045e-14 1
  outer loop
    vertex -0.03999999999961726 0.005 0.64
    vertex -0.04500000000011301 -1.16479597957649e-13 0.6399999999999999
    vertex -0.03500000000013784 -1.372407001093825e-13 0.6399999999999999
  endloop
endfacet
facet normal -2.26239e-25 -2.22045e-14 1
  outer loop
    vertex -0.05999999999966296 0.005 0.64
    vertex -0.06500000000009125 -4.874862088074157e-15 0.6399999999999999
    vertex -0.05500000000011174 -1.067639865679499e-13 0.6399999999999999
  endloop
endfacet
facet normal 4.27499e-25 -2.22045e-14 1
  outer loop
    vertex -0.01999999999956589 0.005 0.64
    vertex -0.02500000000013704 -1.345053445005875e-13 0.6399999999999999
    vertex -0.01500000000010113 5.802272664659727e-14 0.6399999999999999
  endloop
endfacet
facet normal -6.77727e-26 -2.22045e-14 1
  outer loop
    vertex -0.1050000000000444 -4.325966668217163e-15 0.6399999999999999
    vertex -0.1099999999997792 0.005 0.64
    vertex -0.1150000000000123 2.61961314908706e-14 0.6399999999999999
  endloop
endfacet
facet normal -1.21117e-25 2.22045e-14 1
  outer loop
    vertex 0.1050000000000145 -3.815097029575224e-14 0.6399999999999999
    vertex 0.1099999999997792 -0.005 0.64
    vertex 0.1150000000000073 1.639529454335069e-14 0.6399999999999999
  endloop
endfacet
facet normal 1.00784e-25 2.22045e-14 1
  outer loop
    vertex 0.0799999999997329 -0.005 0.64
    vertex 0.08500000000007502 4.31975057172819e-15 0.6399999999999999
    vertex 0.07500000000005688 4.97086939475923e-14 0.6399999999999999
  endloop
endfacet
endsolid Created by Gmsh
