solid Created by Gmsh
facet normal 0 0 1
  outer loop
    vertex 0.002000000000045196 0.00198589838487228 0
    vertex -0.002000000000045196 -0.00198589838487228 0
    vertex 0.001999999999974521 -0.002577179676970795 0
  endloop
endfacet
facet normal 0 0 1
  outer loop
    vertex -0.002000000000045196 -0.00198589838487228 0
    vertex 0.002000000000045196 0.00198589838487228 0
    vertex -0.001999999999974522 0.002577179676970795 0
  endloop
endfacet
facet normal 0 -0 1
  outer loop
    vertex 0.005999999999964356 -0.001985898384853971 0
    vertex 0.009981820753930441 0.00180042722880409 0
    vertex 0.005999053558646644 0.002141340414622767 0
  endloop
endfacet
facet normal 0 0 1
  outer loop
    vertex -0.005999999999964356 0.001985898384853971 0
    vertex -0.009981820753930441 -0.00180042722880409 0
    vertex -0.005999053558646644 -0.002141340414622767 0
  endloop
endfacet
facet normal 0 0 1
  outer loop
    vertex 0.009981820753930441 0.00180042722880409 0
    vertex 0.005999999999964356 -0.001985898384853971 0
    vertex 0.009947517825752837 -0.002642592335620376 0
  endloop
endfacet
facet normal 0 0 1
  outer loop
    vertex -0.009981820753930441 -0.00180042722880409 0
    vertex -0.005999999999964356 0.001985898384853971 0
    vertex -0.009947517825752837 0.002642592335620376 0
  endloop
endfacet
facet normal -0 0 1
  outer loop
    vertex 0.002000000000045196 0.00198589838487228 0
    vertex 0.005999999999964356 -0.001985898384853971 0
    vertex 0.005999053558646644 0.002141340414622767 0
  endloop
endfacet
facet normal 0 0 1
  outer loop
    vertex 0.005999999999964356 -0.001985898384853971 0
    vertex 0.002000000000045196 0.00198589838487228 0
    vertex 0.001999999999974521 -0.002577179676970795 0
  endloop
endfacet
facet normal 0 0 1
  outer loop
    vertex -0.002000000000045196 -0.00198589838487228 0
    vertex -0.005999999999964356 0.001985898384853971 0
    vertex -0.005999053558646644 -0.002141340414622767 0
  endloop
endfacet
facet normal -0 0 1
  outer loop
    vertex -0.005999999999964356 0.001985898384853971 0
    vertex -0.002000000000045196 -0.00198589838487228 0
    vertex -0.001999999999974522 0.002577179676970795 0
  endloop
endfacet
facet normal 0 0 1
  outer loop
    vertex -0.0141551097904644 -0.002207102056878174 0
    vertex -0.009981820753930441 -0.00180042722880409 0
    vertex -0.01375576837492089 0.002127490522051999 0
  endloop
endfacet
facet normal 0 0 1
  outer loop
    vertex 0.0141551097904644 0.002207102056878174 0
    vertex 0.009981820753930441 0.00180042722880409 0
    vertex 0.01375576837492089 -0.002127490522051999 0
  endloop
endfacet
facet normal 0 -0 1
  outer loop
    vertex -0.009981820753930441 -0.00180042722880409 0
    vertex -0.009947517825752837 0.002642592335620376 0
    vertex -0.01375576837492089 0.002127490522051999 0
  endloop
endfacet
facet normal 0 0 1
  outer loop
    vertex 0.009981820753930441 0.00180042722880409 0
    vertex 0.009947517825752837 -0.002642592335620376 0
    vertex 0.01375576837492089 -0.002127490522051999 0
  endloop
endfacet
facet normal 0 0 1
  outer loop
    vertex 0.003999999999959071 -0.005450000000000001 0
    vertex 0.007999999999969639 -0.005450000000000001 0
    vertex 0.005999999999964356 -0.001985898384853971 0
  endloop
endfacet
facet normal 0 0 1
  outer loop
    vertex -0.003999999999959071 0.005450000000000001 0
    vertex -0.007999999999969639 0.005450000000000001 0
    vertex -0.005999999999964356 0.001985898384853971 0
  endloop
endfacet
facet normal 0 0 1
  outer loop
    vertex 0.004000000000039573 0.005450000000000001 0
    vertex 5.082045895221654e-14 0.005450000000000001 0
    vertex 0.002000000000045196 0.00198589838487228 0
  endloop
endfacet
facet normal 0 0 1
  outer loop
    vertex -0.004000000000039573 -0.005450000000000001 0
    vertex -5.082045895221654e-14 -0.005450000000000001 0
    vertex -0.002000000000045196 -0.00198589838487228 0
  endloop
endfacet
facet normal 0 0 1
  outer loop
    vertex 0.01200000000001572 0.005450000000000001 0
    vertex 0.00800000000002765 0.005450000000000001 0
    vertex 0.009981820753930441 0.00180042722880409 0
  endloop
endfacet
facet normal 0 0 1
  outer loop
    vertex -0.01200000000001572 -0.005450000000000001 0
    vertex -0.00800000000002765 -0.005450000000000001 0
    vertex -0.009981820753930441 -0.00180042722880409 0
  endloop
endfacet
facet normal -0 0 1
  outer loop
    vertex -0.01685344103292052 9.098202898930209e-15 0
    vertex -0.0141551097904644 -0.002207102056878174 0
    vertex -0.01375576837492089 0.002127490522051999 0
  endloop
endfacet
facet normal 0 0 1
  outer loop
    vertex 0.01685344103292052 -9.098202898908973e-15 0
    vertex 0.0141551097904644 0.002207102056878174 0
    vertex 0.01375576837492089 -0.002127490522051999 0
  endloop
endfacet
facet normal 0 -0 1
  outer loop
    vertex 0.003999999999959071 -0.005450000000000001 0
    vertex 0.005999999999964356 -0.001985898384853971 0
    vertex 0.001999999999974521 -0.002577179676970795 0
  endloop
endfacet
facet normal 0 0 1
  outer loop
    vertex 0.002000000000045196 0.00198589838487228 0
    vertex 5.082045895221654e-14 0.005450000000000001 0
    vertex -0.001999999999974522 0.002577179676970795 0
  endloop
endfacet
facet normal 0 0 1
  outer loop
    vertex -0.002000000000045196 -0.00198589838487228 0
    vertex -5.082045895221654e-14 -0.005450000000000001 0
    vertex 0.001999999999974521 -0.002577179676970795 0
  endloop
endfacet
facet normal 0 0 1
  outer loop
    vertex -0.003999999999959071 0.005450000000000001 0
    vertex -0.005999999999964356 0.001985898384853971 0
    vertex -0.001999999999974522 0.002577179676970795 0
  endloop
endfacet
facet normal 0 0 1
  outer loop
    vertex 0.005999999999964356 -0.001985898384853971 0
    vertex 0.007999999999969639 -0.005450000000000001 0
    vertex 0.009947517825752837 -0.002642592335620376 0
  endloop
endfacet
facet normal 0 0 1
  outer loop
    vertex -0.005999999999964356 0.001985898384853971 0
    vertex -0.007999999999969639 0.005450000000000001 0
    vertex -0.009947517825752837 0.002642592335620376 0
  endloop
endfacet
facet normal 0 0 1
  outer loop
    vertex 0.004000000000039573 0.005450000000000001 0
    vertex 0.002000000000045196 0.00198589838487228 0
    vertex 0.005999053558646644 0.002141340414622767 0
  endloop
endfacet
facet normal 0 -0 1
  outer loop
    vertex -0.004000000000039573 -0.005450000000000001 0
    vertex -0.002000000000045196 -0.00198589838487228 0
    vertex -0.005999053558646644 -0.002141340414622767 0
  endloop
endfacet
facet normal 0 0 1
  outer loop
    vertex 0.009981820753930441 0.00180042722880409 0
    vertex 0.00800000000002765 0.005450000000000001 0
    vertex 0.005999053558646644 0.002141340414622767 0
  endloop
endfacet
facet normal 0 0 1
  outer loop
    vertex -0.009981820753930441 -0.00180042722880409 0
    vertex -0.00800000000002765 -0.005450000000000001 0
    vertex -0.005999053558646644 -0.002141340414622767 0
  endloop
endfacet
facet normal 0 0 1
  outer loop
    vertex -5.082045895221654e-14 -0.005450000000000001 0
    vertex 0.003999999999959071 -0.005450000000000001 0
    vertex 0.001999999999974521 -0.002577179676970795 0
  endloop
endfacet
facet normal 0 0 1
  outer loop
    vertex 5.082045895221654e-14 0.005450000000000001 0
    vertex -0.003999999999959071 0.005450000000000001 0
    vertex -0.001999999999974522 0.002577179676970795 0
  endloop
endfacet
facet normal 0 0 1
  outer loop
    vertex 0.00800000000002765 0.005450000000000001 0
    vertex 0.004000000000039573 0.005450000000000001 0
    vertex 0.005999053558646644 0.002141340414622767 0
  endloop
endfacet
facet normal 0 0 1
  outer loop
    vertex -0.00800000000002765 -0.005450000000000001 0
    vertex -0.004000000000039573 -0.005450000000000001 0
    vertex -0.005999053558646644 -0.002141340414622767 0
  endloop
endfacet
facet normal 0 0 1
  outer loop
    vertex -0.007999999999969639 0.005450000000000001 0
    vertex -0.01199999999997886 0.005450000000000001 0
    vertex -0.009947517825752837 0.002642592335620376 0
  endloop
endfacet
facet normal 0 0 1
  outer loop
    vertex 0.007999999999969639 -0.005450000000000001 0
    vertex 0.01199999999997886 -0.005450000000000001 0
    vertex 0.009947517825752837 -0.002642592335620376 0
  endloop
endfacet
facet normal 0 0 1
  outer loop
    vertex -0.01600000000000596 -0.005450000000000001 0
    vertex -0.01200000000001572 -0.005450000000000001 0
    vertex -0.0141551097904644 -0.002207102056878174 0
  endloop
endfacet
facet normal 0 0 1
  outer loop
    vertex 0.01600000000000596 0.005450000000000001 0
    vertex 0.01200000000001572 0.005450000000000001 0
    vertex 0.0141551097904644 0.002207102056878174 0
  endloop
endfacet
facet normal 0 0 1
  outer loop
    vertex -0.01199999999997886 0.005450000000000001 0
    vertex -0.01599999999999024 0.005450000000000001 0
    vertex -0.01375576837492089 0.002127490522051999 0
  endloop
endfacet
facet normal 0 0 1
  outer loop
    vertex 0.01199999999997886 -0.005450000000000001 0
    vertex 0.01599999999999024 -0.005450000000000001 0
    vertex 0.01375576837492089 -0.002127490522051999 0
  endloop
endfacet
facet normal 0 0 1
  outer loop
    vertex -0.02 0.001816666666675674 0
    vertex -0.02 -0.001816666666657476 0
    vertex -0.01685344103292052 9.098202898930209e-15 0
  endloop
endfacet
facet normal 0 -0 1
  outer loop
    vertex 0.02 -0.001816666666675674 0
    vertex 0.02 0.001816666666657476 0
    vertex 0.01685344103292052 -9.098202898908973e-15 0
  endloop
endfacet
facet normal 0 -0 1
  outer loop
    vertex -0.01200000000001572 -0.005450000000000001 0
    vertex -0.009981820753930441 -0.00180042722880409 0
    vertex -0.0141551097904644 -0.002207102056878174 0
  endloop
endfacet
facet normal 0 0 1
  outer loop
    vertex 0.01200000000001572 0.005450000000000001 0
    vertex 0.009981820753930441 0.00180042722880409 0
    vertex 0.0141551097904644 0.002207102056878174 0
  endloop
endfacet
facet normal 0 0 1
  outer loop
    vertex -0.009947517825752837 0.002642592335620376 0
    vertex -0.01199999999997886 0.005450000000000001 0
    vertex -0.01375576837492089 0.002127490522051999 0
  endloop
endfacet
facet normal -0 0 1
  outer loop
    vertex 0.009947517825752837 -0.002642592335620376 0
    vertex 0.01199999999997886 -0.005450000000000001 0
    vertex 0.01375576837492089 -0.002127490522051999 0
  endloop
endfacet
facet normal 0 0 1
  outer loop
    vertex -0.01599999999999024 0.005450000000000001 0
    vertex -0.02 0.005450000000000001 0
    vertex -0.01729900435956657 0.002861595013596189 0
  endloop
endfacet
facet normal 0 0 1
  outer loop
    vertex 0.01599999999999024 -0.005450000000000001 0
    vertex 0.02 -0.005450000000000001 0
    vertex 0.01729900435956657 -0.002861595013596189 0
  endloop
endfacet
facet normal 0 0 1
  outer loop
    vertex -0.02 -0.005450000000000001 0
    vertex -0.01600000000000596 -0.005450000000000001 0
    vertex -0.01729900435956399 -0.002861595013582482 0
  endloop
endfacet
facet normal 0 0 1
  outer loop
    vertex 0.02 0.005450000000000001 0
    vertex 0.01600000000000596 0.005450000000000001 0
    vertex 0.01729900435956399 0.002861595013582482 0
  endloop
endfacet
facet normal 0 0 1
  outer loop
    vertex -0.02 -0.001816666666657476 0
    vertex -0.02 -0.005450000000000001 0
    vertex -0.01729900435956399 -0.002861595013582482 0
  endloop
endfacet
facet normal 0 -0 1
  outer loop
    vertex 0.02 0.001816666666657476 0
    vertex 0.02 0.005450000000000001 0
    vertex 0.01729900435956399 0.002861595013582482 0
  endloop
endfacet
facet normal 0 0 1
  outer loop
    vertex -0.02 0.005450000000000001 0
    vertex -0.02 0.001816666666675674 0
    vertex -0.01729900435956657 0.002861595013596189 0
  endloop
endfacet
facet normal 0 -0 1
  outer loop
    vertex 0.02 -0.005450000000000001 0
    vertex 0.02 -0.001816666666675674 0
    vertex 0.01729900435956657 -0.002861595013596189 0
  endloop
endfacet
facet normal 0 -0 1
  outer loop
    vertex -0.01600000000000596 -0.005450000000000001 0
    vertex -0.0141551097904644 -0.002207102056878174 0
    vertex -0.01729900435956399 -0.002861595013582482 0
  endloop
endfacet
facet normal 0 0 1
  outer loop
    vertex 0.01600000000000596 0.005450000000000001 0
    vertex 0.0141551097904644 0.002207102056878174 0
    vertex 0.01729900435956399 0.002861595013582482 0
  endloop
endfacet
facet normal 0 0 1
  outer loop
    vertex -0.01375576837492089 0.002127490522051999 0
    vertex -0.01599999999999024 0.005450000000000001 0
    vertex -0.01729900435956657 0.002861595013596189 0
  endloop
endfacet
facet normal 0 0 1
  outer loop
    vertex 0.01375576837492089 -0.002127490522051999 0
    vertex 0.01599999999999024 -0.005450000000000001 0
    vertex 0.01729900435956657 -0.002861595013596189 0
  endloop
endfacet
facet normal 0 0 1
  outer loop
    vertex -0.0141551097904644 -0.002207102056878174 0
    vertex -0.01685344103292052 9.098202898930209e-15 0
    vertex -0.01729900435956399 -0.002861595013582482 0
  endloop
endfacet
facet normal -0 0 1
  outer loop
    vertex 0.0141551097904644 0.002207102056878174 0
    vertex 0.01685344103292052 -9.098202898908973e-15 0
    vertex 0.01729900435956399 0.002861595013582482 0
  endloop
endfacet
facet normal 0 -0 1
  outer loop
    vertex -0.01685344103292052 9.098202898930209e-15 0
    vertex -0.01375576837492089 0.002127490522051999 0
    vertex -0.01729900435956657 0.002861595013596189 0
  endloop
endfacet
facet normal 0 0 1
  outer loop
    vertex 0.01685344103292052 -9.098202898908973e-15 0
    vertex 0.01375576837492089 -0.002127490522051999 0
    vertex 0.01729900435956657 -0.002861595013596189 0
  endloop
endfacet
facet normal 0 0 1
  outer loop
    vertex -0.01685344103292052 9.098202898930209e-15 0
    vertex -0.02 -0.001816666666657476 0
    vertex -0.01729900435956399 -0.002861595013582482 0
  endloop
endfacet
facet normal -0 0 1
  outer loop
    vertex -0.02 0.001816666666675674 0
    vertex -0.01685344103292052 9.098202898930209e-15 0
    vertex -0.01729900435956657 0.002861595013596189 0
  endloop
endfacet
facet normal 0 0 1
  outer loop
    vertex 0.01685344103292052 -9.098202898908973e-15 0
    vertex 0.02 0.001816666666657476 0
    vertex 0.01729900435956399 0.002861595013582482 0
  endloop
endfacet
facet normal 0 0 1
  outer loop
    vertex 0.02 -0.001816666666675674 0
    vertex 0.01685344103292052 -9.098202898908973e-15 0
    vertex 0.01729900435956657 -0.002861595013596189 0
  endloop
endfacet
endsolid Created by Gmsh
