solid Created by Gmsh
facet normal 0 0 1
  outer loop
    vertex -0.007824615146066735 -0.005178492430683998 0.06
    vertex -0.0107246222036657 -0.005000973464388448 0.06
    vertex -0.009539519493618235 -0.007003249007762849 0.06
  endloop
endfacet
facet normal 0 -0 1
  outer loop
    vertex -0.009377894964542308 0.0009676146342185416 0.06
    vertex -0.009093069922303213 0.00358609252252765 0.06
    vertex -0.01135344600958913 0.002977853025689544 0.06
  endloop
endfacet
facet normal 0 -0 1
  outer loop
    vertex -0.006788578026643791 0.007030346385935094 0.06
    vertex -0.004740285025269389 0.008211824501812695 0.06
    vertex -0.006866951176475121 0.009505778710332419 0.06
  endloop
endfacet
facet normal -6.52399e-16 -2.43479e-15 1
  outer loop
    vertex -0.004788282006559372 -0.01315569669100271 0.06
    vertex -0.002431074487337025 -0.01378730854217091 0.06
    vertex -0.0031541327808823 -0.01074366670241932 0.06
  endloop
endfacet
facet normal 0 0 1
  outer loop
    vertex -0.01188085870575683 0.0009101616495462851 0.06
    vertex -0.009377894964542308 0.0009676146342185416 0.06
    vertex -0.01135344600958913 0.002977853025689544 0.06
  endloop
endfacet
facet normal -0 0 1
  outer loop
    vertex -0.0107246222036657 -0.005000973464388448 0.06
    vertex -0.007824615146066735 -0.005178492430683998 0.06
    vertex -0.009195942655841441 -0.003599872627060784 0.06
  endloop
endfacet
facet normal 0 -0 1
  outer loop
    vertex 0.001852267922277682 0.009277982679657688 0.06
    vertex 0.003167987848169255 0.01145326235208214 0.06
    vertex 0.001049986328402961 0.01170151998412466 0.06
  endloop
endfacet
facet normal 2.88211e-15 1.34395e-15 1
  outer loop
    vertex 0.01315569669100272 0.004788282006559362 0.06
    vertex 0.01212435565298214 0.006999999999999999 0.06
    vertex 0.01068255024523366 0.004928906003645042 0.06
  endloop
endfacet
facet normal 0 0 1
  outer loop
    vertex 0.001852267922277682 0.009277982679657688 0.06
    vertex 0.001049986328402961 0.01170151998412466 0.06
    vertex -0.0001200712493456208 0.00990228432427785 0.06
  endloop
endfacet
facet normal 0 0 1
  outer loop
    vertex -0.0031541327808823 -0.01074366670241932 0.06
    vertex -0.003168573736491085 -0.007902910114748567 0.06
    vertex -0.005288154665976184 -0.008767015450967938 0.06
  endloop
endfacet
facet normal -0 0 1
  outer loop
    vertex -0.008713550602889484 0.008223706745681097 0.06
    vertex -0.006788578026643791 0.007030346385935094 0.06
    vertex -0.006866951176475121 0.009505778710332419 0.06
  endloop
endfacet
facet normal 0 0 1
  outer loop
    vertex -0.005405876466704163 -0.01092042455053406 0.06
    vertex -0.0031541327808823 -0.01074366670241932 0.06
    vertex -0.005288154665976184 -0.008767015450967938 0.06
  endloop
endfacet
facet normal 0 0 1
  outer loop
    vertex 0.008315747089178694 -0.008436118334936836 0.06
    vertex 0.005551061203922666 -0.008308844348187462 0.06
    vertex 0.006973361658620273 -0.01006371254868756 0.06
  endloop
endfacet
facet normal -0 0 1
  outer loop
    vertex 0.005551061203922666 -0.008308844348187462 0.06
    vertex 0.008315747089178694 -0.008436118334936836 0.06
    vertex 0.007452144685492848 -0.006653860474924937 0.06
  endloop
endfacet
facet normal 0 0 1
  outer loop
    vertex -0.007824615146066735 -0.005178492430683998 0.06
    vertex -0.009539519493618235 -0.007003249007762849 0.06
    vertex -0.00729218713842187 -0.007693533034654363 0.06
  endloop
endfacet
facet normal -1.06952e-15 -2.53388e-15 1
  outer loop
    vertex -0.002431074487337025 -0.01378730854217091 0.06
    vertex -0.0007499634818191121 -0.01175843961577738 0.06
    vertex -0.0031541327808823 -0.01074366670241932 0.06
  endloop
endfacet
facet normal 2.38507e-16 -3.03837e-15 1
  outer loop
    vertex -0.005405876466704163 -0.01092042455053406 0.06
    vertex -0.004788282006559372 -0.01315569669100271 0.06
    vertex -0.0031541327808823 -0.01074366670241932 0.06
  endloop
endfacet
facet normal 0 0 1
  outer loop
    vertex -0.002413485387431031 0.009528745505843875 0.06
    vertex -0.004960266868436519 0.01071981677191779 0.06
    vertex -0.004740285025269389 0.008211824501812695 0.06
  endloop
endfacet
facet normal 0 0 1
  outer loop
    vertex -0.004740285025269389 0.008211824501812695 0.06
    vertex -0.004960266868436519 0.01071981677191779 0.06
    vertex -0.006866951176475121 0.009505778710332419 0.06
  endloop
endfacet
facet normal 0 -0 1
  outer loop
    vertex -0.01144409489528539 -0.003060974976951506 0.06
    vertex -0.009643312099612073 -0.001481987473469757 0.06
    vertex -0.0118873476680243 -0.001054613520639745 0.06
  endloop
endfacet
facet normal 0 -0 1
  outer loop
    vertex -0.002413485387431031 0.009528745505843875 0.06
    vertex -0.001031341038020574 0.01178828200655936 0.06
    vertex -0.003124889957556902 0.01179596990349893 0.06
  endloop
endfacet
facet normal -0 0 1
  outer loop
    vertex -0.004960266868436519 0.01071981677191779 0.06
    vertex -0.002413485387431031 0.009528745505843875 0.06
    vertex -0.003124889957556902 0.01179596990349893 0.06
  endloop
endfacet
facet normal 2.86576e-15 1.05643e-15 1
  outer loop
    vertex 0.01143087026683471 0.002898948326700249 0.06
    vertex 0.01315569669100272 0.004788282006559362 0.06
    vertex 0.01068255024523366 0.004928906003645042 0.06
  endloop
endfacet
facet normal 0 0 1
  outer loop
    vertex 0.01178828200655936 -0.001031341038020575 0.06
    vertex 0.00993329663214384 0.001108582758794564 0.06
    vertex 0.009530595149310966 -0.001182427337198592 0.06
  endloop
endfacet
facet normal 0 0 1
  outer loop
    vertex -0.001031341038020574 0.01178828200655936 0.06
    vertex -0.002413485387431031 0.009528745505843875 0.06
    vertex -0.0001200712493456208 0.00990228432427785 0.06
  endloop
endfacet
facet normal 0 0 1
  outer loop
    vertex -0.009643312099612073 -0.001481987473469757 0.06
    vertex -0.01144409489528539 -0.003060974976951506 0.06
    vertex -0.009195942655841441 -0.003599872627060784 0.06
  endloop
endfacet
facet normal -0 0 1
  outer loop
    vertex -0.0118873476680243 -0.001054613520639745 0.06
    vertex -0.009643312099612073 -0.001481987473469757 0.06
    vertex -0.01066054147543722 -0.0001930203655976845 0.06
  endloop
endfacet
facet normal 0 0 1
  outer loop
    vertex 0.00993329663214384 0.001108582758794564 0.06
    vertex 0.01178828200655936 -0.001031341038020575 0.06
    vertex 0.01218795148954176 0.001081452906962252 0.06
  endloop
endfacet
facet normal 0 0 1
  outer loop
    vertex 0.01143950460732823 -0.002977586090744797 0.06
    vertex 0.009530595149310966 -0.001182427337198592 0.06
    vertex 0.009287531060427559 -0.003594401333614561 0.06
  endloop
endfacet
facet normal 0 0 1
  outer loop
    vertex 0.01178828200655936 -0.001031341038020575 0.06
    vertex 0.009530595149310966 -0.001182427337198592 0.06
    vertex 0.01143950460732823 -0.002977586090744797 0.06
  endloop
endfacet
facet normal 2.87806e-15 1.34677e-15 1
  outer loop
    vertex 0.01212435565298214 0.006999999999999999 0.06
    vertex 0.009745059110156159 0.006932338836771312 0.06
    vertex 0.01068255024523366 0.004928906003645042 0.06
  endloop
endfacet
facet normal 0 -0 1
  outer loop
    vertex -0.007038431474566545 -0.009894313829583416 0.06
    vertex -0.005288154665976184 -0.008767015450967938 0.06
    vertex -0.00729218713842187 -0.007693533034654363 0.06
  endloop
endfacet
facet normal 0 0 1
  outer loop
    vertex -0.009539519493618235 -0.007003249007762849 0.06
    vertex -0.008759931090300202 -0.008760281067060857 0.06
    vertex -0.00729218713842187 -0.007693533034654363 0.06
  endloop
endfacet
facet normal -0 0 1
  outer loop
    vertex -0.008759931090300202 -0.008760281067060857 0.06
    vertex -0.007038431474566545 -0.009894313829583416 0.06
    vertex -0.00729218713842187 -0.007693533034654363 0.06
  endloop
endfacet
facet normal 0 0 1
  outer loop
    vertex 0.009745059110156159 0.006932338836771312 0.06
    vertex 0.00808036054164266 0.004896733383491353 0.06
    vertex 0.01068255024523366 0.004928906003645042 0.06
  endloop
endfacet
facet normal 0 -0 1
  outer loop
    vertex 0.00808036054164266 0.004896733383491353 0.06
    vertex 0.009745059110156159 0.006932338836771312 0.06
    vertex 0.007596359657850209 0.006978671010853929 0.06
  endloop
endfacet
facet normal 0 -0 1
  outer loop
    vertex 0.008315747089178694 -0.008436118334936836 0.06
    vertex 0.009997036047194801 -0.007000000000000005 0.06
    vertex 0.007452144685492848 -0.006653860474924937 0.06
  endloop
endfacet
facet normal -0 0 1
  outer loop
    vertex 0.007452144685492848 -0.006653860474924937 0.06
    vertex 0.009997036047194801 -0.007000000000000005 0.06
    vertex 0.008995115890154648 -0.005382135121597817 0.06
  endloop
endfacet
facet normal 0 0 1
  outer loop
    vertex -0.0009917260295574009 -0.009278126562113853 0.06
    vertex -0.003168573736491085 -0.007902910114748567 0.06
    vertex -0.0031541327808823 -0.01074366670241932 0.06
  endloop
endfacet
facet normal 0 0 1
  outer loop
    vertex -0.0009917260295574009 -0.009278126562113853 0.06
    vertex -0.0007499634818191121 -0.01175843961577738 0.06
    vertex 0.001034282558130554 -0.01042896300843142 0.06
  endloop
endfacet
facet normal 0 0 1
  outer loop
    vertex -0.009093069922303213 0.00358609252252765 0.06
    vertex -0.01082584723175882 0.005183892853948398 0.06
    vertex -0.01135344600958913 0.002977853025689544 0.06
  endloop
endfacet
facet normal -0 0 1
  outer loop
    vertex -0.003153741755903276 -0.005481968809724043 0.06
    vertex -0.001077864025578835 -0.006793709287853837 0.06
    vertex -0.0009845878588675984 -0.004359254755523 0.06
  endloop
endfacet
facet normal 0 -0 1
  outer loop
    vertex 0.002874429775349927 -0.01166130194396025 0.06
    vertex 0.003008165520114106 -0.009380707651983289 0.06
    vertex 0.001034282558130554 -0.01042896300843142 0.06
  endloop
endfacet
facet normal 0 0 1
  outer loop
    vertex 0.0009799325282971061 -0.00809522960969794 0.06
    vertex -0.001077864025578835 -0.006793709287853837 0.06
    vertex -0.0009917260295574009 -0.009278126562113853 0.06
  endloop
endfacet
facet normal 0 0 1
  outer loop
    vertex -0.003153741755903276 -0.005481968809724043 0.06
    vertex -0.003168573736491085 -0.007902910114748567 0.06
    vertex -0.001077864025578835 -0.006793709287853837 0.06
  endloop
endfacet
facet normal 0 0 1
  outer loop
    vertex -0.001077864025578835 -0.006793709287853837 0.06
    vertex 0.001081884622491915 -0.005678043012081753 0.06
    vertex -0.0009845878588675984 -0.004359254755523 0.06
  endloop
endfacet
facet normal 0 -0 1
  outer loop
    vertex 0.0009799325282971061 -0.00809522960969794 0.06
    vertex 0.001081884622491915 -0.005678043012081753 0.06
    vertex -0.001077864025578835 -0.006793709287853837 0.06
  endloop
endfacet
facet normal 0 0 1
  outer loop
    vertex 0.003185392577664817 -0.006985985846258267 0.06
    vertex 0.001081884622491915 -0.005678043012081753 0.06
    vertex 0.0009799325282971061 -0.00809522960969794 0.06
  endloop
endfacet
facet normal 0 -0 1
  outer loop
    vertex 0.007474480847254111 -0.00222360391127539 0.06
    vertex 0.007633488693312056 0.0001089876916547377 0.06
    vertex 0.005492262282158683 -0.0009839766374670138 0.06
  endloop
endfacet
facet normal 0 0 1
  outer loop
    vertex 0.003167987848169255 0.01145326235208214 0.06
    vertex 0.001852267922277682 0.009277982679657688 0.06
    vertex 0.003821413065917067 0.009607681441167006 0.06
  endloop
endfacet
facet normal 0 0 1
  outer loop
    vertex 0.005404899695277723 -0.003434177421807798 0.06
    vertex 0.007474480847254111 -0.00222360391127539 0.06
    vertex 0.005492262282158683 -0.0009839766374670138 0.06
  endloop
endfacet
facet normal 0 0 1
  outer loop
    vertex 0.005404899695277723 -0.003434177421807798 0.06
    vertex 0.005289168316456905 -0.005872283519887689 0.06
    vertex 0.007312831407132533 -0.004533883629629644 0.06
  endloop
endfacet
facet normal -0 0 1
  outer loop
    vertex 0.003245672939023327 -0.004553937993147166 0.06
    vertex 0.005289168316456905 -0.005872283519887689 0.06
    vertex 0.005404899695277723 -0.003434177421807798 0.06
  endloop
endfacet
facet normal -0 0 1
  outer loop
    vertex 0.005404899695277723 -0.003434177421807798 0.06
    vertex 0.007312831407132533 -0.004533883629629644 0.06
    vertex 0.007474480847254111 -0.00222360391127539 0.06
  endloop
endfacet
facet normal 0 0 1
  outer loop
    vertex -0.001077864025578835 -0.006793709287853837 0.06
    vertex -0.003168573736491085 -0.007902910114748567 0.06
    vertex -0.0009917260295574009 -0.009278126562113853 0.06
  endloop
endfacet
facet normal 0 0 1
  outer loop
    vertex -0.0008736136963060308 -0.001921461480181053 0.06
    vertex -0.003041581070270746 -0.003042429080922838 0.06
    vertex -0.0009845878588675984 -0.004359254755523 0.06
  endloop
endfacet
facet normal 0 0 1
  outer loop
    vertex -0.003041581070270746 -0.003042429080922838 0.06
    vertex -0.003153741755903276 -0.005481968809724043 0.06
    vertex -0.0009845878588675984 -0.004359254755523 0.06
  endloop
endfacet
facet normal 0 0 1
  outer loop
    vertex 0.001182732316419654 -0.003238296867604274 0.06
    vertex -0.0008736136963060308 -0.001921461480181053 0.06
    vertex -0.0009845878588675984 -0.004359254755523 0.06
  endloop
endfacet
facet normal 0 -0 1
  outer loop
    vertex 0.005492262282158683 -0.0009839766374670138 0.06
    vertex 0.005628995228751239 0.001441493752493161 0.06
    vertex 0.00345776780912469 0.0003225868041004246 0.06
  endloop
endfacet
facet normal 0 0 1
  outer loop
    vertex 0.007633488693312056 0.0001089876916547377 0.06
    vertex 0.005628995228751239 0.001441493752493161 0.06
    vertex 0.005492262282158683 -0.0009839766374670138 0.06
  endloop
endfacet
facet normal 0 0 1
  outer loop
    vertex 0.003350378635416525 -0.002117074200270862 0.06
    vertex 0.005492262282158683 -0.0009839766374670138 0.06
    vertex 0.00345776780912469 0.0003225868041004246 0.06
  endloop
endfacet
facet normal 0 0 1
  outer loop
    vertex 0.003574375694020745 0.00275825779899574 0.06
    vertex 0.00140674788638806 0.001637279335963391 0.06
    vertex 0.00345776780912469 0.0003225868041004246 0.06
  endloop
endfacet
facet normal 0 0 1
  outer loop
    vertex 0.005628995228751239 0.001441493752493161 0.06
    vertex 0.003574375694020745 0.00275825779899574 0.06
    vertex 0.00345776780912469 0.0003225868041004246 0.06
  endloop
endfacet
facet normal 0 0 1
  outer loop
    vertex 0.00140674788638806 0.001637279335963391 0.06
    vertex 0.001293847128012894 -0.0008004592251118683 0.06
    vertex 0.00345776780912469 0.0003225868041004246 0.06
  endloop
endfacet
facet normal 0 0 1
  outer loop
    vertex -0.002702549323054928 0.004270805812200439 0.06
    vertex -0.004744245434443833 0.005562554695844564 0.06
    vertex -0.004867246118494295 0.003144088486983462 0.06
  endloop
endfacet
facet normal 0 0 1
  outer loop
    vertex -0.007033008233698748 0.002019430678113639 0.06
    vertex -0.004867246118494295 0.003144088486983462 0.06
    vertex -0.006853624502938521 0.004422340284485085 0.06
  endloop
endfacet
facet normal 0 -0 1
  outer loop
    vertex -0.004867246118494295 0.003144088486983462 0.06
    vertex -0.004744245434443833 0.005562554695844564 0.06
    vertex -0.006853624502938521 0.004422340284485085 0.06
  endloop
endfacet
facet normal 0 0 1
  outer loop
    vertex -0.002702549323054928 0.004270805812200439 0.06
    vertex -0.004867246118494295 0.003144088486983462 0.06
    vertex -0.00281505830341251 0.001832106373973352 0.06
  endloop
endfacet
facet normal -0 0 1
  outer loop
    vertex -0.004983236846249709 0.0007120846271187796 0.06
    vertex -0.002928546707194615 -0.0006046812543861447 0.06
    vertex -0.00281505830341251 0.001832106373973352 0.06
  endloop
endfacet
facet normal 0 0 1
  outer loop
    vertex -0.004867246118494295 0.003144088486983462 0.06
    vertex -0.004983236846249709 0.0007120846271187796 0.06
    vertex -0.00281505830341251 0.001832106373973352 0.06
  endloop
endfacet
facet normal 0 0 1
  outer loop
    vertex -0.002928546707194615 -0.0006046812543861447 0.06
    vertex -0.00076086803399602 0.0005162982493002028 0.06
    vertex -0.00281505830341251 0.001832106373973352 0.06
  endloop
endfacet
facet normal 0 0 1
  outer loop
    vertex -0.0006479027914854943 0.002954042322623374 0.06
    vertex -0.002702549323054928 0.004270805812200439 0.06
    vertex -0.00281505830341251 0.001832106373973352 0.06
  endloop
endfacet
facet normal 0 -0 1
  outer loop
    vertex -0.00076086803399602 0.0005162982493002028 0.06
    vertex -0.0006479027914854943 0.002954042322623374 0.06
    vertex -0.00281505830341251 0.001832106373973352 0.06
  endloop
endfacet
facet normal 0 0 1
  outer loop
    vertex 0.001638020892265634 0.006502624405103973 0.06
    vertex 0.003785259988873284 0.007553643649405962 0.06
    vertex 0.001852267922277682 0.009277982679657688 0.06
  endloop
endfacet
facet normal 0 0 1
  outer loop
    vertex -0.007150911310818228 -0.0004088935538817229 0.06
    vertex -0.009643312099612073 -0.001481987473469757 0.06
    vertex -0.007353392281062908 -0.002759717298353379 0.06
  endloop
endfacet
facet normal 0 0 1
  outer loop
    vertex -0.0003903948928295136 0.007768695406147432 0.06
    vertex -0.0005348841070270574 0.005391784315684437 0.06
    vertex 0.001638020892265634 0.006502624405103973 0.06
  endloop
endfacet
facet normal -0 0 1
  outer loop
    vertex -0.0003903948928295136 0.007768695406147432 0.06
    vertex 0.001638020892265634 0.006502624405103973 0.06
    vertex 0.001852267922277682 0.009277982679657688 0.06
  endloop
endfacet
facet normal 0 0 1
  outer loop
    vertex -0.005096263798089159 -0.001725658237620913 0.06
    vertex -0.007150911310818228 -0.0004088935538817229 0.06
    vertex -0.007353392281062908 -0.002759717298353379 0.06
  endloop
endfacet
facet normal -0 0 1
  outer loop
    vertex -0.0005348841070270574 0.005391784315684437 0.06
    vertex 0.001519749580997142 0.004075021207400766 0.06
    vertex 0.001638020892265634 0.006502624405103973 0.06
  endloop
endfacet
facet normal 0 0 1
  outer loop
    vertex 0.005742032332960228 0.003879236697381922 0.06
    vertex 0.00808036054164266 0.004896733383491353 0.06
    vertex 0.005807722195042575 0.006172069831449923 0.06
  endloop
endfacet
facet normal 0 -0 1
  outer loop
    vertex -0.00520930867594981 -0.004163399467403101 0.06
    vertex -0.005096263798089159 -0.001725658237620913 0.06
    vertex -0.007353392281062908 -0.002759717298353379 0.06
  endloop
endfacet
facet normal -0 0 1
  outer loop
    vertex 0.003687405751876372 0.005195999733099822 0.06
    vertex 0.005742032332960228 0.003879236697381922 0.06
    vertex 0.005807722195042575 0.006172069831449923 0.06
  endloop
endfacet
facet normal 0 -0 1
  outer loop
    vertex -0.002589517223943097 0.006708547480241156 0.06
    vertex -0.002413485387431031 0.009528745505843875 0.06
    vertex -0.004740285025269389 0.008211824501812695 0.06
  endloop
endfacet
facet normal 1.38757e-15 -2.97565e-15 1
  outer loop
    vertex 0.004788282006559354 -0.01315569669100272 0.06
    vertex 0.007000000000000002 -0.01212435565298214 0.06
    vertex 0.005000973464388451 -0.01072462220366569 0.06
  endloop
endfacet
facet normal 3.11012e-15 8.33353e-16 1
  outer loop
    vertex 0.01378730854217091 0.002431074487337025 0.06
    vertex 0.01315569669100272 0.004788282006559362 0.06
    vertex 0.01143087026683471 0.002898948326700249 0.06
  endloop
endfacet
facet normal -3.40223e-15 2.97657e-16 1
  outer loop
    vertex -0.01378730854217091 0.00243107448733703 0.06
    vertex -0.014 1.714505518806295e-18 0.06
    vertex -0.01188085870575683 0.0009101616495462851 0.06
  endloop
endfacet
facet normal -2.97565e-15 -1.38757e-15 1
  outer loop
    vertex -0.01315569669100272 -0.004788282006559361 0.06
    vertex -0.01212435565298214 -0.006999999999999997 0.06
    vertex -0.0107246222036657 -0.005000973464388448 0.06
  endloop
endfacet
facet normal 3.27077e-15 -2.86155e-16 1
  outer loop
    vertex 0.01378730854217091 -0.002431074487337025 0.06
    vertex 0.014 0 0.06
    vertex 0.01178828200655936 -0.001031341038020575 0.06
  endloop
endfacet
facet normal 8.70205e-16 3.24765e-15 1
  outer loop
    vertex 0.004788282006559364 0.01315569669100272 0.06
    vertex 0.002431074487337026 0.01378730854217091 0.06
    vertex 0.003167987848169255 0.01145326235208214 0.06
  endloop
endfacet
facet normal -2.86155e-16 3.27077e-15 1
  outer loop
    vertex 8.572527594031473e-19 0.014 0.06
    vertex -0.002431074487337024 0.01378730854217091 0.06
    vertex -0.001031341038020574 0.01178828200655936 0.06
  endloop
endfacet
facet normal -2.78993e-16 -3.18891e-15 1
  outer loop
    vertex -0.002431074487337025 -0.01378730854217091 0.06
    vertex -2.571758278209441e-18 -0.014 0.06
    vertex -0.0007499634818191121 -0.01175843961577738 0.06
  endloop
endfacet
facet normal 2.33493e-15 -2.33493e-15 1
  outer loop
    vertex 0.00899902653561155 -0.01072462220366569 0.06
    vertex 0.01072462220366569 -0.008999026535611554 0.06
    vertex 0.008315747089178694 -0.008436118334936836 0.06
  endloop
endfacet
facet normal 2.69466e-15 2.69466e-15 1
  outer loop
    vertex 0.01072462220366569 0.00899902653561155 0.06
    vertex 0.008999026535611552 0.01072462220366569 0.06
    vertex 0.008405574151196932 0.008743019266786152 0.06
  endloop
endfacet
facet normal -1.66163e-15 -3.56337e-15 1
  outer loop
    vertex -0.007000000000000006 -0.01212435565298214 0.06
    vertex -0.004788282006559372 -0.01315569669100271 0.06
    vertex -0.005405876466704163 -0.01092042455053406 0.06
  endloop
endfacet
facet normal 3.3505e-15 -1.56237e-15 1
  outer loop
    vertex 0.01212435565298214 -0.007000000000000006 0.06
    vertex 0.01315569669100271 -0.004788282006559372 0.06
    vertex 0.0109260362505255 -0.005128530169819933 0.06
  endloop
endfacet
facet normal -1.37356e-15 2.9456e-15 1
  outer loop
    vertex -0.004788282006559362 0.01315569669100272 0.06
    vertex -0.006999999999999997 0.01212435565298214 0.06
    vertex -0.004960266868436519 0.01071981677191779 0.06
  endloop
endfacet
facet normal -2.49028e-15 2.49028e-15 1
  outer loop
    vertex -0.008999026535611552 0.01072462220366569 0.06
    vertex -0.01072462220366569 0.008999026535611554 0.06
    vertex -0.008713550602889484 0.008223706745681097 0.06
  endloop
endfacet
facet normal -3.23435e-15 1.5082e-15 1
  outer loop
    vertex -0.01212435565298214 0.006999999999999999 0.06
    vertex -0.01315569669100272 0.004788282006559365 0.06
    vertex -0.01082584723175882 0.005183892853948398 0.06
  endloop
endfacet
facet normal -3.14912e-15 -3.14912e-15 1
  outer loop
    vertex -0.01072462220366569 -0.00899902653561155 0.06
    vertex -0.008999026535611554 -0.01072462220366569 0.06
    vertex -0.008759931090300202 -0.008760281067060857 0.06
  endloop
endfacet
facet normal 0 0 1
  outer loop
    vertex 0.007725374853588545 0.002458259672578822 0.06
    vertex 0.005628995228751239 0.001441493752493161 0.06
    vertex 0.007633488693312056 0.0001089876916547377 0.06
  endloop
endfacet
facet normal -0 0 1
  outer loop
    vertex 0.005742032332960228 0.003879236697381922 0.06
    vertex 0.007725374853588545 0.002458259672578822 0.06
    vertex 0.00808036054164266 0.004896733383491353 0.06
  endloop
endfacet
facet normal 0 0 1
  outer loop
    vertex -0.007150911310818228 -0.0004088935538817229 0.06
    vertex -0.009377894964542308 0.0009676146342185416 0.06
    vertex -0.009643312099612073 -0.001481987473469757 0.06
  endloop
endfacet
facet normal 0 0 1
  outer loop
    vertex -0.002589517223943097 0.006708547480241156 0.06
    vertex -0.0003903948928295136 0.007768695406147432 0.06
    vertex -0.002413485387431031 0.009528745505843875 0.06
  endloop
endfacet
facet normal 0 0 1
  outer loop
    vertex 0.005742032332960228 0.003879236697381922 0.06
    vertex 0.005628995228751239 0.001441493752493161 0.06
    vertex 0.007725374853588545 0.002458259672578822 0.06
  endloop
endfacet
facet normal 0 0 1
  outer loop
    vertex -0.004744245434443833 0.005562554695844564 0.06
    vertex -0.002589517223943097 0.006708547480241156 0.06
    vertex -0.004740285025269389 0.008211824501812695 0.06
  endloop
endfacet
facet normal 0 0 1
  outer loop
    vertex 0.003785259988873284 0.007553643649405962 0.06
    vertex 0.003687405751876372 0.005195999733099822 0.06
    vertex 0.005807722195042575 0.006172069831449923 0.06
  endloop
endfacet
facet normal 0 0 1
  outer loop
    vertex -0.007824615146066735 -0.005178492430683998 0.06
    vertex -0.00520930867594981 -0.004163399467403101 0.06
    vertex -0.007353392281062908 -0.002759717298353379 0.06
  endloop
endfacet
facet normal 0 -0 1
  outer loop
    vertex -0.002702549323054928 0.004270805812200439 0.06
    vertex -0.002589517223943097 0.006708547480241156 0.06
    vertex -0.004744245434443833 0.005562554695844564 0.06
  endloop
endfacet
facet normal -0 0 1
  outer loop
    vertex -0.002589517223943097 0.006708547480241156 0.06
    vertex -0.0005348841070270574 0.005391784315684437 0.06
    vertex -0.0003903948928295136 0.007768695406147432 0.06
  endloop
endfacet
facet normal 0 -0 1
  outer loop
    vertex -0.007150911310818228 -0.0004088935538817229 0.06
    vertex -0.007033008233698748 0.002019430678113639 0.06
    vertex -0.009377894964542308 0.0009676146342185416 0.06
  endloop
endfacet
facet normal 0 0 1
  outer loop
    vertex 0.005742032332960228 0.003879236697381922 0.06
    vertex 0.003574375694020745 0.00275825779899574 0.06
    vertex 0.005628995228751239 0.001441493752493161 0.06
  endloop
endfacet
facet normal -0 0 1
  outer loop
    vertex -0.007033008233698748 0.002019430678113639 0.06
    vertex -0.004983236846249709 0.0007120846271187796 0.06
    vertex -0.004867246118494295 0.003144088486983462 0.06
  endloop
endfacet
facet normal 0 0 1
  outer loop
    vertex -0.003153741755903276 -0.005481968809724043 0.06
    vertex -0.005302470960003332 -0.006557846421867122 0.06
    vertex -0.003168573736491085 -0.007902910114748567 0.06
  endloop
endfacet
facet normal -0 0 1
  outer loop
    vertex 0.001638020892265634 0.006502624405103973 0.06
    vertex 0.003687405751876372 0.005195999733099822 0.06
    vertex 0.003785259988873284 0.007553643649405962 0.06
  endloop
endfacet
facet normal 0 -0 1
  outer loop
    vertex -0.005302470960003332 -0.006557846421867122 0.06
    vertex -0.00520930867594981 -0.004163399467403101 0.06
    vertex -0.007824615146066735 -0.005178492430683998 0.06
  endloop
endfacet
facet normal 0 0 1
  outer loop
    vertex 0.003687405751876372 0.005195999733099822 0.06
    vertex 0.003574375694020745 0.00275825779899574 0.06
    vertex 0.005742032332960228 0.003879236697381922 0.06
  endloop
endfacet
facet normal 0 0 1
  outer loop
    vertex -0.007150911310818228 -0.0004088935538817229 0.06
    vertex -0.004983236846249709 0.0007120846271187796 0.06
    vertex -0.007033008233698748 0.002019430678113639 0.06
  endloop
endfacet
facet normal 0 0 1
  outer loop
    vertex -0.002702549323054928 0.004270805812200439 0.06
    vertex -0.0005348841070270574 0.005391784315684437 0.06
    vertex -0.002589517223943097 0.006708547480241156 0.06
  endloop
endfacet
facet normal 0 0 1
  outer loop
    vertex 0.001519749580997142 0.004075021207400766 0.06
    vertex 0.003687405751876372 0.005195999733099822 0.06
    vertex 0.001638020892265634 0.006502624405103973 0.06
  endloop
endfacet
facet normal 0 0 1
  outer loop
    vertex -0.003153741755903276 -0.005481968809724043 0.06
    vertex -0.00520930867594981 -0.004163399467403101 0.06
    vertex -0.005302470960003332 -0.006557846421867122 0.06
  endloop
endfacet
facet normal 0 0 1
  outer loop
    vertex -0.003041581070270746 -0.003042429080922838 0.06
    vertex -0.00520930867594981 -0.004163399467403101 0.06
    vertex -0.003153741755903276 -0.005481968809724043 0.06
  endloop
endfacet
facet normal -0 0 1
  outer loop
    vertex 0.001519749580997142 0.004075021207400766 0.06
    vertex 0.003574375694020745 0.00275825779899574 0.06
    vertex 0.003687405751876372 0.005195999733099822 0.06
  endloop
endfacet
facet normal 0 -0 1
  outer loop
    vertex -0.005096263798089159 -0.001725658237620913 0.06
    vertex -0.004983236846249709 0.0007120846271187796 0.06
    vertex -0.007150911310818228 -0.0004088935538817229 0.06
  endloop
endfacet
facet normal 0 -0 1
  outer loop
    vertex -0.0006479027914854943 0.002954042322623374 0.06
    vertex -0.0005348841070270574 0.005391784315684437 0.06
    vertex -0.002702549323054928 0.004270805812200439 0.06
  endloop
endfacet
facet normal 0 0 1
  outer loop
    vertex 0.001519749580997142 0.004075021207400766 0.06
    vertex 0.00140674788638806 0.001637279335963391 0.06
    vertex 0.003574375694020745 0.00275825779899574 0.06
  endloop
endfacet
facet normal 0 0 1
  outer loop
    vertex -0.0006479027914854943 0.002954042322623374 0.06
    vertex 0.001519749580997142 0.004075021207400766 0.06
    vertex -0.0005348841070270574 0.005391784315684437 0.06
  endloop
endfacet
facet normal 0 0 1
  outer loop
    vertex -0.003041581070270746 -0.003042429080922838 0.06
    vertex -0.005096263798089159 -0.001725658237620913 0.06
    vertex -0.00520930867594981 -0.004163399467403101 0.06
  endloop
endfacet
facet normal 0 0 1
  outer loop
    vertex -0.005096263798089159 -0.001725658237620913 0.06
    vertex -0.002928546707194615 -0.0006046812543861447 0.06
    vertex -0.004983236846249709 0.0007120846271187796 0.06
  endloop
endfacet
facet normal -0 0 1
  outer loop
    vertex -0.0006479027914854943 0.002954042322623374 0.06
    vertex 0.00140674788638806 0.001637279335963391 0.06
    vertex 0.001519749580997142 0.004075021207400766 0.06
  endloop
endfacet
facet normal 0 -0 1
  outer loop
    vertex -0.003041581070270746 -0.003042429080922838 0.06
    vertex -0.002928546707194615 -0.0006046812543861447 0.06
    vertex -0.005096263798089159 -0.001725658237620913 0.06
  endloop
endfacet
facet normal 0 0 1
  outer loop
    vertex -0.0008736136963060308 -0.001921461480181053 0.06
    vertex -0.002928546707194615 -0.0006046812543861447 0.06
    vertex -0.003041581070270746 -0.003042429080922838 0.06
  endloop
endfacet
facet normal 0 0 1
  outer loop
    vertex -0.00076086803399602 0.0005162982493002028 0.06
    vertex 0.00140674788638806 0.001637279335963391 0.06
    vertex -0.0006479027914854943 0.002954042322623374 0.06
  endloop
endfacet
facet normal 0 -0 1
  outer loop
    vertex -0.0008736136963060308 -0.001921461480181053 0.06
    vertex -0.00076086803399602 0.0005162982493002028 0.06
    vertex -0.002928546707194615 -0.0006046812543861447 0.06
  endloop
endfacet
facet normal -0 0 1
  outer loop
    vertex -0.00076086803399602 0.0005162982493002028 0.06
    vertex 0.001293847128012894 -0.0008004592251118683 0.06
    vertex 0.00140674788638806 0.001637279335963391 0.06
  endloop
endfacet
facet normal 0 0 1
  outer loop
    vertex -0.0008736136963060308 -0.001921461480181053 0.06
    vertex 0.001293847128012894 -0.0008004592251118683 0.06
    vertex -0.00076086803399602 0.0005162982493002028 0.06
  endloop
endfacet
facet normal -0 0 1
  outer loop
    vertex 0.003350378635416525 -0.002117074200270862 0.06
    vertex 0.005404899695277723 -0.003434177421807798 0.06
    vertex 0.005492262282158683 -0.0009839766374670138 0.06
  endloop
endfacet
facet normal 0 -0 1
  outer loop
    vertex 0.001182732316419654 -0.003238296867604274 0.06
    vertex 0.001293847128012894 -0.0008004592251118683 0.06
    vertex -0.0008736136963060308 -0.001921461480181053 0.06
  endloop
endfacet
facet normal -0 0 1
  outer loop
    vertex 0.001293847128012894 -0.0008004592251118683 0.06
    vertex 0.003350378635416525 -0.002117074200270862 0.06
    vertex 0.00345776780912469 0.0003225868041004246 0.06
  endloop
endfacet
facet normal 0 0 1
  outer loop
    vertex 0.003350378635416525 -0.002117074200270862 0.06
    vertex 0.003245672939023327 -0.004553937993147166 0.06
    vertex 0.005404899695277723 -0.003434177421807798 0.06
  endloop
endfacet
facet normal 0 0 1
  outer loop
    vertex 0.001182732316419654 -0.003238296867604274 0.06
    vertex 0.003350378635416525 -0.002117074200270862 0.06
    vertex 0.001293847128012894 -0.0008004592251118683 0.06
  endloop
endfacet
facet normal -0 0 1
  outer loop
    vertex 0.001182732316419654 -0.003238296867604274 0.06
    vertex 0.003245672939023327 -0.004553937993147166 0.06
    vertex 0.003350378635416525 -0.002117074200270862 0.06
  endloop
endfacet
facet normal 0 -0 1
  outer loop
    vertex 0.001081884622491915 -0.005678043012081753 0.06
    vertex 0.001182732316419654 -0.003238296867604274 0.06
    vertex -0.0009845878588675984 -0.004359254755523 0.06
  endloop
endfacet
facet normal 0 0 1
  outer loop
    vertex 0.001081884622491915 -0.005678043012081753 0.06
    vertex 0.003245672939023327 -0.004553937993147166 0.06
    vertex 0.001182732316419654 -0.003238296867604274 0.06
  endloop
endfacet
facet normal 0 -0 1
  outer loop
    vertex 0.003185392577664817 -0.006985985846258267 0.06
    vertex 0.003245672939023327 -0.004553937993147166 0.06
    vertex 0.001081884622491915 -0.005678043012081753 0.06
  endloop
endfacet
facet normal 0 0 1
  outer loop
    vertex 0.003185392577664817 -0.006985985846258267 0.06
    vertex 0.005289168316456905 -0.005872283519887689 0.06
    vertex 0.003245672939023327 -0.004553937993147166 0.06
  endloop
endfacet
facet normal -0 0 1
  outer loop
    vertex 0.003185392577664817 -0.006985985846258267 0.06
    vertex 0.005551061203922666 -0.008308844348187462 0.06
    vertex 0.005289168316456905 -0.005872283519887689 0.06
  endloop
endfacet
facet normal 0 -0 1
  outer loop
    vertex 0.003008165520114106 -0.009380707651983289 0.06
    vertex 0.003185392577664817 -0.006985985846258267 0.06
    vertex 0.0009799325282971061 -0.00809522960969794 0.06
  endloop
endfacet
facet normal -0 0 1
  outer loop
    vertex 0.003785259988873284 0.007553643649405962 0.06
    vertex 0.005807722195042575 0.006172069831449923 0.06
    vertex 0.005960939059961673 0.00858907190050081 0.06
  endloop
endfacet
facet normal 0 0 1
  outer loop
    vertex 0.003008165520114106 -0.009380707651983289 0.06
    vertex 0.005551061203922666 -0.008308844348187462 0.06
    vertex 0.003185392577664817 -0.006985985846258267 0.06
  endloop
endfacet
facet normal 0 0 1
  outer loop
    vertex 0.007725374853588545 0.002458259672578822 0.06
    vertex 0.007633488693312056 0.0001089876916547377 0.06
    vertex 0.00993329663214384 0.001108582758794564 0.06
  endloop
endfacet
facet normal 0 0 1
  outer loop
    vertex 0.0009799325282971061 -0.00809522960969794 0.06
    vertex -0.0009917260295574009 -0.009278126562113853 0.06
    vertex 0.001034282558130554 -0.01042896300843142 0.06
  endloop
endfacet
facet normal 0 -0 1
  outer loop
    vertex -0.007033008233698748 0.002019430678113639 0.06
    vertex -0.006853624502938521 0.004422340284485085 0.06
    vertex -0.009093069922303213 0.00358609252252765 0.06
  endloop
endfacet
facet normal 0 0 1
  outer loop
    vertex -0.009377894964542308 0.0009676146342185416 0.06
    vertex -0.007033008233698748 0.002019430678113639 0.06
    vertex -0.009093069922303213 0.00358609252252765 0.06
  endloop
endfacet
facet normal -0 0 1
  outer loop
    vertex 0.003008165520114106 -0.009380707651983289 0.06
    vertex 0.005000973464388451 -0.01072462220366569 0.06
    vertex 0.005551061203922666 -0.008308844348187462 0.06
  endloop
endfacet
facet normal 0 -0 1
  outer loop
    vertex -0.004744245434443833 0.005562554695844564 0.06
    vertex -0.004740285025269389 0.008211824501812695 0.06
    vertex -0.006788578026643791 0.007030346385935094 0.06
  endloop
endfacet
facet normal 0 0 1
  outer loop
    vertex -0.006788578026643791 0.007030346385935094 0.06
    vertex -0.008713550602889484 0.008223706745681097 0.06
    vertex -0.008736394555485017 0.005924845321627594 0.06
  endloop
endfacet
facet normal 0 0 1
  outer loop
    vertex -0.009093069922303213 0.00358609252252765 0.06
    vertex -0.006853624502938521 0.004422340284485085 0.06
    vertex -0.008736394555485017 0.005924845321627594 0.06
  endloop
endfacet
facet normal 0 0 1
  outer loop
    vertex 0.003008165520114106 -0.009380707651983289 0.06
    vertex 0.0009799325282971061 -0.00809522960969794 0.06
    vertex 0.001034282558130554 -0.01042896300843142 0.06
  endloop
endfacet
facet normal 0 0 1
  outer loop
    vertex 0.00993329663214384 0.001108582758794564 0.06
    vertex 0.007633488693312056 0.0001089876916547377 0.06
    vertex 0.009530595149310966 -0.001182427337198592 0.06
  endloop
endfacet
facet normal -0 0 1
  outer loop
    vertex -0.01082584723175882 0.005183892853948398 0.06
    vertex -0.009093069922303213 0.00358609252252765 0.06
    vertex -0.008736394555485017 0.005924845321627594 0.06
  endloop
endfacet
facet normal 0 0 1
  outer loop
    vertex 0.005551061203922666 -0.008308844348187462 0.06
    vertex 0.005000973464388451 -0.01072462220366569 0.06
    vertex 0.006973361658620273 -0.01006371254868756 0.06
  endloop
endfacet
facet normal 0 0 1
  outer loop
    vertex 0.007474480847254111 -0.00222360391127539 0.06
    vertex 0.007312831407132533 -0.004533883629629644 0.06
    vertex 0.009287531060427559 -0.003594401333614561 0.06
  endloop
endfacet
facet normal -0 0 1
  outer loop
    vertex -0.002413485387431031 0.009528745505843875 0.06
    vertex -0.0003903948928295136 0.007768695406147432 0.06
    vertex -0.0001200712493456208 0.00990228432427785 0.06
  endloop
endfacet
facet normal 0 -0 1
  outer loop
    vertex -0.007824615146066735 -0.005178492430683998 0.06
    vertex -0.007353392281062908 -0.002759717298353379 0.06
    vertex -0.009195942655841441 -0.003599872627060784 0.06
  endloop
endfacet
facet normal 0 0 1
  outer loop
    vertex -0.006853624502938521 0.004422340284485085 0.06
    vertex -0.004744245434443833 0.005562554695844564 0.06
    vertex -0.006788578026643791 0.007030346385935094 0.06
  endloop
endfacet
facet normal 0 0 1
  outer loop
    vertex 0.005289168316456905 -0.005872283519887689 0.06
    vertex 0.005551061203922666 -0.008308844348187462 0.06
    vertex 0.007452144685492848 -0.006653860474924937 0.06
  endloop
endfacet
facet normal 0 0 1
  outer loop
    vertex -0.01144409489528539 -0.003060974976951506 0.06
    vertex -0.0107246222036657 -0.005000973464388448 0.06
    vertex -0.009195942655841441 -0.003599872627060784 0.06
  endloop
endfacet
facet normal 0 0 1
  outer loop
    vertex 0.007633488693312056 0.0001089876916547377 0.06
    vertex 0.007474480847254111 -0.00222360391127539 0.06
    vertex 0.009530595149310966 -0.001182427337198592 0.06
  endloop
endfacet
facet normal 0 0 1
  outer loop
    vertex 0.00808036054164266 0.004896733383491353 0.06
    vertex 0.007725374853588545 0.002458259672578822 0.06
    vertex 0.009567195851001506 0.003200813868843713 0.06
  endloop
endfacet
facet normal 0 0 1
  outer loop
    vertex 0.008405574151196932 0.008743019266786152 0.06
    vertex 0.005960939059961673 0.00858907190050081 0.06
    vertex 0.007596359657850209 0.006978671010853929 0.06
  endloop
endfacet
facet normal 0 0 1
  outer loop
    vertex 0.005960939059961673 0.00858907190050081 0.06
    vertex 0.005807722195042575 0.006172069831449923 0.06
    vertex 0.007596359657850209 0.006978671010853929 0.06
  endloop
endfacet
facet normal 0 -0 1
  outer loop
    vertex -0.008736394555485017 0.005924845321627594 0.06
    vertex -0.008713550602889484 0.008223706745681097 0.06
    vertex -0.01016484891095873 0.007093218218973302 0.06
  endloop
endfacet
facet normal 0 0 1
  outer loop
    vertex -0.0007499634818191121 -0.01175843961577738 0.06
    vertex -0.0009917260295574009 -0.009278126562113853 0.06
    vertex -0.0031541327808823 -0.01074366670241932 0.06
  endloop
endfacet
facet normal 0 0 1
  outer loop
    vertex 0.01143087026683471 0.002898948326700249 0.06
    vertex 0.00993329663214384 0.001108582758794564 0.06
    vertex 0.01218795148954176 0.001081452906962252 0.06
  endloop
endfacet
facet normal 0 0 1
  outer loop
    vertex 0.002874429775349927 -0.01166130194396025 0.06
    vertex 0.001034282558130554 -0.01042896300843142 0.06
    vertex 0.001117964667799677 -0.01232720262206799 0.06
  endloop
endfacet
facet normal 0 0 1
  outer loop
    vertex 0.002874429775349927 -0.01166130194396025 0.06
    vertex 0.005000973464388451 -0.01072462220366569 0.06
    vertex 0.003008165520114106 -0.009380707651983289 0.06
  endloop
endfacet
facet normal 0 0 1
  outer loop
    vertex 0.001049986328402961 0.01170151998412466 0.06
    vertex -0.001031341038020574 0.01178828200655936 0.06
    vertex -0.0001200712493456208 0.00990228432427785 0.06
  endloop
endfacet
facet normal 0 0 1
  outer loop
    vertex -0.003168573736491085 -0.007902910114748567 0.06
    vertex -0.005302470960003332 -0.006557846421867122 0.06
    vertex -0.005288154665976184 -0.008767015450967938 0.06
  endloop
endfacet
facet normal 0 0 1
  outer loop
    vertex 0.005960939059961673 0.00858907190050081 0.06
    vertex 0.005316684591069001 0.010859621562309 0.06
    vertex 0.003821413065917067 0.009607681441167006 0.06
  endloop
endfacet
facet normal 0 0 1
  outer loop
    vertex 0.003785259988873284 0.007553643649405962 0.06
    vertex 0.005960939059961673 0.00858907190050081 0.06
    vertex 0.003821413065917067 0.009607681441167006 0.06
  endloop
endfacet
facet normal 0 0 1
  outer loop
    vertex 0.01068255024523366 0.004928906003645042 0.06
    vertex 0.00808036054164266 0.004896733383491353 0.06
    vertex 0.009567195851001506 0.003200813868843713 0.06
  endloop
endfacet
facet normal 1.3076e-15 -2.96865e-15 1
  outer loop
    vertex 0.004788282006559354 -0.01315569669100272 0.06
    vertex 0.005000973464388451 -0.01072462220366569 0.06
    vertex 0.002874429775349927 -0.01166130194396025 0.06
  endloop
endfacet
facet normal 3.15208e-15 -8.44599e-16 1
  outer loop
    vertex 0.01315569669100271 -0.004788282006559372 0.06
    vertex 0.01378730854217091 -0.002431074487337025 0.06
    vertex 0.01143950460732823 -0.002977586090744797 0.06
  endloop
endfacet
facet normal 9.26296e-16 -3.45698e-15 1
  outer loop
    vertex 0.00243107448733702 -0.01378730854217091 0.06
    vertex 0.004788282006559354 -0.01315569669100272 0.06
    vertex 0.002874429775349927 -0.01166130194396025 0.06
  endloop
endfacet
facet normal -1.79172e-15 2.55884e-15 1
  outer loop
    vertex -0.006999999999999997 0.01212435565298214 0.06
    vertex -0.008999026535611552 0.01072462220366569 0.06
    vertex -0.006866951176475121 0.009505778710332419 0.06
  endloop
endfacet
facet normal -2.68683e-15 -1.88134e-15 1
  outer loop
    vertex -0.01212435565298214 -0.006999999999999997 0.06
    vertex -0.01072462220366569 -0.00899902653561155 0.06
    vertex -0.009539519493618235 -0.007003249007762849 0.06
  endloop
endfacet
facet normal 1.57862e-15 3.38536e-15 1
  outer loop
    vertex 0.007000000000000002 0.01212435565298214 0.06
    vertex 0.004788282006559364 0.01315569669100272 0.06
    vertex 0.005316684591069001 0.010859621562309 0.06
  endloop
endfacet
facet normal -3.19113e-15 -8.5506e-16 1
  outer loop
    vertex -0.01378730854217091 -0.00243107448733702 0.06
    vertex -0.01315569669100272 -0.004788282006559361 0.06
    vertex -0.01144409489528539 -0.003060974976951506 0.06
  endloop
endfacet
facet normal -2.15425e-15 -3.27022e-15 1
  outer loop
    vertex -0.008759931090300202 -0.008760281067060857 0.06
    vertex -0.008999026535611554 -0.01072462220366569 0.06
    vertex -0.007038431474566545 -0.009894313829583416 0.06
  endloop
endfacet
facet normal 1.28289e-16 3.07751e-15 1
  outer loop
    vertex 8.572527594031473e-19 0.014 0.06
    vertex -0.001031341038020574 0.01178828200655936 0.06
    vertex 0.001049986328402961 0.01170151998412466 0.06
  endloop
endfacet
facet normal -1.63437e-15 2.56683e-15 1
  outer loop
    vertex -0.004960266868436519 0.01071981677191779 0.06
    vertex -0.006999999999999997 0.01212435565298214 0.06
    vertex -0.006866951176475121 0.009505778710332419 0.06
  endloop
endfacet
facet normal -1.78488e-15 2.5708e-15 1
  outer loop
    vertex -0.008999026535611552 0.01072462220366569 0.06
    vertex -0.008713550602889484 0.008223706745681097 0.06
    vertex -0.006866951176475121 0.009505778710332419 0.06
  endloop
endfacet
facet normal -2.68646e-15 -1.59006e-15 1
  outer loop
    vertex -0.0107246222036657 -0.005000973464388448 0.06
    vertex -0.01212435565298214 -0.006999999999999997 0.06
    vertex -0.009539519493618235 -0.007003249007762849 0.06
  endloop
endfacet
facet normal 2.26179e-15 -2.64791e-15 1
  outer loop
    vertex 0.008315747089178694 -0.008436118334936836 0.06
    vertex 0.01072462220366569 -0.008999026535611554 0.06
    vertex 0.009997036047194801 -0.007000000000000005 0.06
  endloop
endfacet
facet normal 3.08414e-15 -5.52694e-16 1
  outer loop
    vertex 0.01378730854217091 -0.002431074487337025 0.06
    vertex 0.01178828200655936 -0.001031341038020575 0.06
    vertex 0.01143950460732823 -0.002977586090744797 0.06
  endloop
endfacet
facet normal 8.91626e-16 3.22726e-15 1
  outer loop
    vertex 0.004788282006559364 0.01315569669100272 0.06
    vertex 0.003167987848169255 0.01145326235208214 0.06
    vertex 0.005316684591069001 0.010859621562309 0.06
  endloop
endfacet
facet normal -2.94997e-15 -1.09403e-15 1
  outer loop
    vertex -0.01315569669100272 -0.004788282006559361 0.06
    vertex -0.0107246222036657 -0.005000973464388448 0.06
    vertex -0.01144409489528539 -0.003060974976951506 0.06
  endloop
endfacet
facet normal 3.44085e-15 -6.50893e-16 1
  outer loop
    vertex 0.01178828200655936 -0.001031341038020575 0.06
    vertex 0.014 0 0.06
    vertex 0.01218795148954176 0.001081452906962252 0.06
  endloop
endfacet
facet normal 2.69916e-15 -2.22618e-15 1
  outer loop
    vertex 0.00899902653561155 -0.01072462220366569 0.06
    vertex 0.008315747089178694 -0.008436118334936836 0.06
    vertex 0.006973361658620273 -0.01006371254868756 0.06
  endloop
endfacet
facet normal -1.74239e-15 2.97164e-15 1
  outer loop
    vertex -0.004788282006559362 0.01315569669100272 0.06
    vertex -0.004960266868436519 0.01071981677191779 0.06
    vertex -0.003124889957556902 0.01179596990349893 0.06
  endloop
endfacet
facet normal 1.12347e-15 -3.35282e-15 1
  outer loop
    vertex 0.005000973464388451 -0.01072462220366569 0.06
    vertex 0.007000000000000002 -0.01212435565298214 0.06
    vertex 0.006973361658620273 -0.01006371254868756 0.06
  endloop
endfacet
facet normal 3.21016e-15 1.3372e-15 1
  outer loop
    vertex 0.01378730854217091 0.002431074487337025 0.06
    vertex 0.01143087026683471 0.002898948326700249 0.06
    vertex 0.01218795148954176 0.001081452906962252 0.06
  endloop
endfacet
facet normal -3.35112e-15 -1.48688e-15 1
  outer loop
    vertex -0.01072462220366569 -0.00899902653561155 0.06
    vertex -0.008759931090300202 -0.008760281067060857 0.06
    vertex -0.009539519493618235 -0.007003249007762849 0.06
  endloop
endfacet
facet normal 2.33669e-15 -3.33714e-15 1
  outer loop
    vertex 0.007000000000000002 -0.01212435565298214 0.06
    vertex 0.00899902653561155 -0.01072462220366569 0.06
    vertex 0.006973361658620273 -0.01006371254868756 0.06
  endloop
endfacet
facet normal 3.22974e-15 -7.70996e-16 1
  outer loop
    vertex 0.0109260362505255 -0.005128530169819933 0.06
    vertex 0.01315569669100271 -0.004788282006559372 0.06
    vertex 0.01143950460732823 -0.002977586090744797 0.06
  endloop
endfacet
facet normal 2.75115e-16 3.14458e-15 1
  outer loop
    vertex 0.002431074487337026 0.01378730854217091 0.06
    vertex 8.572527594031473e-19 0.014 0.06
    vertex 0.001049986328402961 0.01170151998412466 0.06
  endloop
endfacet
facet normal 1.27795e-17 3.48008e-15 1
  outer loop
    vertex -0.001031341038020574 0.01178828200655936 0.06
    vertex -0.002431074487337024 0.01378730854217091 0.06
    vertex -0.003124889957556902 0.01179596990349893 0.06
  endloop
endfacet
facet normal -3.03359e-15 8.12848e-16 1
  outer loop
    vertex -0.01315569669100272 0.004788282006559365 0.06
    vertex -0.01378730854217091 0.00243107448733703 0.06
    vertex -0.01135344600958913 0.002977853025689544 0.06
  endloop
endfacet
facet normal -3.10432e-15 7.42433e-16 1
  outer loop
    vertex -0.01082584723175882 0.005183892853948398 0.06
    vertex -0.01315569669100272 0.004788282006559365 0.06
    vertex -0.01135344600958913 0.002977853025689544 0.06
  endloop
endfacet
facet normal 3.2618e-15 -1.61916e-15 1
  outer loop
    vertex 0.01212435565298214 -0.007000000000000006 0.06
    vertex 0.0109260362505255 -0.005128530169819933 0.06
    vertex 0.009997036047194801 -0.007000000000000005 0.06
  endloop
endfacet
facet normal 2.85943e-15 2.00219e-15 1
  outer loop
    vertex 0.01212435565298214 0.006999999999999999 0.06
    vertex 0.01072462220366569 0.00899902653561155 0.06
    vertex 0.009745059110156159 0.006932338836771312 0.06
  endloop
endfacet
facet normal -3.02428e-15 7.71413e-16 1
  outer loop
    vertex -0.01378730854217091 0.00243107448733703 0.06
    vertex -0.01188085870575683 0.0009101616495462851 0.06
    vertex -0.01135344600958913 0.002977853025689544 0.06
  endloop
endfacet
facet normal -3.27904e-15 1.08295e-17 1
  outer loop
    vertex -0.01188085870575683 0.0009101616495462851 0.06
    vertex -0.014 1.714505518806295e-18 0.06
    vertex -0.0118873476680243 -0.001054613520639745 0.06
  endloop
endfacet
facet normal 3.2618e-15 -2.28394e-15 1
  outer loop
    vertex 0.01072462220366569 -0.008999026535611554 0.06
    vertex 0.01212435565298214 -0.007000000000000006 0.06
    vertex 0.009997036047194801 -0.007000000000000005 0.06
  endloop
endfacet
facet normal 2.76623e-15 2.04637e-15 1
  outer loop
    vertex 0.01072462220366569 0.00899902653561155 0.06
    vertex 0.008405574151196932 0.008743019266786152 0.06
    vertex 0.009745059110156159 0.006932338836771312 0.06
  endloop
endfacet
facet normal -1.02982e-15 3.84334e-15 1
  outer loop
    vertex -0.002431074487337024 0.01378730854217091 0.06
    vertex -0.004788282006559362 0.01315569669100272 0.06
    vertex -0.003124889957556902 0.01179596990349893 0.06
  endloop
endfacet
facet normal -1.97712e-15 -3.14563e-15 1
  outer loop
    vertex -0.007000000000000006 -0.01212435565298214 0.06
    vertex -0.005405876466704163 -0.01092042455053406 0.06
    vertex -0.007038431474566545 -0.009894313829583416 0.06
  endloop
endfacet
facet normal 4.04027e-15 3.53478e-16 1
  outer loop
    vertex 0.014 0 0.06
    vertex 0.01378730854217091 0.002431074487337025 0.06
    vertex 0.01218795148954176 0.001081452906962252 0.06
  endloop
endfacet
facet normal 3.61855e-16 3.08715e-15 1
  outer loop
    vertex 0.003167987848169255 0.01145326235208214 0.06
    vertex 0.002431074487337026 0.01378730854217091 0.06
    vertex 0.001049986328402961 0.01170151998412466 0.06
  endloop
endfacet
facet normal -3.43444e-15 -3.00475e-16 1
  outer loop
    vertex -0.014 1.714505518806295e-18 0.06
    vertex -0.01378730854217091 -0.00243107448733702 0.06
    vertex -0.0118873476680243 -0.001054613520639745 0.06
  endloop
endfacet
facet normal -2.20535e-15 -3.14956e-15 1
  outer loop
    vertex -0.008999026535611554 -0.01072462220366569 0.06
    vertex -0.007000000000000006 -0.01212435565298214 0.06
    vertex -0.007038431474566545 -0.009894313829583416 0.06
  endloop
endfacet
facet normal 0 0 1
  outer loop
    vertex -0.009377894964542308 0.0009676146342185416 0.06
    vertex -0.01188085870575683 0.0009101616495462851 0.06
    vertex -0.01066054147543722 -0.0001930203655976845 0.06
  endloop
endfacet
facet normal 0 0 1
  outer loop
    vertex -0.0003903948928295136 0.007768695406147432 0.06
    vertex 0.001852267922277682 0.009277982679657688 0.06
    vertex -0.0001200712493456208 0.00990228432427785 0.06
  endloop
endfacet
facet normal -3.60044e-15 1.24645e-15 1
  outer loop
    vertex -0.01212435565298214 0.006999999999999999 0.06
    vertex -0.01082584723175882 0.005183892853948398 0.06
    vertex -0.01016484891095873 0.007093218218973302 0.06
  endloop
endfacet
facet normal -2.30803e-15 2.963e-15 1
  outer loop
    vertex -0.008713550602889484 0.008223706745681097 0.06
    vertex -0.01072462220366569 0.008999026535611554 0.06
    vertex -0.01016484891095873 0.007093218218973302 0.06
  endloop
endfacet
facet normal -0 0 1
  outer loop
    vertex 0.001852267922277682 0.009277982679657688 0.06
    vertex 0.003785259988873284 0.007553643649405962 0.06
    vertex 0.003821413065917067 0.009607681441167006 0.06
  endloop
endfacet
facet normal 0 -0 1
  outer loop
    vertex -0.006853624502938521 0.004422340284485085 0.06
    vertex -0.006788578026643791 0.007030346385935094 0.06
    vertex -0.008736394555485017 0.005924845321627594 0.06
  endloop
endfacet
facet normal -1.04948e-15 -3.44669e-15 1
  outer loop
    vertex -0.0007499634818191121 -0.01175843961577738 0.06
    vertex -2.571758278209441e-18 -0.014 0.06
    vertex 0.001117964667799677 -0.01232720262206799 0.06
  endloop
endfacet
facet normal 0 0 1
  outer loop
    vertex -0.007353392281062908 -0.002759717298353379 0.06
    vertex -0.009643312099612073 -0.001481987473469757 0.06
    vertex -0.009195942655841441 -0.003599872627060784 0.06
  endloop
endfacet
facet normal 3.00388e-15 2.60205e-15 1
  outer loop
    vertex 0.008405574151196932 0.008743019266786152 0.06
    vertex 0.008999026535611552 0.01072462220366569 0.06
    vertex 0.007136444867567832 0.01020813811724876 0.06
  endloop
endfacet
facet normal 0 0 1
  outer loop
    vertex 0.005960939059961673 0.00858907190050081 0.06
    vertex 0.008405574151196932 0.008743019266786152 0.06
    vertex 0.007136444867567832 0.01020813811724876 0.06
  endloop
endfacet
facet normal 0 0 1
  outer loop
    vertex 0.009287531060427559 -0.003594401333614561 0.06
    vertex 0.007312831407132533 -0.004533883629629644 0.06
    vertex 0.008995115890154648 -0.005382135121597817 0.06
  endloop
endfacet
facet normal 0 0 1
  outer loop
    vertex 0.005316684591069001 0.010859621562309 0.06
    vertex 0.005960939059961673 0.00858907190050081 0.06
    vertex 0.007136444867567832 0.01020813811724876 0.06
  endloop
endfacet
facet normal 0 -0 1
  outer loop
    vertex 0.0109260362505255 -0.005128530169819933 0.06
    vertex 0.01143950460732823 -0.002977586090744797 0.06
    vertex 0.009287531060427559 -0.003594401333614561 0.06
  endloop
endfacet
facet normal 0 0 1
  outer loop
    vertex 0.007312831407132533 -0.004533883629629644 0.06
    vertex 0.005289168316456905 -0.005872283519887689 0.06
    vertex 0.007452144685492848 -0.006653860474924937 0.06
  endloop
endfacet
facet normal 0 0 1
  outer loop
    vertex 0.001034282558130554 -0.01042896300843142 0.06
    vertex -0.0007499634818191121 -0.01175843961577738 0.06
    vertex 0.001117964667799677 -0.01232720262206799 0.06
  endloop
endfacet
facet normal -3.66316e-15 2.56498e-15 1
  outer loop
    vertex -0.01072462220366569 0.008999026535611554 0.06
    vertex -0.01212435565298214 0.006999999999999999 0.06
    vertex -0.01016484891095873 0.007093218218973302 0.06
  endloop
endfacet
facet normal 0 0 1
  outer loop
    vertex 0.009530595149310966 -0.001182427337198592 0.06
    vertex 0.007474480847254111 -0.00222360391127539 0.06
    vertex 0.009287531060427559 -0.003594401333614561 0.06
  endloop
endfacet
facet normal 0 0 1
  outer loop
    vertex 0.009745059110156159 0.006932338836771312 0.06
    vertex 0.008405574151196932 0.008743019266786152 0.06
    vertex 0.007596359657850209 0.006978671010853929 0.06
  endloop
endfacet
facet normal 3.85447e-16 -4.40568e-15 1
  outer loop
    vertex -2.571758278209441e-18 -0.014 0.06
    vertex 0.00243107448733702 -0.01378730854217091 0.06
    vertex 0.001117964667799677 -0.01232720262206799 0.06
  endloop
endfacet
facet normal 2.6686e-15 3.81116e-15 1
  outer loop
    vertex 0.008999026535611552 0.01072462220366569 0.06
    vertex 0.007000000000000002 0.01212435565298214 0.06
    vertex 0.007136444867567832 0.01020813811724876 0.06
  endloop
endfacet
facet normal -3.14824e-15 -6.95521e-16 1
  outer loop
    vertex -0.01378730854217091 -0.00243107448733702 0.06
    vertex -0.01144409489528539 -0.003060974976951506 0.06
    vertex -0.0118873476680243 -0.001054613520639745 0.06
  endloop
endfacet
facet normal 0 0 1
  outer loop
    vertex -0.005302470960003332 -0.006557846421867122 0.06
    vertex -0.007824615146066735 -0.005178492430683998 0.06
    vertex -0.00729218713842187 -0.007693533034654363 0.06
  endloop
endfacet
facet normal 0 0 1
  outer loop
    vertex -0.01082584723175882 0.005183892853948398 0.06
    vertex -0.008736394555485017 0.005924845321627594 0.06
    vertex -0.01016484891095873 0.007093218218973302 0.06
  endloop
endfacet
facet normal 0 -0 1
  outer loop
    vertex 0.00993329663214384 0.001108582758794564 0.06
    vertex 0.01143087026683471 0.002898948326700249 0.06
    vertex 0.009567195851001506 0.003200813868843713 0.06
  endloop
endfacet
facet normal 0 -0 1
  outer loop
    vertex -0.009643312099612073 -0.001481987473469757 0.06
    vertex -0.009377894964542308 0.0009676146342185416 0.06
    vertex -0.01066054147543722 -0.0001930203655976845 0.06
  endloop
endfacet
facet normal -0 0 1
  outer loop
    vertex 0.005807722195042575 0.006172069831449923 0.06
    vertex 0.00808036054164266 0.004896733383491353 0.06
    vertex 0.007596359657850209 0.006978671010853929 0.06
  endloop
endfacet
facet normal -0 0 1
  outer loop
    vertex 0.007725374853588545 0.002458259672578822 0.06
    vertex 0.00993329663214384 0.001108582758794564 0.06
    vertex 0.009567195851001506 0.003200813868843713 0.06
  endloop
endfacet
facet normal 0 0 1
  outer loop
    vertex -0.005288154665976184 -0.008767015450967938 0.06
    vertex -0.005302470960003332 -0.006557846421867122 0.06
    vertex -0.00729218713842187 -0.007693533034654363 0.06
  endloop
endfacet
facet normal -0 0 1
  outer loop
    vertex -0.007038431474566545 -0.009894313829583416 0.06
    vertex -0.005405876466704163 -0.01092042455053406 0.06
    vertex -0.005288154665976184 -0.008767015450967938 0.06
  endloop
endfacet
facet normal 1.34358e-15 -3.54401e-15 1
  outer loop
    vertex 0.00243107448733702 -0.01378730854217091 0.06
    vertex 0.002874429775349927 -0.01166130194396025 0.06
    vertex 0.001117964667799677 -0.01232720262206799 0.06
  endloop
endfacet
facet normal 1.3303e-15 3.71587e-15 1
  outer loop
    vertex 0.007000000000000002 0.01212435565298214 0.06
    vertex 0.005316684591069001 0.010859621562309 0.06
    vertex 0.007136444867567832 0.01020813811724876 0.06
  endloop
endfacet
facet normal 0 0 1
  outer loop
    vertex 0.0109260362505255 -0.005128530169819933 0.06
    vertex 0.009287531060427559 -0.003594401333614561 0.06
    vertex 0.008995115890154648 -0.005382135121597817 0.06
  endloop
endfacet
facet normal 0 0 1
  outer loop
    vertex 0.007312831407132533 -0.004533883629629644 0.06
    vertex 0.007452144685492848 -0.006653860474924937 0.06
    vertex 0.008995115890154648 -0.005382135121597817 0.06
  endloop
endfacet
facet normal 0 0 1
  outer loop
    vertex 0.005316684591069001 0.010859621562309 0.06
    vertex 0.003167987848169255 0.01145326235208214 0.06
    vertex 0.003821413065917067 0.009607681441167006 0.06
  endloop
endfacet
facet normal 0 0 1
  outer loop
    vertex 0.01143087026683471 0.002898948326700249 0.06
    vertex 0.01068255024523366 0.004928906003645042 0.06
    vertex 0.009567195851001506 0.003200813868843713 0.06
  endloop
endfacet
facet normal 0 0 1
  outer loop
    vertex -0.01188085870575683 0.0009101616495462851 0.06
    vertex -0.0118873476680243 -0.001054613520639745 0.06
    vertex -0.01066054147543722 -0.0001930203655976845 0.06
  endloop
endfacet
facet normal 0 -0 1
  outer loop
    vertex 0.009997036047194801 -0.007000000000000005 0.06
    vertex 0.0109260362505255 -0.005128530169819933 0.06
    vertex 0.008995115890154648 -0.005382135121597817 0.06
  endloop
endfacet
endsolid Created by Gmsh
