solid Created by Gmsh
facet normal 0 0 1
  outer loop
    vertex -0.0008501698933942301 0.0005769621666154513 0
    vertex -0.0008764664943894126 0.0008802598249162189 0
    vertex -0.001060842484573096 0.0007322481828548924 0
  endloop
endfacet
facet normal 0 0 1
  outer loop
    vertex -0.0008764664943894126 0.0008802598249162189 0
    vertex -0.0008501698933942301 0.0005769621666154513 0
    vertex -0.00068542565623263 0.0007389373796654027 0
  endloop
endfacet
facet normal 0 0 1
  outer loop
    vertex 0.0001066443570717249 0.001253310215924744 0
    vertex 9.184850993605149e-20 0.0015 0
    vertex -0.00022248256818906 0.001243190095417211 0
  endloop
endfacet
facet normal 0 0 1
  outer loop
    vertex 0.001299038105676658 0.0007499999999999999 0
    vertex 0.001149066664678467 0.0009641814145298089 0
    vertex 0.001014981861447868 0.0007017765660949658 0
  endloop
endfacet
facet normal 0 0 1
  outer loop
    vertex -0.0005130302149885031 0.001409538931178863 0
    vertex -0.0005364878858561483 0.00115418623081567 0
    vertex -0.00022248256818906 0.001243190095417211 0
  endloop
endfacet
facet normal -0 0 1
  outer loop
    vertex 0.0009350816112947732 0.0004419182464996294 0
    vertex 0.001224653681030205 0.0003281449648398448 0
    vertex 0.001177117430003062 0.0005540123965425609 0
  endloop
endfacet
facet normal 0 0 1
  outer loop
    vertex 0.001224653681030205 0.0003281449648398448 0
    vertex 0.0009350816112947732 0.0004419182464996294 0
    vertex 0.001030058200508838 0.0002038187439014458 0
  endloop
endfacet
facet normal 0 0 1
  outer loop
    vertex 0.0006189836305860431 0.0008829607730364299 0
    vertex 0.0005358185854701914 0.001149066664678467 0
    vertex 0.0003325908660995111 0.0008622329739420815 0
  endloop
endfacet
facet normal -0 0 1
  outer loop
    vertex -0.001129471264726713 0.0004898375082129826 0
    vertex -0.0009339704294740357 0.0003054162089733118 0
    vertex -0.0008501698933942301 0.0005769621666154513 0
  endloop
endfacet
facet normal 0 -0 1
  outer loop
    vertex 0.0003325908660995111 0.0008622329739420815 0
    vertex 0.0005358185854701914 0.001149066664678467 0
    vertex 0.0002957486232130204 0.001103748888099535 0
  endloop
endfacet
facet normal 0 0 1
  outer loop
    vertex -0.001129471264726713 0.0004898375082129826 0
    vertex -0.0008501698933942301 0.0005769621666154513 0
    vertex -0.001060842484573096 0.0007322481828548924 0
  endloop
endfacet
facet normal 0 -0 1
  outer loop
    vertex 0.0003281449648398446 -0.001224653681030205 0
    vertex 0.0004943594187545576 -0.0009383591910659819 0
    vertex 0.000215425496658476 -0.0009678150157260545 0
  endloop
endfacet
facet normal 0 -0 1
  outer loop
    vertex -0.0004548181321517436 0.000775191588666415 0
    vertex -0.000338555542968196 0.001012019508137311 0
    vertex -0.0006392912523686089 0.000936514502867157 0
  endloop
endfacet
facet normal 0 0 1
  outer loop
    vertex -0.000338555542968196 0.001012019508137311 0
    vertex -0.0005364878858561483 0.00115418623081567 0
    vertex -0.0006392912523686089 0.000936514502867157 0
  endloop
endfacet
facet normal 0 0 1
  outer loop
    vertex 9.184850993605149e-20 0.0015 0
    vertex -0.0002604722665003955 0.001477211629518312 0
    vertex -0.00022248256818906 0.001243190095417211 0
  endloop
endfacet
facet normal 0 0 1
  outer loop
    vertex -0.001029389457417931 -0.0007213771738319322 0
    vertex -0.0008190405621992706 -0.0005696058966078878 0
    vertex -0.001000365638364678 -0.00040670897514188 0
  endloop
endfacet
facet normal 0 -0 1
  outer loop
    vertex -0.0001105008255022047 -0.001263030214988503 0
    vertex -3.627883143807199e-05 -0.0009866811069634456 0
    vertex -0.0003193758636156688 -0.001025383271502091 0
  endloop
endfacet
facet normal 0 -0 1
  outer loop
    vertex -0.001029389457417931 -0.0007213771738319322 0
    vertex -0.001000365638364678 -0.00040670897514188 0
    vertex -0.001196567215073157 -0.0005446889482644632 0
  endloop
endfacet
facet normal -0 0 1
  outer loop
    vertex -0.001029389457417931 -0.0007213771738319322 0
    vertex -0.0007364363370838193 -0.0008009290262460464 0
    vertex -0.0008190405621992706 -0.0005696058966078878 0
  endloop
endfacet
facet normal 0 -0 1
  outer loop
    vertex -7.659125825444491e-05 0.001056307722555612 0
    vertex 0.0001066443570717249 0.001253310215924744 0
    vertex -0.00022248256818906 0.001243190095417211 0
  endloop
endfacet
facet normal 0 0 1
  outer loop
    vertex 0.001149066664678467 0.0009641814145298089 0
    vertex 0.0008725617705202561 0.0009001202942394571 0
    vertex 0.001014981861447868 0.0007017765660949658 0
  endloop
endfacet
facet normal 0 0 1
  outer loop
    vertex -0.0007364363370838193 -0.0008009290262460464 0
    vertex -0.001029389457417931 -0.0007213771738319322 0
    vertex -0.0009254428707248724 -0.0009418641908493359 0
  endloop
endfacet
facet normal 0 0 1
  outer loop
    vertex -0.0002604722665003955 0.001477211629518312 0
    vertex -0.0005130302149885031 0.001409538931178863 0
    vertex -0.00022248256818906 0.001243190095417211 0
  endloop
endfacet
facet normal 0 0 1
  outer loop
    vertex 0.0003281449648398446 -0.001224653681030205 0
    vertex 0.0005643327191282934 -0.001185491062749119 0
    vertex 0.0004943594187545576 -0.0009383591910659819 0
  endloop
endfacet
facet normal 0 0 1
  outer loop
    vertex 0.0008699669028949829 -0.0006622416040930563 0
    vertex 0.001143023997557148 -0.0005336761660201101 0
    vertex 0.0009246577368091761 -0.0004301382805311595 0
  endloop
endfacet
facet normal 0 0 1
  outer loop
    vertex 0.001143023997557148 -0.0005336761660201101 0
    vertex 0.0008699669028949829 -0.0006622416040930563 0
    vertex 0.001077049675943075 -0.0007671331201681366 0
  endloop
endfacet
facet normal 0 0 1
  outer loop
    vertex 0.001299038105676658 0.0007499999999999999 0
    vertex 0.001014981861447868 0.0007017765660949658 0
    vertex 0.001177117430003062 0.0005540123965425609 0
  endloop
endfacet
facet normal -0 0 1
  outer loop
    vertex -0.0005364878858561483 0.00115418623081567 0
    vertex -0.000338555542968196 0.001012019508137311 0
    vertex -0.00022248256818906 0.001243190095417211 0
  endloop
endfacet
facet normal 0 0 1
  outer loop
    vertex -0.0001105008255022047 -0.001263030214988503 0
    vertex -0.0003193758636156688 -0.001025383271502091 0
    vertex -0.0003480753492659333 -0.001268316883380414 0
  endloop
endfacet
facet normal 0 0 1
  outer loop
    vertex -0.0009339704294740357 0.0003054162089733118 0
    vertex -0.001129471264726713 0.0004898375082129826 0
    vertex -0.001115618919456049 0.0002489861726948504 0
  endloop
endfacet
facet normal 0 -0 1
  outer loop
    vertex 0.0007417731780825566 0.0006681586595322145 0
    vertex 0.0008725617705202561 0.0009001202942394571 0
    vertex 0.0006189836305860431 0.0008829607730364299 0
  endloop
endfacet
facet normal -0 0 1
  outer loop
    vertex 0.0009246577368091761 -0.0004301382805311595 0
    vertex 0.001143023997557148 -0.0005336761660201101 0
    vertex 0.00105969479845582 -0.0002299522282550534 0
  endloop
endfacet
facet normal 0 0 1
  outer loop
    vertex 0.00105969479845582 -0.0002299522282550534 0
    vertex 0.001143023997557148 -0.0005336761660201101 0
    vertex 0.001275234917354013 -0.0003301985723283041 0
  endloop
endfacet
facet normal 0 0 1
  outer loop
    vertex -0.001010056857342687 6.684121485884123e-05 0
    vertex -0.00125415061596405 8.749694675945727e-05 0
    vertex -0.001102570766924899 -0.0001624329408806551 0
  endloop
endfacet
facet normal 0 0 1
  outer loop
    vertex -0.00125415061596405 8.749694675945727e-05 0
    vertex -0.001315687391026984 -0.0001335473275963189 0
    vertex -0.001102570766924899 -0.0001624329408806551 0
  endloop
endfacet
facet normal 0 0 1
  outer loop
    vertex 0.000215425496658476 -0.0009678150157260545 0
    vertex 0.0004943594187545576 -0.0009383591910659819 0
    vertex 0.0003315746322685924 -0.0007254258802641897 0
  endloop
endfacet
facet normal 0 0 1
  outer loop
    vertex 0.001224653681030205 0.0003281449648398448 0
    vertex 0.001030058200508838 0.0002038187439014458 0
    vertex 0.001295062324029146 0.0001150348038595313 0
  endloop
endfacet
facet normal 0 0 1
  outer loop
    vertex -0.001129471264726713 0.0004898375082129826 0
    vertex -0.001266305427759642 0.0003326505264784013 0
    vertex -0.001115618919456049 0.0002489861726948504 0
  endloop
endfacet
facet normal 0 0 1
  outer loop
    vertex 0.001295062324029146 0.0001150348038595313 0
    vertex 0.001030058200508838 0.0002038187439014458 0
    vertex 0.001115727641364535 -5.442173314263911e-06 0
  endloop
endfacet
facet normal 0 0 1
  outer loop
    vertex 0.0006189836305860431 0.0008829607730364299 0
    vertex 0.0008725617705202561 0.0009001202942394571 0
    vertex 0.00074830908022126 0.001076050500461896 0
  endloop
endfacet
facet normal 0 0 1
  outer loop
    vertex 0.001014981861447868 0.0007017765660949658 0
    vertex 0.0009350816112947732 0.0004419182464996294 0
    vertex 0.001177117430003062 0.0005540123965425609 0
  endloop
endfacet
facet normal 0 -0 1
  outer loop
    vertex 0.000215425496658476 -0.0009678150157260545 0
    vertex 0.0003315746322685924 -0.0007254258802641897 0
    vertex 6.873018968731203e-05 -0.0007489893214291792 0
  endloop
endfacet
facet normal -0 0 1
  outer loop
    vertex 0.0003315746322685924 -0.0007254258802641897 0
    vertex 0.0004943594187545576 -0.0009383591910659819 0
    vertex 0.0005912995306261207 -0.0006887498896738082 0
  endloop
endfacet
facet normal 0 0 1
  outer loop
    vertex 6.873018968731203e-05 -0.0007489893214291792 0
    vertex 0.0003315746322685924 -0.0007254258802641897 0
    vertex 0.000180808635246718 -0.0005121224659769374 0
  endloop
endfacet
facet normal 0 0 1
  outer loop
    vertex 0.000215425496658476 -0.0009678150157260545 0
    vertex 6.873018968731203e-05 -0.0007489893214291792 0
    vertex -3.627883143807199e-05 -0.0009866811069634456 0
  endloop
endfacet
facet normal 0 -0 1
  outer loop
    vertex 6.873018968731203e-05 -0.0007489893214291792 0
    vertex 0.000180808635246718 -0.0005121224659769374 0
    vertex -7.936192860551231e-05 -0.0005336818863304487 0
  endloop
endfacet
facet normal 0 0 1
  outer loop
    vertex -7.936192860551231e-05 -0.0005336818863304487 0
    vertex 0.000180808635246718 -0.0005121224659769374 0
    vertex 3.279479974415756e-05 -0.0002976580843202387 0
  endloop
endfacet
facet normal 0 -0 1
  outer loop
    vertex -7.936192860551231e-05 -0.0005336818863304487 0
    vertex 3.279479974415756e-05 -0.0002976580843202387 0
    vertex -0.0002277311423866076 -0.000318856626446563 0
  endloop
endfacet
facet normal 0 0 1
  outer loop
    vertex -7.936192860551231e-05 -0.0005336818863304487 0
    vertex -0.0002277311423866076 -0.000318856626446563 0
    vertex -0.0003397978817526122 -0.0005548675400700383 0
  endloop
endfacet
facet normal 0 0 1
  outer loop
    vertex -0.0002277311423866076 -0.000318856626446563 0
    vertex 3.279479974415756e-05 -0.0002976580843202387 0
    vertex -0.0001156449956026602 -8.267416837737366e-05 0
  endloop
endfacet
facet normal 0 -0 1
  outer loop
    vertex -0.0003397978817526122 -0.0005548675400700383 0
    vertex -0.0002277311423866076 -0.000318856626446563 0
    vertex -0.0004883008887282759 -0.0003399690537748187 0
  endloop
endfacet
facet normal -0 0 1
  outer loop
    vertex -0.0001156449956026602 -8.267416837737366e-05 0
    vertex 3.279479974415756e-05 -0.0002976580843202387 0
    vertex 0.0001449758133485081 -6.159745460142172e-05 0
  endloop
endfacet
facet normal 0 0 1
  outer loop
    vertex -0.0003397978817526122 -0.0005548675400700383 0
    vertex -0.0004883008887282759 -0.0003399690537748187 0
    vertex -0.0005972910238640076 -0.0005740913617159967 0
  endloop
endfacet
facet normal 0 0 1
  outer loop
    vertex -0.0001156449956026602 -8.267416837737366e-05 0
    vertex 0.0001449758133485081 -6.159745460142172e-05 0
    vertex -3.556331428988608e-06 0.0001535080592924103 0
  endloop
endfacet
facet normal -0 0 1
  outer loop
    vertex -3.556331428988608e-06 0.0001535080592924103 0
    vertex 0.0001449758133485081 -6.159745460142172e-05 0
    vertex 0.000257053712614886 0.0001746003966770123 0
  endloop
endfacet
facet normal 0 0 1
  outer loop
    vertex -0.0003397978817526122 -0.0005548675400700383 0
    vertex -0.0005972910238640076 -0.0005740913617159967 0
    vertex -0.0004521952336725881 -0.0007772534482845448 0
  endloop
endfacet
facet normal 0 -0 1
  outer loop
    vertex -0.0005972910238640076 -0.0005740913617159967 0
    vertex -0.0004883008887282759 -0.0003399690537748187 0
    vertex -0.0007420675599054338 -0.0003601699704171286 0
  endloop
endfacet
facet normal 0 -0 1
  outer loop
    vertex -0.0001156449956026602 -8.267416837737366e-05 0
    vertex -3.556331428988608e-06 0.0001535080592924103 0
    vertex -0.0002641777935526252 0.0001324352494781 0
  endloop
endfacet
facet normal 0 0 1
  outer loop
    vertex 0.000257053712614886 0.0001746003966770123 0
    vertex 0.0001449758133485081 -6.159745460142172e-05 0
    vertex 0.0004056192852836316 -4.055248430899934e-05 0
  endloop
endfacet
facet normal 0 0 1
  outer loop
    vertex -0.0002641777935526252 0.0001324352494781 0
    vertex -3.556331428988608e-06 0.0001535080592924103 0
    vertex -0.0001521239339475903 0.000368668053188216 0
  endloop
endfacet
facet normal 0 0 1
  outer loop
    vertex -0.0004521952336725881 -0.0007772534482845448 0
    vertex -0.0005972910238640076 -0.0005740913617159967 0
    vertex -0.0007364363370838193 -0.0008009290262460464 0
  endloop
endfacet
facet normal -0 0 1
  outer loop
    vertex 0.000257053712614886 0.0001746003966770123 0
    vertex 0.0004056192852836316 -4.055248430899934e-05 0
    vertex 0.0005176731453215733 0.000195679035715368 0
  endloop
endfacet
facet normal 0 -0 1
  outer loop
    vertex -0.0002641777935526252 0.0001324352494781 0
    vertex -0.0001521239339475903 0.000368668053188216 0
    vertex -0.0004127398952990033 0.0003475849818427039 0
  endloop
endfacet
facet normal 0 0 1
  outer loop
    vertex 0.000257053712614886 0.0001746003966770123 0
    vertex 0.0005176731453215733 0.000195679035715368 0
    vertex 0.0003691084353701464 0.0004108333325286741 0
  endloop
endfacet
facet normal 0 0 1
  outer loop
    vertex -0.0004127398952990033 0.0003475849818427039 0
    vertex -0.0001521239339475903 0.000368668053188216 0
    vertex -0.0003006896174338294 0.0005838245258027965 0
  endloop
endfacet
facet normal 0 0 1
  outer loop
    vertex 0.0005176731453215733 0.000195679035715368 0
    vertex 0.0004056192852836316 -4.055248430899934e-05 0
    vertex 0.0006662406005648366 -1.947988252266565e-05 0
  endloop
endfacet
facet normal 0 0 1
  outer loop
    vertex -0.0002641777935526252 0.0001324352494781 0
    vertex -0.0004127398952990033 0.0003475849818427039 0
    vertex -0.0005247865885731329 0.0001113457683546935 0
  endloop
endfacet
facet normal -0 0 1
  outer loop
    vertex 0.0003691084353701464 0.0004108333325286741 0
    vertex 0.0005176731453215733 0.000195679035715368 0
    vertex 0.0006297238739149441 0.0004319175836328556 0
  endloop
endfacet
facet normal 0 0 1
  outer loop
    vertex 0.0006662406005648366 -1.947988252266565e-05 0
    vertex 0.0004056192852836316 -4.055248430899934e-05 0
    vertex 0.0005532600500085733 -0.0002541577492010409 0
  endloop
endfacet
facet normal -0 0 1
  outer loop
    vertex -0.0003006896174338294 0.0005838245258027965 0
    vertex -0.0001521239339475903 0.000368668053188216 0
    vertex -4.007401176870587e-05 0.0006049081965386738 0
  endloop
endfacet
facet normal 0 -0 1
  outer loop
    vertex -0.0005247865885731329 0.0001113457683546935 0
    vertex -0.0004127398952990033 0.0003475849818427039 0
    vertex -0.0006733545647465063 0.000326500650019095 0
  endloop
endfacet
facet normal 0 0 1
  outer loop
    vertex -0.0005247865885731329 0.0001113457683546935 0
    vertex -0.0006733545647465063 0.000326500650019095 0
    vertex -0.0007820477872195993 8.867579875392394e-05 0
  endloop
endfacet
facet normal 0 0 1
  outer loop
    vertex -0.0003006896174338294 0.0005838245258027965 0
    vertex -4.007401176870587e-05 0.0006049081965386738 0
    vertex -0.0001859977553595304 0.0008188127369158857 0
  endloop
endfacet
facet normal 0 0 1
  outer loop
    vertex 0.0003691084353701464 0.0004108333325286741 0
    vertex 0.0006297238739149441 0.0004319175836328556 0
    vertex 0.0004811573833437429 0.0006470750407697737 0
  endloop
endfacet
facet normal 0 0 1
  outer loop
    vertex 0.0006662406005648366 -1.947988252266565e-05 0
    vertex 0.0005532600500085733 -0.0002541577492010409 0
    vertex 0.0008064523757765086 -0.0002334251067346887 0
  endloop
endfacet
facet normal 0 -0 1
  outer loop
    vertex -0.0007820477872195993 8.867579875392394e-05 0
    vertex -0.0006733545647465063 0.000326500650019095 0
    vertex -0.0009339704294740357 0.0003054162089733118 0
  endloop
endfacet
facet normal -0 0 1
  outer loop
    vertex 0.0006662406005648366 -1.947988252266565e-05 0
    vertex 0.0008064523757765086 -0.0002334251067346887 0
    vertex 0.000907117653768945 -2.250200199785973e-06 0
  endloop
endfacet
facet normal 0 -0 1
  outer loop
    vertex -0.0003006896174338294 0.0005838245258027965 0
    vertex -0.0001859977553595304 0.0008188127369158857 0
    vertex -0.0004548181321517436 0.000775191588666415 0
  endloop
endfacet
facet normal -0 0 1
  outer loop
    vertex -0.0001859977553595304 0.0008188127369158857 0
    vertex -4.007401176870587e-05 0.0006049081965386738 0
    vertex 6.106286819723423e-05 0.0008331015489694492 0
  endloop
endfacet
facet normal -0 0 1
  outer loop
    vertex 0.0004811573833437429 0.0006470750407697737 0
    vertex 0.0006297238739149441 0.0004319175836328556 0
    vertex 0.0007417731780825566 0.0006681586595322145 0
  endloop
endfacet
facet normal 0 0 1
  outer loop
    vertex -0.0009339704294740357 0.0003054162089733118 0
    vertex -0.0006733545647465063 0.000326500650019095 0
    vertex -0.0008501698933942301 0.0005769621666154513 0
  endloop
endfacet
facet normal 0 0 1
  outer loop
    vertex -0.0001859977553595304 0.0008188127369158857 0
    vertex 6.106286819723423e-05 0.0008331015489694492 0
    vertex -7.659125825444491e-05 0.001056307722555612 0
  endloop
endfacet
facet normal 0 0 1
  outer loop
    vertex 0.0007417731780825566 0.0006681586595322145 0
    vertex 0.0006297238739149441 0.0004319175836328556 0
    vertex 0.0009350816112947732 0.0004419182464996294 0
  endloop
endfacet
facet normal 0 0 1
  outer loop
    vertex 0.0004811573833437429 0.0006470750407697737 0
    vertex 0.0007417731780825566 0.0006681586595322145 0
    vertex 0.0006189836305860431 0.0008829607730364299 0
  endloop
endfacet
facet normal 0 0 1
  outer loop
    vertex -0.001477211629518312 0.0002604722665003961 0
    vertex -0.0015 1.83697019872103e-19 0
    vertex -0.00125415061596405 8.749694675945727e-05 0
  endloop
endfacet
facet normal 0 0 1
  outer loop
    vertex -0.001477211629518312 -0.000260472266500395 0
    vertex -0.001409538931178863 -0.000513030214988503 0
    vertex -0.001244503942727657 -0.0003323283773600016 0
  endloop
endfacet
facet normal -0 0 1
  outer loop
    vertex -0.001299038105676658 -0.0007499999999999996 0
    vertex -0.001149066664678467 -0.0009641814145298089 0
    vertex -0.001029389457417931 -0.0007213771738319322 0
  endloop
endfacet
facet normal 0 0 1
  outer loop
    vertex 0.001477211629518312 0.0002604722665003955 0
    vertex 0.001409538931178863 0.0005130302149885031 0
    vertex 0.001224653681030205 0.0003281449648398448 0
  endloop
endfacet
facet normal -0 0 1
  outer loop
    vertex -0.0007500000000000007 -0.001299038105676658 0
    vertex -0.000513030214988504 -0.001409538931178862 0
    vertex -0.0005369975757228933 -0.001166420369714298 0
  endloop
endfacet
facet normal 0 -0 1
  outer loop
    vertex 0.001299038105676658 -0.0007500000000000007 0
    vertex 0.001409538931178862 -0.0005130302149885041 0
    vertex 0.001143023997557148 -0.0005336761660201101 0
  endloop
endfacet
facet normal 0 0 1
  outer loop
    vertex -0.0009641814145298091 0.001149066664678467 0
    vertex -0.001149066664678467 0.0009641814145298092 0
    vertex -0.0008764664943894126 0.0008802598249162189 0
  endloop
endfacet
facet normal 0 -0 1
  outer loop
    vertex 0.0007500000000000002 -0.001299038105676658 0
    vertex 0.0009641814145298089 -0.001149066664678467 0
    vertex 0.0007361289970585625 -0.001055865404793886 0
  endloop
endfacet
facet normal 0 0 1
  outer loop
    vertex -0.001299038105676658 0.0007499999999999999 0
    vertex -0.001409538931178862 0.0005130302149885033 0
    vertex -0.001129471264726713 0.0004898375082129826 0
  endloop
endfacet
facet normal -0 0 1
  outer loop
    vertex -0.0002604722665003955 -0.001477211629518312 0
    vertex -2.755455298081544e-19 -0.0015 0
    vertex -0.0001105008255022047 -0.001263030214988503 0
  endloop
endfacet
facet normal 0 0 1
  outer loop
    vertex 0.000260472266500395 -0.001477211629518312 0
    vertex 0.0005130302149885023 -0.001409538931178863 0
    vertex 0.0003281449648398446 -0.001224653681030205 0
  endloop
endfacet
facet normal 0 -0 1
  outer loop
    vertex 0.001477211629518312 -0.0002604722665003956 0
    vertex 0.0015 0 0
    vertex 0.001286705230059924 -0.0001138619858774573 0
  endloop
endfacet
facet normal 0 0 1
  outer loop
    vertex 0.0002604722665003956 0.001477211629518312 0
    vertex 9.184850993605149e-20 0.0015 0
    vertex 0.0001066443570717249 0.001253310215924744 0
  endloop
endfacet
facet normal 0 0 1
  outer loop
    vertex 0.0007500000000000002 0.001299038105676658 0
    vertex 0.0005130302149885033 0.001409538931178862 0
    vertex 0.0005358185854701914 0.001149066664678467 0
  endloop
endfacet
facet normal 0 0 1
  outer loop
    vertex 0.001149066664678467 0.0009641814145298089 0
    vertex 0.0009641814145298091 0.001149066664678467 0
    vertex 0.0008725617705202561 0.0009001202942394571 0
  endloop
endfacet
facet normal 0 0 1
  outer loop
    vertex -0.0005130302149885031 0.001409538931178863 0
    vertex -0.0007499999999999997 0.001299038105676658 0
    vertex -0.0005364878858561483 0.00115418623081567 0
  endloop
endfacet
facet normal 0 -0 1
  outer loop
    vertex -0.0004127398952990033 0.0003475849818427039 0
    vertex -0.0003006896174338294 0.0005838245258027965 0
    vertex -0.0005662136944134645 0.0005556739538835 0
  endloop
endfacet
facet normal 0 0 1
  outer loop
    vertex -0.0006733545647465063 0.000326500650019095 0
    vertex -0.0004127398952990033 0.0003475849818427039 0
    vertex -0.0005662136944134645 0.0005556739538835 0
  endloop
endfacet
facet normal -0 0 1
  outer loop
    vertex 0.0005176731453215733 0.000195679035715368 0
    vertex 0.0006662406005648366 -1.947988252266565e-05 0
    vertex 0.0007783425170212202 0.0002129626491206727 0
  endloop
endfacet
facet normal 0 0 1
  outer loop
    vertex 0.0006297238739149441 0.0004319175836328556 0
    vertex 0.0005176731453215733 0.000195679035715368 0
    vertex 0.0007783425170212202 0.0002129626491206727 0
  endloop
endfacet
facet normal 0 0 1
  outer loop
    vertex -0.0003006896174338294 0.0005838245258027965 0
    vertex -0.0004548181321517436 0.000775191588666415 0
    vertex -0.0005662136944134645 0.0005556739538835 0
  endloop
endfacet
facet normal 0 0 1
  outer loop
    vertex 0.0009350816112947732 0.0004419182464996294 0
    vertex 0.0006297238739149441 0.0004319175836328556 0
    vertex 0.0007783425170212202 0.0002129626491206727 0
  endloop
endfacet
facet normal 0 0 1
  outer loop
    vertex 0.0006662406005648366 -1.947988252266565e-05 0
    vertex 0.000907117653768945 -2.250200199785973e-06 0
    vertex 0.0007783425170212202 0.0002129626491206727 0
  endloop
endfacet
facet normal 0 0 1
  outer loop
    vertex -0.0008501698933942301 0.0005769621666154513 0
    vertex -0.0006733545647465063 0.000326500650019095 0
    vertex -0.0005662136944134645 0.0005556739538835 0
  endloop
endfacet
facet normal 0 0 1
  outer loop
    vertex -3.556331428988608e-06 0.0001535080592924103 0
    vertex 0.000257053712614886 0.0001746003966770123 0
    vertex 0.0001084916122005211 0.000389751559815474 0
  endloop
endfacet
facet normal -0 0 1
  outer loop
    vertex -0.0001521239339475903 0.000368668053188216 0
    vertex -3.556331428988608e-06 0.0001535080592924103 0
    vertex 0.0001084916122005211 0.000389751559815474 0
  endloop
endfacet
facet normal 0 0 1
  outer loop
    vertex -4.007401176870587e-05 0.0006049081965386738 0
    vertex -0.0001521239339475903 0.000368668053188216 0
    vertex 0.0001084916122005211 0.000389751559815474 0
  endloop
endfacet
facet normal 0 -0 1
  outer loop
    vertex 0.000257053712614886 0.0001746003966770123 0
    vertex 0.0003691084353701464 0.0004108333325286741 0
    vertex 0.0001084916122005211 0.000389751559815474 0
  endloop
endfacet
facet normal -0 0 1
  outer loop
    vertex -4.007401176870587e-05 0.0006049081965386738 0
    vertex 0.0001084916122005211 0.000389751559815474 0
    vertex 0.000218722858907075 0.0006246504420940209 0
  endloop
endfacet
facet normal 0 0 1
  outer loop
    vertex 0.0001084916122005211 0.000389751559815474 0
    vertex 0.0003691084353701464 0.0004108333325286741 0
    vertex 0.000218722858907075 0.0006246504420940209 0
  endloop
endfacet
facet normal 0 0 1
  outer loop
    vertex 6.106286819723423e-05 0.0008331015489694492 0
    vertex -4.007401176870587e-05 0.0006049081965386738 0
    vertex 0.000218722858907075 0.0006246504420940209 0
  endloop
endfacet
facet normal 0 -0 1
  outer loop
    vertex 0.0003691084353701464 0.0004108333325286741 0
    vertex 0.0004811573833437429 0.0006470750407697737 0
    vertex 0.000218722858907075 0.0006246504420940209 0
  endloop
endfacet
facet normal -0 0 1
  outer loop
    vertex 6.106286819723423e-05 0.0008331015489694492 0
    vertex 0.000218722858907075 0.0006246504420940209 0
    vertex 0.0003325908660995111 0.0008622329739420815 0
  endloop
endfacet
facet normal 0 0 1
  outer loop
    vertex 0.000218722858907075 0.0006246504420940209 0
    vertex 0.0004811573833437429 0.0006470750407697737 0
    vertex 0.0003325908660995111 0.0008622329739420815 0
  endloop
endfacet
facet normal 0 -0 1
  outer loop
    vertex 0.0004811573833437429 0.0006470750407697737 0
    vertex 0.0006189836305860431 0.0008829607730364299 0
    vertex 0.0003325908660995111 0.0008622329739420815 0
  endloop
endfacet
facet normal -0 0 1
  outer loop
    vertex 3.279479974415756e-05 -0.0002976580843202387 0
    vertex 0.000180808635246718 -0.0005121224659769374 0
    vertex 0.0002924286224790224 -0.000275930403225333 0
  endloop
endfacet
facet normal 0 0 1
  outer loop
    vertex -0.0002641777935526252 0.0001324352494781 0
    vertex -0.0005247865885731329 0.0001113457683546935 0
    vertex -0.0003762448611553115 -0.0001037681748247206 0
  endloop
endfacet
facet normal 0 -0 1
  outer loop
    vertex -0.0002277311423866076 -0.000318856626446563 0
    vertex -0.0001156449956026602 -8.267416837737366e-05 0
    vertex -0.0003762448611553115 -0.0001037681748247206 0
  endloop
endfacet
facet normal 0 0 1
  outer loop
    vertex -0.0004883008887282759 -0.0003399690537748187 0
    vertex -0.0002277311423866076 -0.000318856626446563 0
    vertex -0.0003762448611553115 -0.0001037681748247206 0
  endloop
endfacet
facet normal 0 0 1
  outer loop
    vertex -0.0001156449956026602 -8.267416837737366e-05 0
    vertex -0.0002641777935526252 0.0001324352494781 0
    vertex -0.0003762448611553115 -0.0001037681748247206 0
  endloop
endfacet
facet normal 0 0 1
  outer loop
    vertex -0.0005247865885731329 0.0001113457683546935 0
    vertex -0.0007820477872195993 8.867579875392394e-05 0
    vertex -0.0006368277580885677 -0.0001248902181823617 0
  endloop
endfacet
facet normal 0 0 1
  outer loop
    vertex -0.0003762448611553115 -0.0001037681748247206 0
    vertex -0.0005247865885731329 0.0001113457683546935 0
    vertex -0.0006368277580885677 -0.0001248902181823617 0
  endloop
endfacet
facet normal 0 0 1
  outer loop
    vertex 0.0005532600500085733 -0.0002541577492010409 0
    vertex 0.0004056192852836316 -4.055248430899934e-05 0
    vertex 0.0002924286224790224 -0.000275930403225333 0
  endloop
endfacet
facet normal 0 0 1
  outer loop
    vertex 0.0001449758133485081 -6.159745460142172e-05 0
    vertex 3.279479974415756e-05 -0.0002976580843202387 0
    vertex 0.0002924286224790224 -0.000275930403225333 0
  endloop
endfacet
facet normal 0 -0 1
  outer loop
    vertex -0.0004883008887282759 -0.0003399690537748187 0
    vertex -0.0003762448611553115 -0.0001037681748247206 0
    vertex -0.0006368277580885677 -0.0001248902181823617 0
  endloop
endfacet
facet normal 0 0 1
  outer loop
    vertex -0.0007420675599054338 -0.0003601699704171286 0
    vertex -0.0004883008887282759 -0.0003399690537748187 0
    vertex -0.0006368277580885677 -0.0001248902181823617 0
  endloop
endfacet
facet normal 0 0 1
  outer loop
    vertex 0.0004056192852836316 -4.055248430899934e-05 0
    vertex 0.0001449758133485081 -6.159745460142172e-05 0
    vertex 0.0002924286224790224 -0.000275930403225333 0
  endloop
endfacet
facet normal 0 0 1
  outer loop
    vertex -0.0006368277580885677 -0.0001248902181823617 0
    vertex -0.0007820477872195993 8.867579875392394e-05 0
    vertex -0.0008799126240109339 -0.0001484391262434697 0
  endloop
endfacet
facet normal 0 -0 1
  outer loop
    vertex -0.0007420675599054338 -0.0003601699704171286 0
    vertex -0.0006368277580885677 -0.0001248902181823617 0
    vertex -0.0008799126240109339 -0.0001484391262434697 0
  endloop
endfacet
facet normal 0 0 1
  outer loop
    vertex 0.0005532600500085733 -0.0002541577492010409 0
    vertex 0.0004371131512425457 -0.0004894941809433597 0
    vertex 0.0006958409443338109 -0.0004632253504258122 0
  endloop
endfacet
facet normal 0 -0 1
  outer loop
    vertex -3.627883143807199e-05 -0.0009866811069634456 0
    vertex 6.873018968731203e-05 -0.0007489893214291792 0
    vertex -0.0001912915443457082 -0.0007689017301942593 0
  endloop
endfacet
facet normal 0 0 1
  outer loop
    vertex -0.0003397978817526122 -0.0005548675400700383 0
    vertex -0.0004521952336725881 -0.0007772534482845448 0
    vertex -0.0001912915443457082 -0.0007689017301942593 0
  endloop
endfacet
facet normal 0 0 1
  outer loop
    vertex 6.873018968731203e-05 -0.0007489893214291792 0
    vertex -7.936192860551231e-05 -0.0005336818863304487 0
    vertex -0.0001912915443457082 -0.0007689017301942593 0
  endloop
endfacet
facet normal 0 0 1
  outer loop
    vertex -7.936192860551231e-05 -0.0005336818863304487 0
    vertex -0.0003397978817526122 -0.0005548675400700383 0
    vertex -0.0001912915443457082 -0.0007689017301942593 0
  endloop
endfacet
facet normal 0 0 1
  outer loop
    vertex 0.0003315746322685924 -0.0007254258802641897 0
    vertex 0.0005912995306261207 -0.0006887498896738082 0
    vertex 0.0004371131512425457 -0.0004894941809433597 0
  endloop
endfacet
facet normal 0 0 1
  outer loop
    vertex 0.0005532600500085733 -0.0002541577492010409 0
    vertex 0.0002924286224790224 -0.000275930403225333 0
    vertex 0.0004371131512425457 -0.0004894941809433597 0
  endloop
endfacet
facet normal -0 0 1
  outer loop
    vertex 0.000180808635246718 -0.0005121224659769374 0
    vertex 0.0003315746322685924 -0.0007254258802641897 0
    vertex 0.0004371131512425457 -0.0004894941809433597 0
  endloop
endfacet
facet normal -0 0 1
  outer loop
    vertex 0.0004371131512425457 -0.0004894941809433597 0
    vertex 0.0005912995306261207 -0.0006887498896738082 0
    vertex 0.0006958409443338109 -0.0004632253504258122 0
  endloop
endfacet
facet normal 0 0 1
  outer loop
    vertex -0.0001912915443457082 -0.0007689017301942593 0
    vertex -0.0004521952336725881 -0.0007772534482845448 0
    vertex -0.0003193758636156688 -0.001025383271502091 0
  endloop
endfacet
facet normal 0 0 1
  outer loop
    vertex -0.0003193758636156688 -0.001025383271502091 0
    vertex -0.0005369975757228933 -0.001166420369714298 0
    vertex -0.0003480753492659333 -0.001268316883380414 0
  endloop
endfacet
facet normal 0 0 1
  outer loop
    vertex 0.0006958409443338109 -0.0004632253504258122 0
    vertex 0.0005912995306261207 -0.0006887498896738082 0
    vertex 0.0008699669028949829 -0.0006622416040930563 0
  endloop
endfacet
facet normal 0 0 1
  outer loop
    vertex 0.0002924286224790224 -0.000275930403225333 0
    vertex 0.000180808635246718 -0.0005121224659769374 0
    vertex 0.0004371131512425457 -0.0004894941809433597 0
  endloop
endfacet
facet normal 0 0 1
  outer loop
    vertex -3.627883143807199e-05 -0.0009866811069634456 0
    vertex -0.0001912915443457082 -0.0007689017301942593 0
    vertex -0.0003193758636156688 -0.001025383271502091 0
  endloop
endfacet
facet normal 0 0 1
  outer loop
    vertex 0.0008064523757765086 -0.0002334251067346887 0
    vertex 0.0005532600500085733 -0.0002541577492010409 0
    vertex 0.0006958409443338109 -0.0004632253504258122 0
  endloop
endfacet
facet normal 0 0 1
  outer loop
    vertex -0.0004548181321517436 0.000775191588666415 0
    vertex -0.0001859977553595304 0.0008188127369158857 0
    vertex -0.000338555542968196 0.001012019508137311 0
  endloop
endfacet
facet normal 0 0 1
  outer loop
    vertex -3.627883143807199e-05 -0.0009866811069634456 0
    vertex -0.0001105008255022047 -0.001263030214988503 0
    vertex 0.0001030895066583813 -0.001159686526842165 0
  endloop
endfacet
facet normal 0 0 1
  outer loop
    vertex -0.0007420675599054338 -0.0003601699704171286 0
    vertex -0.0008799126240109339 -0.0001484391262434697 0
    vertex -0.001000365638364678 -0.00040670897514188 0
  endloop
endfacet
facet normal 0 0 1
  outer loop
    vertex -0.0007820477872195993 8.867579875392394e-05 0
    vertex -0.0009339704294740357 0.0003054162089733118 0
    vertex -0.001010056857342687 6.684121485884123e-05 0
  endloop
endfacet
facet normal 0 -0 1
  outer loop
    vertex -0.0007364363370838193 -0.0008009290262460464 0
    vertex -0.0005972910238640076 -0.0005740913617159967 0
    vertex -0.0008190405621992706 -0.0005696058966078878 0
  endloop
endfacet
facet normal 0 0 1
  outer loop
    vertex 0.000907117653768945 -2.250200199785973e-06 0
    vertex 0.0008064523757765086 -0.0002334251067346887 0
    vertex 0.00105969479845582 -0.0002299522282550534 0
  endloop
endfacet
facet normal 0 -0 1
  outer loop
    vertex -0.0005369975757228933 -0.001166420369714298 0
    vertex -0.0003193758636156688 -0.001025383271502091 0
    vertex -0.0005618605295744546 -0.0009640692030670824 0
  endloop
endfacet
facet normal 0 0 1
  outer loop
    vertex 0.0009350816112947732 0.0004419182464996294 0
    vertex 0.0007783425170212202 0.0002129626491206727 0
    vertex 0.001030058200508838 0.0002038187439014458 0
  endloop
endfacet
facet normal 0 0 1
  outer loop
    vertex 0.0008725617705202561 0.0009001202942394571 0
    vertex 0.0007417731780825566 0.0006681586595322145 0
    vertex 0.001014981861447868 0.0007017765660949658 0
  endloop
endfacet
facet normal 0 0 1
  outer loop
    vertex 0.0003281449648398446 -0.001224653681030205 0
    vertex 0.000215425496658476 -0.0009678150157260545 0
    vertex 0.0001030895066583813 -0.001159686526842165 0
  endloop
endfacet
facet normal 0 -0 1
  outer loop
    vertex -0.0001859977553595304 0.0008188127369158857 0
    vertex -7.659125825444491e-05 0.001056307722555612 0
    vertex -0.000338555542968196 0.001012019508137311 0
  endloop
endfacet
facet normal 0 -0 1
  outer loop
    vertex -0.0005662136944134645 0.0005556739538835 0
    vertex -0.0004548181321517436 0.000775191588666415 0
    vertex -0.00068542565623263 0.0007389373796654027 0
  endloop
endfacet
facet normal -0 0 1
  outer loop
    vertex 0.0006958409443338109 -0.0004632253504258122 0
    vertex 0.0008699669028949829 -0.0006622416040930563 0
    vertex 0.0009246577368091761 -0.0004301382805311595 0
  endloop
endfacet
facet normal 0 0 1
  outer loop
    vertex 0.0005358185854701914 0.001149066664678467 0
    vertex 0.0006189836305860431 0.0008829607730364299 0
    vertex 0.00074830908022126 0.001076050500461896 0
  endloop
endfacet
facet normal 0 -0 1
  outer loop
    vertex -0.0008799126240109339 -0.0001484391262434697 0
    vertex -0.0007820477872195993 8.867579875392394e-05 0
    vertex -0.001010056857342687 6.684121485884123e-05 0
  endloop
endfacet
facet normal 0 0 1
  outer loop
    vertex 6.106286819723423e-05 0.0008331015489694492 0
    vertex 0.0003325908660995111 0.0008622329739420815 0
    vertex 0.0001159075661031966 0.001030356343196586 0
  endloop
endfacet
facet normal 0 0 1
  outer loop
    vertex -0.0005972910238640076 -0.0005740913617159967 0
    vertex -0.0007420675599054338 -0.0003601699704171286 0
    vertex -0.0008190405621992706 -0.0005696058966078878 0
  endloop
endfacet
facet normal 0 0 1
  outer loop
    vertex -0.0003193758636156688 -0.001025383271502091 0
    vertex -0.0004521952336725881 -0.0007772534482845448 0
    vertex -0.0005618605295744546 -0.0009640692030670824 0
  endloop
endfacet
facet normal 0 0 1
  outer loop
    vertex 0.000907117653768945 -2.250200199785973e-06 0
    vertex 0.00105969479845582 -0.0002299522282550534 0
    vertex 0.001115727641364535 -5.442173314263911e-06 0
  endloop
endfacet
facet normal -0 0 1
  outer loop
    vertex 0.0007417731780825566 0.0006681586595322145 0
    vertex 0.0009350816112947732 0.0004419182464996294 0
    vertex 0.001014981861447868 0.0007017765660949658 0
  endloop
endfacet
facet normal 0 -0 1
  outer loop
    vertex 0.0005643327191282934 -0.001185491062749119 0
    vertex 0.0007361289970585625 -0.001055865404793886 0
    vertex 0.0004943594187545576 -0.0009383591910659819 0
  endloop
endfacet
facet normal 0 0 1
  outer loop
    vertex 0.0007783425170212202 0.0002129626491206727 0
    vertex 0.000907117653768945 -2.250200199785973e-06 0
    vertex 0.001030058200508838 0.0002038187439014458 0
  endloop
endfacet
facet normal 0 0 1
  outer loop
    vertex -0.0004548181321517436 0.000775191588666415 0
    vertex -0.0006392912523686089 0.000936514502867157 0
    vertex -0.00068542565623263 0.0007389373796654027 0
  endloop
endfacet
facet normal 0 0 1
  outer loop
    vertex 0.000215425496658476 -0.0009678150157260545 0
    vertex -3.627883143807199e-05 -0.0009866811069634456 0
    vertex 0.0001030895066583813 -0.001159686526842165 0
  endloop
endfacet
facet normal 0 0 1
  outer loop
    vertex 0.0001066443570717249 0.001253310215924744 0
    vertex -7.659125825444491e-05 0.001056307722555612 0
    vertex 0.0001159075661031966 0.001030356343196586 0
  endloop
endfacet
facet normal 0 0 1
  outer loop
    vertex -0.001029389457417931 -0.0007213771738319322 0
    vertex -0.001149066664678467 -0.0009641814145298089 0
    vertex -0.0009254428707248724 -0.0009418641908493359 0
  endloop
endfacet
facet normal -0 0 1
  outer loop
    vertex -0.001149066664678467 -0.0009641814145298089 0
    vertex -0.0009641814145298092 -0.001149066664678467 0
    vertex -0.0009254428707248724 -0.0009418641908493359 0
  endloop
endfacet
facet normal 0 -0 1
  outer loop
    vertex -0.001000365638364678 -0.00040670897514188 0
    vertex -0.0008799126240109339 -0.0001484391262434697 0
    vertex -0.001102570766924899 -0.0001624329408806551 0
  endloop
endfacet
facet normal 0 0 1
  outer loop
    vertex 0.0003325908660995111 0.0008622329739420815 0
    vertex 0.0002957486232130204 0.001103748888099535 0
    vertex 0.0001159075661031966 0.001030356343196586 0
  endloop
endfacet
facet normal 0 0 1
  outer loop
    vertex 0.0005912995306261207 -0.0006887498896738082 0
    vertex 0.0004943594187545576 -0.0009383591910659819 0
    vertex 0.0007226131283539014 -0.0008502624080600545 0
  endloop
endfacet
facet normal 0 0 1
  outer loop
    vertex 0.001409538931178863 0.0005130302149885031 0
    vertex 0.001299038105676658 0.0007499999999999999 0
    vertex 0.001177117430003062 0.0005540123965425609 0
  endloop
endfacet
facet normal 0 -0 1
  outer loop
    vertex 0.001224653681030205 0.0003281449648398448 0
    vertex 0.001409538931178863 0.0005130302149885031 0
    vertex 0.001177117430003062 0.0005540123965425609 0
  endloop
endfacet
facet normal 0 -0 1
  outer loop
    vertex -0.0008190405621992706 -0.0005696058966078878 0
    vertex -0.0007420675599054338 -0.0003601699704171286 0
    vertex -0.001000365638364678 -0.00040670897514188 0
  endloop
endfacet
facet normal 0 0 1
  outer loop
    vertex 0.0008064523757765086 -0.0002334251067346887 0
    vertex 0.0006958409443338109 -0.0004632253504258122 0
    vertex 0.0009246577368091761 -0.0004301382805311595 0
  endloop
endfacet
facet normal 0 0 1
  outer loop
    vertex -0.0007364363370838193 -0.0008009290262460464 0
    vertex -0.0009254428707248724 -0.0009418641908493359 0
    vertex -0.0007481404799143355 -0.001073766674960425 0
  endloop
endfacet
facet normal 0 -0 1
  outer loop
    vertex 0.001149066664678467 -0.0009641814145298094 0
    vertex 0.001299038105676658 -0.0007500000000000007 0
    vertex 0.001077049675943075 -0.0007671331201681366 0
  endloop
endfacet
facet normal 0 0 1
  outer loop
    vertex 0.001299038105676658 -0.0007500000000000007 0
    vertex 0.001143023997557148 -0.0005336761660201101 0
    vertex 0.001077049675943075 -0.0007671331201681366 0
  endloop
endfacet
facet normal 0 0 1
  outer loop
    vertex -0.001000365638364678 -0.00040670897514188 0
    vertex -0.001244503942727657 -0.0003323283773600016 0
    vertex -0.001196567215073157 -0.0005446889482644632 0
  endloop
endfacet
facet normal 0 0 1
  outer loop
    vertex -0.0006392912523686089 0.000936514502867157 0
    vertex -0.0008764664943894126 0.0008802598249162189 0
    vertex -0.00068542565623263 0.0007389373796654027 0
  endloop
endfacet
facet normal 0 0 1
  outer loop
    vertex 0.0005130302149885023 -0.001409538931178863 0
    vertex 0.0007500000000000002 -0.001299038105676658 0
    vertex 0.0005643327191282934 -0.001185491062749119 0
  endloop
endfacet
facet normal 0 0 1
  outer loop
    vertex -0.001149066664678467 0.0009641814145298092 0
    vertex -0.001299038105676658 0.0007499999999999999 0
    vertex -0.001060842484573096 0.0007322481828548924 0
  endloop
endfacet
facet normal 0 0 1
  outer loop
    vertex 0.001143023997557148 -0.0005336761660201101 0
    vertex 0.001409538931178862 -0.0005130302149885041 0
    vertex 0.001275234917354013 -0.0003301985723283041 0
  endloop
endfacet
facet normal -0 0 1
  outer loop
    vertex -0.000513030214988504 -0.001409538931178862 0
    vertex -0.0002604722665003955 -0.001477211629518312 0
    vertex -0.0003480753492659333 -0.001268316883380414 0
  endloop
endfacet
facet normal 0 -0 1
  outer loop
    vertex 0.001409538931178862 -0.0005130302149885041 0
    vertex 0.001477211629518312 -0.0002604722665003956 0
    vertex 0.001275234917354013 -0.0003301985723283041 0
  endloop
endfacet
facet normal 0 0 1
  outer loop
    vertex -0.001244503942727657 -0.0003323283773600016 0
    vertex -0.001409538931178863 -0.000513030214988503 0
    vertex -0.001196567215073157 -0.0005446889482644632 0
  endloop
endfacet
facet normal -0 0 1
  outer loop
    vertex -0.001477211629518312 -0.000260472266500395 0
    vertex -0.001244503942727657 -0.0003323283773600016 0
    vertex -0.001315687391026984 -0.0001335473275963189 0
  endloop
endfacet
facet normal 0 0 1
  outer loop
    vertex -0.0015 1.83697019872103e-19 0
    vertex -0.001477211629518312 -0.000260472266500395 0
    vertex -0.001315687391026984 -0.0001335473275963189 0
  endloop
endfacet
facet normal 0 0 1
  outer loop
    vertex 0.001286705230059924 -0.0001138619858774573 0
    vertex 0.0015 0 0
    vertex 0.001295062324029146 0.0001150348038595313 0
  endloop
endfacet
facet normal 0 0 1
  outer loop
    vertex -0.001129471264726713 0.0004898375082129826 0
    vertex -0.001409538931178862 0.0005130302149885033 0
    vertex -0.001266305427759642 0.0003326505264784013 0
  endloop
endfacet
facet normal 0 0 1
  outer loop
    vertex -0.0005369975757228933 -0.001166420369714298 0
    vertex -0.000513030214988504 -0.001409538931178862 0
    vertex -0.0003480753492659333 -0.001268316883380414 0
  endloop
endfacet
facet normal 0 0 1
  outer loop
    vertex -0.0008764664943894126 0.0008802598249162189 0
    vertex -0.001149066664678467 0.0009641814145298092 0
    vertex -0.001060842484573096 0.0007322481828548924 0
  endloop
endfacet
facet normal 0 0 1
  outer loop
    vertex -0.001409538931178862 0.0005130302149885033 0
    vertex -0.001477211629518312 0.0002604722665003961 0
    vertex -0.001266305427759642 0.0003326505264784013 0
  endloop
endfacet
facet normal 0 0 1
  outer loop
    vertex -0.001409538931178863 -0.000513030214988503 0
    vertex -0.001299038105676658 -0.0007499999999999996 0
    vertex -0.001196567215073157 -0.0005446889482644632 0
  endloop
endfacet
facet normal 0 -0 1
  outer loop
    vertex -0.0002604722665003955 -0.001477211629518312 0
    vertex -0.0001105008255022047 -0.001263030214988503 0
    vertex -0.0003480753492659333 -0.001268316883380414 0
  endloop
endfacet
facet normal -0 0 1
  outer loop
    vertex 0.0003281449648398446 -0.001224653681030205 0
    vertex 0.0005130302149885023 -0.001409538931178863 0
    vertex 0.0005643327191282934 -0.001185491062749119 0
  endloop
endfacet
facet normal 0 0 1
  outer loop
    vertex 0.001477211629518312 -0.0002604722665003956 0
    vertex 0.001286705230059924 -0.0001138619858774573 0
    vertex 0.001275234917354013 -0.0003301985723283041 0
  endloop
endfacet
facet normal 0 0 1
  outer loop
    vertex 0.0007500000000000002 -0.001299038105676658 0
    vertex 0.0007361289970585625 -0.001055865404793886 0
    vertex 0.0005643327191282934 -0.001185491062749119 0
  endloop
endfacet
facet normal 0 0 1
  outer loop
    vertex -0.00125415061596405 8.749694675945727e-05 0
    vertex -0.0015 1.83697019872103e-19 0
    vertex -0.001315687391026984 -0.0001335473275963189 0
  endloop
endfacet
facet normal 0 0 1
  outer loop
    vertex -0.001299038105676658 -0.0007499999999999996 0
    vertex -0.001029389457417931 -0.0007213771738319322 0
    vertex -0.001196567215073157 -0.0005446889482644632 0
  endloop
endfacet
facet normal 0 0 1
  outer loop
    vertex 0.0015 0 0
    vertex 0.001477211629518312 0.0002604722665003955 0
    vertex 0.001295062324029146 0.0001150348038595313 0
  endloop
endfacet
facet normal 0 0 1
  outer loop
    vertex -0.001299038105676658 0.0007499999999999999 0
    vertex -0.001129471264726713 0.0004898375082129826 0
    vertex -0.001060842484573096 0.0007322481828548924 0
  endloop
endfacet
facet normal -0 0 1
  outer loop
    vertex -0.001477211629518312 0.0002604722665003961 0
    vertex -0.00125415061596405 8.749694675945727e-05 0
    vertex -0.001266305427759642 0.0003326505264784013 0
  endloop
endfacet
facet normal 0 0 1
  outer loop
    vertex 0.001477211629518312 0.0002604722665003955 0
    vertex 0.001224653681030205 0.0003281449648398448 0
    vertex 0.001295062324029146 0.0001150348038595313 0
  endloop
endfacet
facet normal 0 0 1
  outer loop
    vertex 0.0007500000000000002 0.001299038105676658 0
    vertex 0.0005358185854701914 0.001149066664678467 0
    vertex 0.00074830908022126 0.001076050500461896 0
  endloop
endfacet
facet normal 0 0 1
  outer loop
    vertex 0.0009641814145298091 0.001149066664678467 0
    vertex 0.0007500000000000002 0.001299038105676658 0
    vertex 0.00074830908022126 0.001076050500461896 0
  endloop
endfacet
facet normal 0 -0 1
  outer loop
    vertex 0.0008725617705202561 0.0009001202942394571 0
    vertex 0.0009641814145298091 0.001149066664678467 0
    vertex 0.00074830908022126 0.001076050500461896 0
  endloop
endfacet
facet normal 0 -0 1
  outer loop
    vertex 0.0009641814145298089 -0.001149066664678467 0
    vertex 0.001149066664678467 -0.0009641814145298094 0
    vertex 0.0009213107924352828 -0.0009060959506735399 0
  endloop
endfacet
facet normal -0 0 1
  outer loop
    vertex 0.0004943594187545576 -0.0009383591910659819 0
    vertex 0.0007361289970585625 -0.001055865404793886 0
    vertex 0.0007226131283539014 -0.0008502624080600545 0
  endloop
endfacet
facet normal -0 0 1
  outer loop
    vertex 0.0007361289970585625 -0.001055865404793886 0
    vertex 0.0009641814145298089 -0.001149066664678467 0
    vertex 0.0009213107924352828 -0.0009060959506735399 0
  endloop
endfacet
facet normal -0 0 1
  outer loop
    vertex -0.0009641814145298092 -0.001149066664678467 0
    vertex -0.0007500000000000007 -0.001299038105676658 0
    vertex -0.0007481404799143355 -0.001073766674960425 0
  endloop
endfacet
facet normal 0 0 1
  outer loop
    vertex -0.000338555542968196 0.001012019508137311 0
    vertex -7.659125825444491e-05 0.001056307722555612 0
    vertex -0.00022248256818906 0.001243190095417211 0
  endloop
endfacet
facet normal 0 0 1
  outer loop
    vertex 0.00105969479845582 -0.0002299522282550534 0
    vertex 0.001286705230059924 -0.0001138619858774573 0
    vertex 0.001115727641364535 -5.442173314263911e-06 0
  endloop
endfacet
facet normal 0 0 1
  outer loop
    vertex 0.001077049675943075 -0.0007671331201681366 0
    vertex 0.0008699669028949829 -0.0006622416040930563 0
    vertex 0.0009213107924352828 -0.0009060959506735399 0
  endloop
endfacet
facet normal 0 0 1
  outer loop
    vertex -0.0007500000000000007 -0.001299038105676658 0
    vertex -0.0005369975757228933 -0.001166420369714298 0
    vertex -0.0007481404799143355 -0.001073766674960425 0
  endloop
endfacet
facet normal -0 0 1
  outer loop
    vertex 0.0008064523757765086 -0.0002334251067346887 0
    vertex 0.0009246577368091761 -0.0004301382805311595 0
    vertex 0.00105969479845582 -0.0002299522282550534 0
  endloop
endfacet
facet normal 0 0 1
  outer loop
    vertex -0.0005364878858561483 0.00115418623081567 0
    vertex -0.0007499999999999997 0.001299038105676658 0
    vertex -0.0007578952670402829 0.001088108050519421 0
  endloop
endfacet
facet normal 0 0 1
  outer loop
    vertex -0.0009641814145298091 0.001149066664678467 0
    vertex -0.0008764664943894126 0.0008802598249162189 0
    vertex -0.0007578952670402829 0.001088108050519421 0
  endloop
endfacet
facet normal 0 0 1
  outer loop
    vertex 0.0005358185854701914 0.001149066664678467 0
    vertex 0.0005130302149885033 0.001409538931178862 0
    vertex 0.0003456462357938624 0.001290309877353033 0
  endloop
endfacet
facet normal 0 0 1
  outer loop
    vertex 0.0002604722665003956 0.001477211629518312 0
    vertex 0.0001066443570717249 0.001253310215924744 0
    vertex 0.0003456462357938624 0.001290309877353033 0
  endloop
endfacet
facet normal 0 -0 1
  outer loop
    vertex 0.000260472266500395 -0.001477211629518312 0
    vertex 0.0003281449648398446 -0.001224653681030205 0
    vertex 0.0001177764276279662 -0.001344832715711516 0
  endloop
endfacet
facet normal 0 0 1
  outer loop
    vertex -0.0001105008255022047 -0.001263030214988503 0
    vertex -2.755455298081544e-19 -0.0015 0
    vertex 0.0001177764276279662 -0.001344832715711516 0
  endloop
endfacet
facet normal -0 0 1
  outer loop
    vertex -0.001244503942727657 -0.0003323283773600016 0
    vertex -0.001000365638364678 -0.00040670897514188 0
    vertex -0.001102570766924899 -0.0001624329408806551 0
  endloop
endfacet
facet normal -0 0 1
  outer loop
    vertex -0.0008501698933942301 0.0005769621666154513 0
    vertex -0.0005662136944134645 0.0005556739538835 0
    vertex -0.00068542565623263 0.0007389373796654027 0
  endloop
endfacet
facet normal 0 0 1
  outer loop
    vertex 0.001286705230059924 -0.0001138619858774573 0
    vertex 0.00105969479845582 -0.0002299522282550534 0
    vertex 0.001275234917354013 -0.0003301985723283041 0
  endloop
endfacet
facet normal 0 0 1
  outer loop
    vertex -0.0007364363370838193 -0.0008009290262460464 0
    vertex -0.0007481404799143355 -0.001073766674960425 0
    vertex -0.0005618605295744546 -0.0009640692030670824 0
  endloop
endfacet
facet normal 0 0 1
  outer loop
    vertex -0.0008764664943894126 0.0008802598249162189 0
    vertex -0.0006392912523686089 0.000936514502867157 0
    vertex -0.0007578952670402829 0.001088108050519421 0
  endloop
endfacet
facet normal 0 -0 1
  outer loop
    vertex -0.0006392912523686089 0.000936514502867157 0
    vertex -0.0005364878858561483 0.00115418623081567 0
    vertex -0.0007578952670402829 0.001088108050519421 0
  endloop
endfacet
facet normal 0 0 1
  outer loop
    vertex 0.0002957486232130204 0.001103748888099535 0
    vertex 0.0005358185854701914 0.001149066664678467 0
    vertex 0.0003456462357938624 0.001290309877353033 0
  endloop
endfacet
facet normal -0 0 1
  outer loop
    vertex 0.0001066443570717249 0.001253310215924744 0
    vertex 0.0002957486232130204 0.001103748888099535 0
    vertex 0.0003456462357938624 0.001290309877353033 0
  endloop
endfacet
facet normal 0 0 1
  outer loop
    vertex 0.0009213107924352828 -0.0009060959506735399 0
    vertex 0.0008699669028949829 -0.0006622416040930563 0
    vertex 0.0007226131283539014 -0.0008502624080600545 0
  endloop
endfacet
facet normal 0 0 1
  outer loop
    vertex -0.0007499999999999997 0.001299038105676658 0
    vertex -0.0009641814145298091 0.001149066664678467 0
    vertex -0.0007578952670402829 0.001088108050519421 0
  endloop
endfacet
facet normal 0 0 1
  outer loop
    vertex -0.0008799126240109339 -0.0001484391262434697 0
    vertex -0.001010056857342687 6.684121485884123e-05 0
    vertex -0.001102570766924899 -0.0001624329408806551 0
  endloop
endfacet
facet normal 0 0 1
  outer loop
    vertex 0.0005130302149885033 0.001409538931178862 0
    vertex 0.0002604722665003956 0.001477211629518312 0
    vertex 0.0003456462357938624 0.001290309877353033 0
  endloop
endfacet
facet normal 0 0 1
  outer loop
    vertex -0.0004521952336725881 -0.0007772534482845448 0
    vertex -0.0007364363370838193 -0.0008009290262460464 0
    vertex -0.0005618605295744546 -0.0009640692030670824 0
  endloop
endfacet
facet normal 0 0 1
  outer loop
    vertex -0.0009254428707248724 -0.0009418641908493359 0
    vertex -0.0009641814145298092 -0.001149066664678467 0
    vertex -0.0007481404799143355 -0.001073766674960425 0
  endloop
endfacet
facet normal 0 0 1
  outer loop
    vertex 0.001149066664678467 -0.0009641814145298094 0
    vertex 0.001077049675943075 -0.0007671331201681366 0
    vertex 0.0009213107924352828 -0.0009060959506735399 0
  endloop
endfacet
facet normal 0 0 1
  outer loop
    vertex 0.0008699669028949829 -0.0006622416040930563 0
    vertex 0.0005912995306261207 -0.0006887498896738082 0
    vertex 0.0007226131283539014 -0.0008502624080600545 0
  endloop
endfacet
facet normal 0 0 1
  outer loop
    vertex -7.659125825444491e-05 0.001056307722555612 0
    vertex 6.106286819723423e-05 0.0008331015489694492 0
    vertex 0.0001159075661031966 0.001030356343196586 0
  endloop
endfacet
facet normal 0 -0 1
  outer loop
    vertex -0.001010056857342687 6.684121485884123e-05 0
    vertex -0.0009339704294740357 0.0003054162089733118 0
    vertex -0.001115618919456049 0.0002489861726948504 0
  endloop
endfacet
facet normal 0 0 1
  outer loop
    vertex -2.755455298081544e-19 -0.0015 0
    vertex 0.000260472266500395 -0.001477211629518312 0
    vertex 0.0001177764276279662 -0.001344832715711516 0
  endloop
endfacet
facet normal 0 0 1
  outer loop
    vertex 0.0002957486232130204 0.001103748888099535 0
    vertex 0.0001066443570717249 0.001253310215924744 0
    vertex 0.0001159075661031966 0.001030356343196586 0
  endloop
endfacet
facet normal 0 0 1
  outer loop
    vertex 0.0001030895066583813 -0.001159686526842165 0
    vertex -0.0001105008255022047 -0.001263030214988503 0
    vertex 0.0001177764276279662 -0.001344832715711516 0
  endloop
endfacet
facet normal 0 0 1
  outer loop
    vertex 0.0003281449648398446 -0.001224653681030205 0
    vertex 0.0001030895066583813 -0.001159686526842165 0
    vertex 0.0001177764276279662 -0.001344832715711516 0
  endloop
endfacet
facet normal 0 0 1
  outer loop
    vertex 0.001030058200508838 0.0002038187439014458 0
    vertex 0.000907117653768945 -2.250200199785973e-06 0
    vertex 0.001115727641364535 -5.442173314263911e-06 0
  endloop
endfacet
facet normal -0 0 1
  outer loop
    vertex -0.00125415061596405 8.749694675945727e-05 0
    vertex -0.001010056857342687 6.684121485884123e-05 0
    vertex -0.001115618919456049 0.0002489861726948504 0
  endloop
endfacet
facet normal -0 0 1
  outer loop
    vertex -0.0007481404799143355 -0.001073766674960425 0
    vertex -0.0005369975757228933 -0.001166420369714298 0
    vertex -0.0005618605295744546 -0.0009640692030670824 0
  endloop
endfacet
facet normal 0 0 1
  outer loop
    vertex -0.001315687391026984 -0.0001335473275963189 0
    vertex -0.001244503942727657 -0.0003323283773600016 0
    vertex -0.001102570766924899 -0.0001624329408806551 0
  endloop
endfacet
facet normal 0 -0 1
  outer loop
    vertex 0.0007361289970585625 -0.001055865404793886 0
    vertex 0.0009213107924352828 -0.0009060959506735399 0
    vertex 0.0007226131283539014 -0.0008502624080600545 0
  endloop
endfacet
facet normal 0 -0 1
  outer loop
    vertex 0.001286705230059924 -0.0001138619858774573 0
    vertex 0.001295062324029146 0.0001150348038595313 0
    vertex 0.001115727641364535 -5.442173314263911e-06 0
  endloop
endfacet
facet normal 0 0 1
  outer loop
    vertex -0.001266305427759642 0.0003326505264784013 0
    vertex -0.00125415061596405 8.749694675945727e-05 0
    vertex -0.001115618919456049 0.0002489861726948504 0
  endloop
endfacet
endsolid Created by Gmsh
